%TF.GenerationSoftware,KiCad,Pcbnew,(5.1.10)-1*%
%TF.CreationDate,2021-11-13T18:31:53+01:00*%
%TF.ProjectId,HeCo,4865436f-2e6b-4696-9361-645f70636258,rev?*%
%TF.SameCoordinates,Original*%
%TF.FileFunction,Legend,Top*%
%TF.FilePolarity,Positive*%
%FSLAX46Y46*%
G04 Gerber Fmt 4.6, Leading zero omitted, Abs format (unit mm)*
G04 Created by KiCad (PCBNEW (5.1.10)-1) date 2021-11-13 18:31:53*
%MOMM*%
%LPD*%
G01*
G04 APERTURE LIST*
%ADD10C,0.150000*%
%ADD11C,0.120000*%
%ADD12C,0.100000*%
G04 APERTURE END LIST*
D10*
X156200000Y-105778571D02*
X156200000Y-104278571D01*
X156200000Y-104992857D02*
X157057142Y-104992857D01*
X157057142Y-105778571D02*
X157057142Y-104278571D01*
X158342857Y-105707142D02*
X158200000Y-105778571D01*
X157914285Y-105778571D01*
X157771428Y-105707142D01*
X157700000Y-105564285D01*
X157700000Y-104992857D01*
X157771428Y-104850000D01*
X157914285Y-104778571D01*
X158200000Y-104778571D01*
X158342857Y-104850000D01*
X158414285Y-104992857D01*
X158414285Y-105135714D01*
X157700000Y-105278571D01*
X159914285Y-105635714D02*
X159842857Y-105707142D01*
X159628571Y-105778571D01*
X159485714Y-105778571D01*
X159271428Y-105707142D01*
X159128571Y-105564285D01*
X159057142Y-105421428D01*
X158985714Y-105135714D01*
X158985714Y-104921428D01*
X159057142Y-104635714D01*
X159128571Y-104492857D01*
X159271428Y-104350000D01*
X159485714Y-104278571D01*
X159628571Y-104278571D01*
X159842857Y-104350000D01*
X159914285Y-104421428D01*
X160771428Y-105778571D02*
X160628571Y-105707142D01*
X160557142Y-105635714D01*
X160485714Y-105492857D01*
X160485714Y-105064285D01*
X160557142Y-104921428D01*
X160628571Y-104850000D01*
X160771428Y-104778571D01*
X160985714Y-104778571D01*
X161128571Y-104850000D01*
X161200000Y-104921428D01*
X161271428Y-105064285D01*
X161271428Y-105492857D01*
X161200000Y-105635714D01*
X161128571Y-105707142D01*
X160985714Y-105778571D01*
X160771428Y-105778571D01*
X162842857Y-104278571D02*
X163342857Y-105778571D01*
X163842857Y-104278571D01*
X165128571Y-105778571D02*
X164271428Y-105778571D01*
X164700000Y-105778571D02*
X164700000Y-104278571D01*
X164557142Y-104492857D01*
X164414285Y-104635714D01*
X164271428Y-104707142D01*
X165771428Y-105635714D02*
X165842857Y-105707142D01*
X165771428Y-105778571D01*
X165700000Y-105707142D01*
X165771428Y-105635714D01*
X165771428Y-105778571D01*
X166771428Y-104278571D02*
X166914285Y-104278571D01*
X167057142Y-104350000D01*
X167128571Y-104421428D01*
X167200000Y-104564285D01*
X167271428Y-104850000D01*
X167271428Y-105207142D01*
X167200000Y-105492857D01*
X167128571Y-105635714D01*
X167057142Y-105707142D01*
X166914285Y-105778571D01*
X166771428Y-105778571D01*
X166628571Y-105707142D01*
X166557142Y-105635714D01*
X166485714Y-105492857D01*
X166414285Y-105207142D01*
X166414285Y-104850000D01*
X166485714Y-104564285D01*
X166557142Y-104421428D01*
X166628571Y-104350000D01*
X166771428Y-104278571D01*
D11*
%TO.C,J3*%
X104377000Y-138222000D02*
X104377000Y-137842000D01*
X104377000Y-138222000D02*
X102607000Y-138222000D01*
X104377000Y-130602000D02*
X104377000Y-130982000D01*
X102607000Y-130602000D02*
X104377000Y-130602000D01*
%TO.C,J14*%
X108830000Y-100570000D02*
X108830000Y-103230000D01*
X119050000Y-100570000D02*
X108830000Y-100570000D01*
X119050000Y-103230000D02*
X108830000Y-103230000D01*
X119050000Y-100570000D02*
X119050000Y-103230000D01*
X120320000Y-100570000D02*
X121650000Y-100570000D01*
X121650000Y-100570000D02*
X121650000Y-101900000D01*
%TO.C,D2*%
X111380000Y-110440000D02*
X111380000Y-111900000D01*
X108220000Y-110440000D02*
X108220000Y-112600000D01*
X108220000Y-110440000D02*
X109150000Y-110440000D01*
X111380000Y-110440000D02*
X110450000Y-110440000D01*
%TO.C,J10*%
X150800000Y-109580000D02*
X150800000Y-106920000D01*
X150800000Y-109580000D02*
X168640000Y-109580000D01*
X168640000Y-109580000D02*
X168640000Y-106920000D01*
X150800000Y-106920000D02*
X168640000Y-106920000D01*
X148200000Y-106920000D02*
X149530000Y-106920000D01*
X148200000Y-108250000D02*
X148200000Y-106920000D01*
%TO.C,U3*%
X121505500Y-122939500D02*
X122155500Y-122939500D01*
X114935500Y-115719500D02*
X114935500Y-116369500D01*
X115585500Y-115719500D02*
X114935500Y-115719500D01*
X122155500Y-115719500D02*
X122155500Y-116369500D01*
X121505500Y-115719500D02*
X122155500Y-115719500D01*
X114935500Y-122939500D02*
X114935500Y-122289500D01*
X115585500Y-122939500D02*
X114935500Y-122939500D01*
%TO.C,J15*%
X124070000Y-108310000D02*
X126730000Y-108310000D01*
X124070000Y-103170000D02*
X124070000Y-108310000D01*
X126730000Y-103170000D02*
X126730000Y-108310000D01*
X124070000Y-103170000D02*
X126730000Y-103170000D01*
X124070000Y-101900000D02*
X124070000Y-100570000D01*
X124070000Y-100570000D02*
X125400000Y-100570000D01*
%TO.C,C15*%
X124243420Y-123365000D02*
X124524580Y-123365000D01*
X124243420Y-122345000D02*
X124524580Y-122345000D01*
%TO.C,R15*%
X134639500Y-128102742D02*
X134639500Y-128577258D01*
X133594500Y-128102742D02*
X133594500Y-128577258D01*
%TO.C,R18*%
X134639500Y-131658742D02*
X134639500Y-132133258D01*
X133594500Y-131658742D02*
X133594500Y-132133258D01*
%TO.C,D15*%
X129489000Y-132402000D02*
X130419000Y-132402000D01*
X132649000Y-132402000D02*
X131719000Y-132402000D01*
X132649000Y-132402000D02*
X132649000Y-130242000D01*
X129489000Y-132402000D02*
X129489000Y-130942000D01*
%TO.C,D14*%
X129489000Y-128846000D02*
X130419000Y-128846000D01*
X132649000Y-128846000D02*
X131719000Y-128846000D01*
X132649000Y-128846000D02*
X132649000Y-126686000D01*
X129489000Y-128846000D02*
X129489000Y-127386000D01*
%TO.C,J5*%
X116570000Y-134098000D02*
X116570000Y-135428000D01*
X115240000Y-134098000D02*
X116570000Y-134098000D01*
X116570000Y-136698000D02*
X116570000Y-139298000D01*
X113970000Y-136698000D02*
X116570000Y-136698000D01*
X113970000Y-134098000D02*
X113970000Y-136698000D01*
X116570000Y-139298000D02*
X106290000Y-139298000D01*
X113970000Y-134098000D02*
X106290000Y-134098000D01*
X106290000Y-134098000D02*
X106290000Y-139298000D01*
%TO.C,J13*%
X144390000Y-105770000D02*
X144390000Y-104440000D01*
X145720000Y-105770000D02*
X144390000Y-105770000D01*
X144390000Y-103170000D02*
X144390000Y-100570000D01*
X146990000Y-103170000D02*
X144390000Y-103170000D01*
X146990000Y-105770000D02*
X146990000Y-103170000D01*
X144390000Y-100570000D02*
X154670000Y-100570000D01*
X146990000Y-105770000D02*
X154670000Y-105770000D01*
X154670000Y-105770000D02*
X154670000Y-100570000D01*
%TO.C,C19*%
X105955420Y-114094000D02*
X106236580Y-114094000D01*
X105955420Y-113074000D02*
X106236580Y-113074000D01*
%TO.C,C1*%
X119110000Y-128710580D02*
X119110000Y-128429420D01*
X118090000Y-128710580D02*
X118090000Y-128429420D01*
%TO.C,J6*%
X149530000Y-119740000D02*
X148200000Y-119740000D01*
X148200000Y-119740000D02*
X148200000Y-118410000D01*
X148200000Y-117140000D02*
X148200000Y-114540000D01*
X150860000Y-114540000D02*
X148200000Y-114540000D01*
X150860000Y-117140000D02*
X150860000Y-114540000D01*
X150860000Y-117140000D02*
X148200000Y-117140000D01*
%TO.C,C6*%
X127688000Y-111438580D02*
X127688000Y-111157420D01*
X126668000Y-111438580D02*
X126668000Y-111157420D01*
%TO.C,D13*%
X149491000Y-135709000D02*
X147206000Y-135709000D01*
X149491000Y-137179000D02*
X149491000Y-135709000D01*
X147206000Y-137179000D02*
X149491000Y-137179000D01*
%TO.C,D12*%
X149491000Y-132153000D02*
X147206000Y-132153000D01*
X149491000Y-133623000D02*
X149491000Y-132153000D01*
X147206000Y-133623000D02*
X149491000Y-133623000D01*
%TO.C,D11*%
X157885000Y-123065000D02*
X155600000Y-123065000D01*
X157885000Y-124535000D02*
X157885000Y-123065000D01*
X155600000Y-124535000D02*
X157885000Y-124535000D01*
%TO.C,D10*%
X168285000Y-123065000D02*
X166000000Y-123065000D01*
X168285000Y-124535000D02*
X168285000Y-123065000D01*
X166000000Y-124535000D02*
X168285000Y-124535000D01*
%TO.C,R5*%
X127830500Y-137697258D02*
X127830500Y-137222742D01*
X126785500Y-137697258D02*
X126785500Y-137222742D01*
%TO.C,D1*%
X128173000Y-135975000D02*
X128173000Y-138260000D01*
X129643000Y-135975000D02*
X128173000Y-135975000D01*
X129643000Y-138260000D02*
X129643000Y-135975000D01*
%TO.C,J11*%
X100132000Y-125060000D02*
X100132000Y-124460000D01*
X100732000Y-124760000D02*
X100132000Y-125060000D01*
X100132000Y-124460000D02*
X100732000Y-124760000D01*
X108042000Y-116940000D02*
X108042000Y-117680000D01*
X102742000Y-116940000D02*
X108042000Y-116940000D01*
X102742000Y-127500000D02*
X102742000Y-116940000D01*
X108042000Y-127500000D02*
X102742000Y-127500000D01*
X108042000Y-126760000D02*
X108042000Y-127500000D01*
X108042000Y-122760000D02*
X108042000Y-121680000D01*
X102742000Y-118680000D02*
X102742000Y-120680000D01*
X100932000Y-118680000D02*
X102742000Y-118680000D01*
X100932000Y-120680000D02*
X100932000Y-118680000D01*
X102742000Y-120680000D02*
X100932000Y-120680000D01*
X102742000Y-123760000D02*
X102742000Y-125760000D01*
X100932000Y-123760000D02*
X102742000Y-123760000D01*
X100932000Y-125760000D02*
X100932000Y-123760000D01*
X102742000Y-125760000D02*
X100932000Y-125760000D01*
X101742000Y-123760000D02*
X101742000Y-120680000D01*
X101742000Y-116030000D02*
X101742000Y-118570000D01*
X101742000Y-128410000D02*
X101742000Y-125870000D01*
X100932000Y-116030000D02*
X100932000Y-128410000D01*
X109752000Y-116030000D02*
X100932000Y-116030000D01*
X109752000Y-128410000D02*
X109752000Y-116030000D01*
X100932000Y-128410000D02*
X109752000Y-128410000D01*
X108057821Y-117693159D02*
G75*
G02*
X108042000Y-121680000I-1665821J-1986841D01*
G01*
X108057821Y-122773159D02*
G75*
G02*
X108042000Y-126760000I-1665821J-1986841D01*
G01*
%TO.C,D3*%
X115030000Y-110440000D02*
X115030000Y-111900000D01*
X111870000Y-110440000D02*
X111870000Y-112600000D01*
X111870000Y-110440000D02*
X112800000Y-110440000D01*
X115030000Y-110440000D02*
X114100000Y-110440000D01*
%TO.C,D9*%
X139268000Y-132402000D02*
X140198000Y-132402000D01*
X142428000Y-132402000D02*
X141498000Y-132402000D01*
X142428000Y-132402000D02*
X142428000Y-130242000D01*
X139268000Y-132402000D02*
X139268000Y-130942000D01*
%TO.C,D8*%
X139268000Y-128846000D02*
X140198000Y-128846000D01*
X142428000Y-128846000D02*
X141498000Y-128846000D01*
X142428000Y-128846000D02*
X142428000Y-126686000D01*
X139268000Y-128846000D02*
X139268000Y-127386000D01*
%TO.C,D7*%
X137068000Y-100816000D02*
X137068000Y-101746000D01*
X137068000Y-103976000D02*
X137068000Y-103046000D01*
X137068000Y-103976000D02*
X139228000Y-103976000D01*
X137068000Y-100816000D02*
X138528000Y-100816000D01*
%TO.C,D6*%
X140626000Y-103114000D02*
X140626000Y-104044000D01*
X140626000Y-106274000D02*
X140626000Y-105344000D01*
X140626000Y-106274000D02*
X142786000Y-106274000D01*
X140626000Y-103114000D02*
X142086000Y-103114000D01*
%TO.C,D5*%
X137086000Y-105400000D02*
X137086000Y-106330000D01*
X137086000Y-108560000D02*
X137086000Y-107630000D01*
X137086000Y-108560000D02*
X139246000Y-108560000D01*
X137086000Y-105400000D02*
X138546000Y-105400000D01*
%TO.C,D4*%
X140626000Y-107686000D02*
X140626000Y-108616000D01*
X140626000Y-110846000D02*
X140626000Y-109916000D01*
X140626000Y-110846000D02*
X142786000Y-110846000D01*
X140626000Y-107686000D02*
X142086000Y-107686000D01*
%TO.C,R23*%
X134037258Y-113722500D02*
X133562742Y-113722500D01*
X134037258Y-112677500D02*
X133562742Y-112677500D01*
%TO.C,R22*%
X141637258Y-113722500D02*
X141162742Y-113722500D01*
X141637258Y-112677500D02*
X141162742Y-112677500D01*
%TO.C,R21*%
X152962742Y-123277500D02*
X153437258Y-123277500D01*
X152962742Y-124322500D02*
X153437258Y-124322500D01*
%TO.C,R20*%
X163362742Y-123277500D02*
X163837258Y-123277500D01*
X163362742Y-124322500D02*
X163837258Y-124322500D01*
%TO.C,R19*%
X150237258Y-124322500D02*
X149762742Y-124322500D01*
X150237258Y-123277500D02*
X149762742Y-123277500D01*
%TO.C,R17*%
X160637258Y-124322500D02*
X160162742Y-124322500D01*
X160637258Y-123277500D02*
X160162742Y-123277500D01*
%TO.C,R16*%
X144537742Y-112677500D02*
X145012258Y-112677500D01*
X144537742Y-113722500D02*
X145012258Y-113722500D01*
%TO.C,R14*%
X136962742Y-112677500D02*
X137437258Y-112677500D01*
X136962742Y-113722500D02*
X137437258Y-113722500D01*
%TO.C,R13*%
X144418500Y-131658742D02*
X144418500Y-132133258D01*
X143373500Y-131658742D02*
X143373500Y-132133258D01*
%TO.C,R12*%
X144418500Y-127848742D02*
X144418500Y-128323258D01*
X143373500Y-127848742D02*
X143373500Y-128323258D01*
%TO.C,R11*%
X115256742Y-126904500D02*
X115731258Y-126904500D01*
X115256742Y-127949500D02*
X115731258Y-127949500D01*
%TO.C,R10*%
X115256742Y-128428500D02*
X115731258Y-128428500D01*
X115256742Y-129473500D02*
X115731258Y-129473500D01*
%TO.C,R9*%
X153676742Y-116705500D02*
X154151258Y-116705500D01*
X153676742Y-117750500D02*
X154151258Y-117750500D01*
%TO.C,R8*%
X147637258Y-111722500D02*
X147162742Y-111722500D01*
X147637258Y-110677500D02*
X147162742Y-110677500D01*
%TO.C,R7*%
X149437258Y-113522500D02*
X148962742Y-113522500D01*
X149437258Y-112477500D02*
X148962742Y-112477500D01*
%TO.C,R6*%
X158725500Y-117719258D02*
X158725500Y-117244742D01*
X159770500Y-117719258D02*
X159770500Y-117244742D01*
%TO.C,R3*%
X126655500Y-115091258D02*
X126655500Y-114616742D01*
X127700500Y-115091258D02*
X127700500Y-114616742D01*
%TO.C,R4*%
X118527500Y-113821258D02*
X118527500Y-113346742D01*
X119572500Y-113821258D02*
X119572500Y-113346742D01*
%TO.C,R2*%
X130621500Y-124522742D02*
X130621500Y-124997258D01*
X129576500Y-124522742D02*
X129576500Y-124997258D01*
%TO.C,R1*%
X126655500Y-122203258D02*
X126655500Y-121728742D01*
X127700500Y-122203258D02*
X127700500Y-121728742D01*
%TO.C,C23*%
X131382580Y-134922000D02*
X131101420Y-134922000D01*
X131382580Y-133902000D02*
X131101420Y-133902000D01*
%TO.C,C22*%
X135558000Y-128456580D02*
X135558000Y-128175420D01*
X136578000Y-128456580D02*
X136578000Y-128175420D01*
%TO.C,C21*%
X137290000Y-132036580D02*
X137290000Y-131755420D01*
X138310000Y-132036580D02*
X138310000Y-131755420D01*
%TO.C,C20*%
X137290000Y-128480580D02*
X137290000Y-128199420D01*
X138310000Y-128480580D02*
X138310000Y-128199420D01*
%TO.C,C18*%
X102934580Y-114094000D02*
X102653420Y-114094000D01*
X102934580Y-113074000D02*
X102653420Y-113074000D01*
%TO.C,C16*%
X112827580Y-121206000D02*
X112546420Y-121206000D01*
X112827580Y-120186000D02*
X112546420Y-120186000D01*
%TO.C,C14*%
X119110000Y-125127420D02*
X119110000Y-125408580D01*
X118090000Y-125127420D02*
X118090000Y-125408580D01*
%TO.C,C13*%
X117016000Y-113724580D02*
X117016000Y-113443420D01*
X118036000Y-113724580D02*
X118036000Y-113443420D01*
%TO.C,C12*%
X112840580Y-118920000D02*
X112559420Y-118920000D01*
X112840580Y-117900000D02*
X112559420Y-117900000D01*
%TO.C,C11*%
X124624420Y-117519000D02*
X124905580Y-117519000D01*
X124624420Y-118539000D02*
X124905580Y-118539000D01*
%TO.C,C10*%
X112840580Y-122984000D02*
X112559420Y-122984000D01*
X112840580Y-121964000D02*
X112559420Y-121964000D01*
%TO.C,C9*%
X126164000Y-137319420D02*
X126164000Y-137600580D01*
X125144000Y-137319420D02*
X125144000Y-137600580D01*
%TO.C,C8*%
X115634580Y-126413000D02*
X115353420Y-126413000D01*
X115634580Y-125393000D02*
X115353420Y-125393000D01*
%TO.C,C7*%
X115492000Y-113724580D02*
X115492000Y-113443420D01*
X116512000Y-113724580D02*
X116512000Y-113443420D01*
%TO.C,C5*%
X115634580Y-124889000D02*
X115353420Y-124889000D01*
X115634580Y-123869000D02*
X115353420Y-123869000D01*
%TO.C,C4*%
X115126580Y-132636000D02*
X114845420Y-132636000D01*
X115126580Y-131616000D02*
X114845420Y-131616000D01*
%TO.C,U4*%
X106945000Y-111909000D02*
X106945000Y-108655000D01*
X101691000Y-108655000D02*
X101691000Y-111909000D01*
D12*
G36*
X104527499Y-107996599D02*
G01*
X104908499Y-107996599D01*
X104908499Y-108250599D01*
X104527499Y-108250599D01*
X104527499Y-107996599D01*
G37*
X104527499Y-107996599D02*
X104908499Y-107996599D01*
X104908499Y-108250599D01*
X104527499Y-108250599D01*
X104527499Y-107996599D01*
D11*
%TO.C,J12*%
X157090000Y-100570000D02*
X157090000Y-103230000D01*
X164770000Y-100570000D02*
X157090000Y-100570000D01*
X164770000Y-103230000D02*
X157090000Y-103230000D01*
X164770000Y-100570000D02*
X164770000Y-103230000D01*
X166040000Y-100570000D02*
X167370000Y-100570000D01*
X167370000Y-100570000D02*
X167370000Y-101900000D01*
%TO.C,J9*%
X150800000Y-122280000D02*
X150800000Y-119620000D01*
X150800000Y-122280000D02*
X168640000Y-122280000D01*
X168640000Y-122280000D02*
X168640000Y-119620000D01*
X150800000Y-119620000D02*
X168640000Y-119620000D01*
X148200000Y-119620000D02*
X149530000Y-119620000D01*
X148200000Y-120950000D02*
X148200000Y-119620000D01*
%TO.C,J8*%
X165980000Y-119740000D02*
X168640000Y-119740000D01*
X165980000Y-112060000D02*
X165980000Y-119740000D01*
X168640000Y-112060000D02*
X168640000Y-119740000D01*
X165980000Y-112060000D02*
X168640000Y-112060000D01*
X165980000Y-110790000D02*
X165980000Y-109460000D01*
X165980000Y-109460000D02*
X167310000Y-109460000D01*
%TO.C,J7*%
X160900000Y-119740000D02*
X166100000Y-119740000D01*
X160900000Y-112060000D02*
X160900000Y-119740000D01*
X166100000Y-109460000D02*
X166100000Y-119740000D01*
X160900000Y-112060000D02*
X163500000Y-112060000D01*
X163500000Y-112060000D02*
X163500000Y-109460000D01*
X163500000Y-109460000D02*
X166100000Y-109460000D01*
X160900000Y-110790000D02*
X160900000Y-109460000D01*
X160900000Y-109460000D02*
X162230000Y-109460000D01*
%TO.C,J4*%
X128642000Y-115470000D02*
X131302000Y-115470000D01*
X128642000Y-112870000D02*
X128642000Y-115470000D01*
X131302000Y-112870000D02*
X131302000Y-115470000D01*
X128642000Y-112870000D02*
X131302000Y-112870000D01*
X128642000Y-111600000D02*
X128642000Y-110270000D01*
X128642000Y-110270000D02*
X129972000Y-110270000D01*
%TO.C,C17*%
X158206000Y-115932000D02*
X158206000Y-114732000D01*
X158206000Y-111412000D02*
X158206000Y-112612000D01*
X154750437Y-111412000D02*
X158206000Y-111412000D01*
X154750437Y-115932000D02*
X158206000Y-115932000D01*
X153686000Y-114867563D02*
X153686000Y-114732000D01*
X153686000Y-112476437D02*
X153686000Y-112612000D01*
X153686000Y-112476437D02*
X154750437Y-111412000D01*
X153686000Y-114867563D02*
X154750437Y-115932000D01*
X152946000Y-112112000D02*
X153446000Y-112112000D01*
X153196000Y-111862000D02*
X153196000Y-112362000D01*
%TO.C,U1*%
X124384000Y-123813000D02*
X121659000Y-123813000D01*
X121659000Y-123813000D02*
X121659000Y-124073000D01*
X124384000Y-123813000D02*
X127109000Y-123813000D01*
X127109000Y-123813000D02*
X127109000Y-124073000D01*
X124384000Y-129263000D02*
X121659000Y-129263000D01*
X121659000Y-129263000D02*
X121659000Y-129003000D01*
X124384000Y-129263000D02*
X127109000Y-129263000D01*
X127109000Y-129263000D02*
X127109000Y-129003000D01*
X127109000Y-129003000D02*
X128784000Y-129003000D01*
%TO.C,J20*%
X134230000Y-134098000D02*
X134230000Y-139298000D01*
X141910000Y-134098000D02*
X134230000Y-134098000D01*
X144510000Y-139298000D02*
X134230000Y-139298000D01*
X141910000Y-134098000D02*
X141910000Y-136698000D01*
X141910000Y-136698000D02*
X144510000Y-136698000D01*
X144510000Y-136698000D02*
X144510000Y-139298000D01*
X143180000Y-134098000D02*
X144510000Y-134098000D01*
X144510000Y-134098000D02*
X144510000Y-135428000D01*
%TO.C,J19*%
X150232000Y-134098000D02*
X150232000Y-139298000D01*
X157912000Y-134098000D02*
X150232000Y-134098000D01*
X160512000Y-139298000D02*
X150232000Y-139298000D01*
X157912000Y-134098000D02*
X157912000Y-136698000D01*
X157912000Y-136698000D02*
X160512000Y-136698000D01*
X160512000Y-136698000D02*
X160512000Y-139298000D01*
X159182000Y-134098000D02*
X160512000Y-134098000D01*
X160512000Y-134098000D02*
X160512000Y-135428000D01*
%TO.C,J18*%
X131690000Y-108310000D02*
X134350000Y-108310000D01*
X131690000Y-103170000D02*
X131690000Y-108310000D01*
X134350000Y-103170000D02*
X134350000Y-108310000D01*
X131690000Y-103170000D02*
X134350000Y-103170000D01*
X131690000Y-101900000D02*
X131690000Y-100570000D01*
X131690000Y-100570000D02*
X133020000Y-100570000D01*
%TO.C,J17*%
X129150000Y-108310000D02*
X131810000Y-108310000D01*
X129150000Y-103170000D02*
X129150000Y-108310000D01*
X131810000Y-103170000D02*
X131810000Y-108310000D01*
X129150000Y-103170000D02*
X131810000Y-103170000D01*
X129150000Y-101900000D02*
X129150000Y-100570000D01*
X129150000Y-100570000D02*
X130480000Y-100570000D01*
%TO.C,J16*%
X126610000Y-108310000D02*
X129270000Y-108310000D01*
X126610000Y-103170000D02*
X126610000Y-108310000D01*
X129270000Y-103170000D02*
X129270000Y-108310000D01*
X126610000Y-103170000D02*
X129270000Y-103170000D01*
X126610000Y-101900000D02*
X126610000Y-100570000D01*
X126610000Y-100570000D02*
X127940000Y-100570000D01*
%TO.C,J1*%
X119110000Y-108310000D02*
X119110000Y-105650000D01*
X111430000Y-108310000D02*
X119110000Y-108310000D01*
X111430000Y-105650000D02*
X119110000Y-105650000D01*
X111430000Y-108310000D02*
X111430000Y-105650000D01*
X110160000Y-108310000D02*
X108830000Y-108310000D01*
X108830000Y-108310000D02*
X108830000Y-106980000D01*
%TO.C,J2*%
X131302000Y-117330000D02*
X128642000Y-117330000D01*
X131302000Y-119930000D02*
X131302000Y-117330000D01*
X128642000Y-119930000D02*
X128642000Y-117330000D01*
X131302000Y-119930000D02*
X128642000Y-119930000D01*
X131302000Y-121200000D02*
X131302000Y-122530000D01*
X131302000Y-122530000D02*
X129972000Y-122530000D01*
%TO.C,Y1*%
X117434500Y-111932000D02*
X121434500Y-111932000D01*
X117434500Y-108632000D02*
X117434500Y-111932000D01*
%TO.C,U2*%
X124518000Y-130900000D02*
X124518000Y-136910000D01*
X117698000Y-133150000D02*
X117698000Y-136910000D01*
X124518000Y-136910000D02*
X123258000Y-136910000D01*
X117698000Y-136910000D02*
X118958000Y-136910000D01*
%TO.C,C3*%
X117020000Y-110676580D02*
X117020000Y-110395420D01*
X116000000Y-110676580D02*
X116000000Y-110395420D01*
%TO.C,C2*%
X121845500Y-110395420D02*
X121845500Y-110676580D01*
X122865500Y-110395420D02*
X122865500Y-110676580D01*
%TO.C,Q4*%
X138850000Y-118830000D02*
X138850000Y-117330000D01*
X138850000Y-117330000D02*
X138580000Y-117330000D01*
X138580000Y-117330000D02*
X138580000Y-114500000D01*
X131950000Y-118830000D02*
X131950000Y-117330000D01*
X131950000Y-117330000D02*
X132220000Y-117330000D01*
X132220000Y-117330000D02*
X132220000Y-116230000D01*
%TO.C,Q3*%
X146375000Y-118855000D02*
X146375000Y-117355000D01*
X146375000Y-117355000D02*
X146105000Y-117355000D01*
X146105000Y-117355000D02*
X146105000Y-114525000D01*
X139475000Y-118855000D02*
X139475000Y-117355000D01*
X139475000Y-117355000D02*
X139745000Y-117355000D01*
X139745000Y-117355000D02*
X139745000Y-116255000D01*
%TO.C,Q2*%
X151230000Y-124950000D02*
X149730000Y-124950000D01*
X149730000Y-124950000D02*
X149730000Y-125220000D01*
X149730000Y-125220000D02*
X146900000Y-125220000D01*
X151230000Y-131850000D02*
X149730000Y-131850000D01*
X149730000Y-131850000D02*
X149730000Y-131580000D01*
X149730000Y-131580000D02*
X148630000Y-131580000D01*
%TO.C,Q1*%
X162717000Y-124951000D02*
X161217000Y-124951000D01*
X161217000Y-124951000D02*
X161217000Y-125221000D01*
X161217000Y-125221000D02*
X158387000Y-125221000D01*
X162717000Y-131851000D02*
X161217000Y-131851000D01*
X161217000Y-131851000D02*
X161217000Y-131581000D01*
X161217000Y-131581000D02*
X160117000Y-131581000D01*
%TO.C,J14*%
X122211904Y-102547619D02*
X122783333Y-102547619D01*
X122897619Y-102585714D01*
X122973809Y-102661904D01*
X123011904Y-102776190D01*
X123011904Y-102852380D01*
X123011904Y-101747619D02*
X123011904Y-102204761D01*
X123011904Y-101976190D02*
X122211904Y-101976190D01*
X122326190Y-102052380D01*
X122402380Y-102128571D01*
X122440476Y-102204761D01*
X122478571Y-101061904D02*
X123011904Y-101061904D01*
X122173809Y-101252380D02*
X122745238Y-101442857D01*
X122745238Y-100947619D01*
%TO.C,D2*%
X109661904Y-114890476D02*
X108861904Y-114890476D01*
X108861904Y-114700000D01*
X108900000Y-114585714D01*
X108976190Y-114509523D01*
X109052380Y-114471428D01*
X109204761Y-114433333D01*
X109319047Y-114433333D01*
X109471428Y-114471428D01*
X109547619Y-114509523D01*
X109623809Y-114585714D01*
X109661904Y-114700000D01*
X109661904Y-114890476D01*
X108938095Y-114128571D02*
X108900000Y-114090476D01*
X108861904Y-114014285D01*
X108861904Y-113823809D01*
X108900000Y-113747619D01*
X108938095Y-113709523D01*
X109014285Y-113671428D01*
X109090476Y-113671428D01*
X109204761Y-113709523D01*
X109661904Y-114166666D01*
X109661904Y-113671428D01*
%TO.C,U3*%
X122190476Y-115261904D02*
X122190476Y-115909523D01*
X122228571Y-115985714D01*
X122266666Y-116023809D01*
X122342857Y-116061904D01*
X122495238Y-116061904D01*
X122571428Y-116023809D01*
X122609523Y-115985714D01*
X122647619Y-115909523D01*
X122647619Y-115261904D01*
X122952380Y-115261904D02*
X123447619Y-115261904D01*
X123180952Y-115566666D01*
X123295238Y-115566666D01*
X123371428Y-115604761D01*
X123409523Y-115642857D01*
X123447619Y-115719047D01*
X123447619Y-115909523D01*
X123409523Y-115985714D01*
X123371428Y-116023809D01*
X123295238Y-116061904D01*
X123066666Y-116061904D01*
X122990476Y-116023809D01*
X122952380Y-115985714D01*
%TO.C,C15*%
X123869714Y-121710714D02*
X123831619Y-121748809D01*
X123717333Y-121786904D01*
X123641142Y-121786904D01*
X123526857Y-121748809D01*
X123450666Y-121672619D01*
X123412571Y-121596428D01*
X123374476Y-121444047D01*
X123374476Y-121329761D01*
X123412571Y-121177380D01*
X123450666Y-121101190D01*
X123526857Y-121025000D01*
X123641142Y-120986904D01*
X123717333Y-120986904D01*
X123831619Y-121025000D01*
X123869714Y-121063095D01*
X124631619Y-121786904D02*
X124174476Y-121786904D01*
X124403047Y-121786904D02*
X124403047Y-120986904D01*
X124326857Y-121101190D01*
X124250666Y-121177380D01*
X124174476Y-121215476D01*
X125355428Y-120986904D02*
X124974476Y-120986904D01*
X124936380Y-121367857D01*
X124974476Y-121329761D01*
X125050666Y-121291666D01*
X125241142Y-121291666D01*
X125317333Y-121329761D01*
X125355428Y-121367857D01*
X125393523Y-121444047D01*
X125393523Y-121634523D01*
X125355428Y-121710714D01*
X125317333Y-121748809D01*
X125241142Y-121786904D01*
X125050666Y-121786904D01*
X124974476Y-121748809D01*
X124936380Y-121710714D01*
%TO.C,R15*%
X134185714Y-126761904D02*
X133919047Y-126380952D01*
X133728571Y-126761904D02*
X133728571Y-125961904D01*
X134033333Y-125961904D01*
X134109523Y-126000000D01*
X134147619Y-126038095D01*
X134185714Y-126114285D01*
X134185714Y-126228571D01*
X134147619Y-126304761D01*
X134109523Y-126342857D01*
X134033333Y-126380952D01*
X133728571Y-126380952D01*
X134947619Y-126761904D02*
X134490476Y-126761904D01*
X134719047Y-126761904D02*
X134719047Y-125961904D01*
X134642857Y-126076190D01*
X134566666Y-126152380D01*
X134490476Y-126190476D01*
X135671428Y-125961904D02*
X135290476Y-125961904D01*
X135252380Y-126342857D01*
X135290476Y-126304761D01*
X135366666Y-126266666D01*
X135557142Y-126266666D01*
X135633333Y-126304761D01*
X135671428Y-126342857D01*
X135709523Y-126419047D01*
X135709523Y-126609523D01*
X135671428Y-126685714D01*
X135633333Y-126723809D01*
X135557142Y-126761904D01*
X135366666Y-126761904D01*
X135290476Y-126723809D01*
X135252380Y-126685714D01*
%TO.C,R18*%
X135661904Y-133014285D02*
X135280952Y-133280952D01*
X135661904Y-133471428D02*
X134861904Y-133471428D01*
X134861904Y-133166666D01*
X134900000Y-133090476D01*
X134938095Y-133052380D01*
X135014285Y-133014285D01*
X135128571Y-133014285D01*
X135204761Y-133052380D01*
X135242857Y-133090476D01*
X135280952Y-133166666D01*
X135280952Y-133471428D01*
X135661904Y-132252380D02*
X135661904Y-132709523D01*
X135661904Y-132480952D02*
X134861904Y-132480952D01*
X134976190Y-132557142D01*
X135052380Y-132633333D01*
X135090476Y-132709523D01*
X135204761Y-131795238D02*
X135166666Y-131871428D01*
X135128571Y-131909523D01*
X135052380Y-131947619D01*
X135014285Y-131947619D01*
X134938095Y-131909523D01*
X134900000Y-131871428D01*
X134861904Y-131795238D01*
X134861904Y-131642857D01*
X134900000Y-131566666D01*
X134938095Y-131528571D01*
X135014285Y-131490476D01*
X135052380Y-131490476D01*
X135128571Y-131528571D01*
X135166666Y-131566666D01*
X135204761Y-131642857D01*
X135204761Y-131795238D01*
X135242857Y-131871428D01*
X135280952Y-131909523D01*
X135357142Y-131947619D01*
X135509523Y-131947619D01*
X135585714Y-131909523D01*
X135623809Y-131871428D01*
X135661904Y-131795238D01*
X135661904Y-131642857D01*
X135623809Y-131566666D01*
X135585714Y-131528571D01*
X135509523Y-131490476D01*
X135357142Y-131490476D01*
X135280952Y-131528571D01*
X135242857Y-131566666D01*
X135204761Y-131642857D01*
%TO.C,D15*%
X129161904Y-133071428D02*
X128361904Y-133071428D01*
X128361904Y-132880952D01*
X128400000Y-132766666D01*
X128476190Y-132690476D01*
X128552380Y-132652380D01*
X128704761Y-132614285D01*
X128819047Y-132614285D01*
X128971428Y-132652380D01*
X129047619Y-132690476D01*
X129123809Y-132766666D01*
X129161904Y-132880952D01*
X129161904Y-133071428D01*
X129161904Y-131852380D02*
X129161904Y-132309523D01*
X129161904Y-132080952D02*
X128361904Y-132080952D01*
X128476190Y-132157142D01*
X128552380Y-132233333D01*
X128590476Y-132309523D01*
X128361904Y-131128571D02*
X128361904Y-131509523D01*
X128742857Y-131547619D01*
X128704761Y-131509523D01*
X128666666Y-131433333D01*
X128666666Y-131242857D01*
X128704761Y-131166666D01*
X128742857Y-131128571D01*
X128819047Y-131090476D01*
X129009523Y-131090476D01*
X129085714Y-131128571D01*
X129123809Y-131166666D01*
X129161904Y-131242857D01*
X129161904Y-131433333D01*
X129123809Y-131509523D01*
X129085714Y-131547619D01*
%TO.C,D14*%
X131428571Y-126261904D02*
X131428571Y-125461904D01*
X131619047Y-125461904D01*
X131733333Y-125500000D01*
X131809523Y-125576190D01*
X131847619Y-125652380D01*
X131885714Y-125804761D01*
X131885714Y-125919047D01*
X131847619Y-126071428D01*
X131809523Y-126147619D01*
X131733333Y-126223809D01*
X131619047Y-126261904D01*
X131428571Y-126261904D01*
X132647619Y-126261904D02*
X132190476Y-126261904D01*
X132419047Y-126261904D02*
X132419047Y-125461904D01*
X132342857Y-125576190D01*
X132266666Y-125652380D01*
X132190476Y-125690476D01*
X133333333Y-125728571D02*
X133333333Y-126261904D01*
X133142857Y-125423809D02*
X132952380Y-125995238D01*
X133447619Y-125995238D01*
%TO.C,J5*%
X109633333Y-132361904D02*
X109633333Y-132933333D01*
X109595238Y-133047619D01*
X109519047Y-133123809D01*
X109404761Y-133161904D01*
X109328571Y-133161904D01*
X110395238Y-132361904D02*
X110014285Y-132361904D01*
X109976190Y-132742857D01*
X110014285Y-132704761D01*
X110090476Y-132666666D01*
X110280952Y-132666666D01*
X110357142Y-132704761D01*
X110395238Y-132742857D01*
X110433333Y-132819047D01*
X110433333Y-133009523D01*
X110395238Y-133085714D01*
X110357142Y-133123809D01*
X110280952Y-133161904D01*
X110090476Y-133161904D01*
X110014285Y-133123809D01*
X109976190Y-133085714D01*
%TO.C,J13*%
X142761904Y-102247619D02*
X143333333Y-102247619D01*
X143447619Y-102285714D01*
X143523809Y-102361904D01*
X143561904Y-102476190D01*
X143561904Y-102552380D01*
X143561904Y-101447619D02*
X143561904Y-101904761D01*
X143561904Y-101676190D02*
X142761904Y-101676190D01*
X142876190Y-101752380D01*
X142952380Y-101828571D01*
X142990476Y-101904761D01*
X142761904Y-101180952D02*
X142761904Y-100685714D01*
X143066666Y-100952380D01*
X143066666Y-100838095D01*
X143104761Y-100761904D01*
X143142857Y-100723809D01*
X143219047Y-100685714D01*
X143409523Y-100685714D01*
X143485714Y-100723809D01*
X143523809Y-100761904D01*
X143561904Y-100838095D01*
X143561904Y-101066666D01*
X143523809Y-101142857D01*
X143485714Y-101180952D01*
%TO.C,C19*%
X105585714Y-115285714D02*
X105547619Y-115323809D01*
X105433333Y-115361904D01*
X105357142Y-115361904D01*
X105242857Y-115323809D01*
X105166666Y-115247619D01*
X105128571Y-115171428D01*
X105090476Y-115019047D01*
X105090476Y-114904761D01*
X105128571Y-114752380D01*
X105166666Y-114676190D01*
X105242857Y-114600000D01*
X105357142Y-114561904D01*
X105433333Y-114561904D01*
X105547619Y-114600000D01*
X105585714Y-114638095D01*
X106347619Y-115361904D02*
X105890476Y-115361904D01*
X106119047Y-115361904D02*
X106119047Y-114561904D01*
X106042857Y-114676190D01*
X105966666Y-114752380D01*
X105890476Y-114790476D01*
X106728571Y-115361904D02*
X106880952Y-115361904D01*
X106957142Y-115323809D01*
X106995238Y-115285714D01*
X107071428Y-115171428D01*
X107109523Y-115019047D01*
X107109523Y-114714285D01*
X107071428Y-114638095D01*
X107033333Y-114600000D01*
X106957142Y-114561904D01*
X106804761Y-114561904D01*
X106728571Y-114600000D01*
X106690476Y-114638095D01*
X106652380Y-114714285D01*
X106652380Y-114904761D01*
X106690476Y-114980952D01*
X106728571Y-115019047D01*
X106804761Y-115057142D01*
X106957142Y-115057142D01*
X107033333Y-115019047D01*
X107071428Y-114980952D01*
X107109523Y-114904761D01*
%TO.C,C1*%
X117685714Y-130133333D02*
X117723809Y-130171428D01*
X117761904Y-130285714D01*
X117761904Y-130361904D01*
X117723809Y-130476190D01*
X117647619Y-130552380D01*
X117571428Y-130590476D01*
X117419047Y-130628571D01*
X117304761Y-130628571D01*
X117152380Y-130590476D01*
X117076190Y-130552380D01*
X117000000Y-130476190D01*
X116961904Y-130361904D01*
X116961904Y-130285714D01*
X117000000Y-130171428D01*
X117038095Y-130133333D01*
X117761904Y-129371428D02*
X117761904Y-129828571D01*
X117761904Y-129600000D02*
X116961904Y-129600000D01*
X117076190Y-129676190D01*
X117152380Y-129752380D01*
X117190476Y-129828571D01*
%TO.C,C6*%
X126033714Y-111431333D02*
X126071809Y-111469428D01*
X126109904Y-111583714D01*
X126109904Y-111659904D01*
X126071809Y-111774190D01*
X125995619Y-111850380D01*
X125919428Y-111888476D01*
X125767047Y-111926571D01*
X125652761Y-111926571D01*
X125500380Y-111888476D01*
X125424190Y-111850380D01*
X125348000Y-111774190D01*
X125309904Y-111659904D01*
X125309904Y-111583714D01*
X125348000Y-111469428D01*
X125386095Y-111431333D01*
X125309904Y-110745619D02*
X125309904Y-110898000D01*
X125348000Y-110974190D01*
X125386095Y-111012285D01*
X125500380Y-111088476D01*
X125652761Y-111126571D01*
X125957523Y-111126571D01*
X126033714Y-111088476D01*
X126071809Y-111050380D01*
X126109904Y-110974190D01*
X126109904Y-110821809D01*
X126071809Y-110745619D01*
X126033714Y-110707523D01*
X125957523Y-110669428D01*
X125767047Y-110669428D01*
X125690857Y-110707523D01*
X125652761Y-110745619D01*
X125614666Y-110821809D01*
X125614666Y-110974190D01*
X125652761Y-111050380D01*
X125690857Y-111088476D01*
X125767047Y-111126571D01*
%TO.C,D13*%
X147128571Y-138661904D02*
X147128571Y-137861904D01*
X147319047Y-137861904D01*
X147433333Y-137900000D01*
X147509523Y-137976190D01*
X147547619Y-138052380D01*
X147585714Y-138204761D01*
X147585714Y-138319047D01*
X147547619Y-138471428D01*
X147509523Y-138547619D01*
X147433333Y-138623809D01*
X147319047Y-138661904D01*
X147128571Y-138661904D01*
X148347619Y-138661904D02*
X147890476Y-138661904D01*
X148119047Y-138661904D02*
X148119047Y-137861904D01*
X148042857Y-137976190D01*
X147966666Y-138052380D01*
X147890476Y-138090476D01*
X148614285Y-137861904D02*
X149109523Y-137861904D01*
X148842857Y-138166666D01*
X148957142Y-138166666D01*
X149033333Y-138204761D01*
X149071428Y-138242857D01*
X149109523Y-138319047D01*
X149109523Y-138509523D01*
X149071428Y-138585714D01*
X149033333Y-138623809D01*
X148957142Y-138661904D01*
X148728571Y-138661904D01*
X148652380Y-138623809D01*
X148614285Y-138585714D01*
%TO.C,D12*%
X147028571Y-134961904D02*
X147028571Y-134161904D01*
X147219047Y-134161904D01*
X147333333Y-134200000D01*
X147409523Y-134276190D01*
X147447619Y-134352380D01*
X147485714Y-134504761D01*
X147485714Y-134619047D01*
X147447619Y-134771428D01*
X147409523Y-134847619D01*
X147333333Y-134923809D01*
X147219047Y-134961904D01*
X147028571Y-134961904D01*
X148247619Y-134961904D02*
X147790476Y-134961904D01*
X148019047Y-134961904D02*
X148019047Y-134161904D01*
X147942857Y-134276190D01*
X147866666Y-134352380D01*
X147790476Y-134390476D01*
X148552380Y-134238095D02*
X148590476Y-134200000D01*
X148666666Y-134161904D01*
X148857142Y-134161904D01*
X148933333Y-134200000D01*
X148971428Y-134238095D01*
X149009523Y-134314285D01*
X149009523Y-134390476D01*
X148971428Y-134504761D01*
X148514285Y-134961904D01*
X149009523Y-134961904D01*
%TO.C,D11*%
X158561904Y-129571428D02*
X157761904Y-129571428D01*
X157761904Y-129380952D01*
X157800000Y-129266666D01*
X157876190Y-129190476D01*
X157952380Y-129152380D01*
X158104761Y-129114285D01*
X158219047Y-129114285D01*
X158371428Y-129152380D01*
X158447619Y-129190476D01*
X158523809Y-129266666D01*
X158561904Y-129380952D01*
X158561904Y-129571428D01*
X158561904Y-128352380D02*
X158561904Y-128809523D01*
X158561904Y-128580952D02*
X157761904Y-128580952D01*
X157876190Y-128657142D01*
X157952380Y-128733333D01*
X157990476Y-128809523D01*
X158561904Y-127590476D02*
X158561904Y-128047619D01*
X158561904Y-127819047D02*
X157761904Y-127819047D01*
X157876190Y-127895238D01*
X157952380Y-127971428D01*
X157990476Y-128047619D01*
%TO.C,D10*%
X169361904Y-124771428D02*
X168561904Y-124771428D01*
X168561904Y-124580952D01*
X168600000Y-124466666D01*
X168676190Y-124390476D01*
X168752380Y-124352380D01*
X168904761Y-124314285D01*
X169019047Y-124314285D01*
X169171428Y-124352380D01*
X169247619Y-124390476D01*
X169323809Y-124466666D01*
X169361904Y-124580952D01*
X169361904Y-124771428D01*
X169361904Y-123552380D02*
X169361904Y-124009523D01*
X169361904Y-123780952D02*
X168561904Y-123780952D01*
X168676190Y-123857142D01*
X168752380Y-123933333D01*
X168790476Y-124009523D01*
X168561904Y-123057142D02*
X168561904Y-122980952D01*
X168600000Y-122904761D01*
X168638095Y-122866666D01*
X168714285Y-122828571D01*
X168866666Y-122790476D01*
X169057142Y-122790476D01*
X169209523Y-122828571D01*
X169285714Y-122866666D01*
X169323809Y-122904761D01*
X169361904Y-122980952D01*
X169361904Y-123057142D01*
X169323809Y-123133333D01*
X169285714Y-123171428D01*
X169209523Y-123209523D01*
X169057142Y-123247619D01*
X168866666Y-123247619D01*
X168714285Y-123209523D01*
X168638095Y-123171428D01*
X168600000Y-123133333D01*
X168561904Y-123057142D01*
%TO.C,R5*%
X127661904Y-135133333D02*
X127280952Y-135400000D01*
X127661904Y-135590476D02*
X126861904Y-135590476D01*
X126861904Y-135285714D01*
X126900000Y-135209523D01*
X126938095Y-135171428D01*
X127014285Y-135133333D01*
X127128571Y-135133333D01*
X127204761Y-135171428D01*
X127242857Y-135209523D01*
X127280952Y-135285714D01*
X127280952Y-135590476D01*
X126861904Y-134409523D02*
X126861904Y-134790476D01*
X127242857Y-134828571D01*
X127204761Y-134790476D01*
X127166666Y-134714285D01*
X127166666Y-134523809D01*
X127204761Y-134447619D01*
X127242857Y-134409523D01*
X127319047Y-134371428D01*
X127509523Y-134371428D01*
X127585714Y-134409523D01*
X127623809Y-134447619D01*
X127661904Y-134523809D01*
X127661904Y-134714285D01*
X127623809Y-134790476D01*
X127585714Y-134828571D01*
%TO.C,D1*%
X129061904Y-135590476D02*
X128261904Y-135590476D01*
X128261904Y-135400000D01*
X128300000Y-135285714D01*
X128376190Y-135209523D01*
X128452380Y-135171428D01*
X128604761Y-135133333D01*
X128719047Y-135133333D01*
X128871428Y-135171428D01*
X128947619Y-135209523D01*
X129023809Y-135285714D01*
X129061904Y-135400000D01*
X129061904Y-135590476D01*
X129061904Y-134371428D02*
X129061904Y-134828571D01*
X129061904Y-134600000D02*
X128261904Y-134600000D01*
X128376190Y-134676190D01*
X128452380Y-134752380D01*
X128490476Y-134828571D01*
%TO.C,J11*%
X108152380Y-129261904D02*
X108152380Y-129833333D01*
X108114285Y-129947619D01*
X108038095Y-130023809D01*
X107923809Y-130061904D01*
X107847619Y-130061904D01*
X108952380Y-130061904D02*
X108495238Y-130061904D01*
X108723809Y-130061904D02*
X108723809Y-129261904D01*
X108647619Y-129376190D01*
X108571428Y-129452380D01*
X108495238Y-129490476D01*
X109714285Y-130061904D02*
X109257142Y-130061904D01*
X109485714Y-130061904D02*
X109485714Y-129261904D01*
X109409523Y-129376190D01*
X109333333Y-129452380D01*
X109257142Y-129490476D01*
%TO.C,D3*%
X112261904Y-114790476D02*
X111461904Y-114790476D01*
X111461904Y-114600000D01*
X111500000Y-114485714D01*
X111576190Y-114409523D01*
X111652380Y-114371428D01*
X111804761Y-114333333D01*
X111919047Y-114333333D01*
X112071428Y-114371428D01*
X112147619Y-114409523D01*
X112223809Y-114485714D01*
X112261904Y-114600000D01*
X112261904Y-114790476D01*
X111461904Y-114066666D02*
X111461904Y-113571428D01*
X111766666Y-113838095D01*
X111766666Y-113723809D01*
X111804761Y-113647619D01*
X111842857Y-113609523D01*
X111919047Y-113571428D01*
X112109523Y-113571428D01*
X112185714Y-113609523D01*
X112223809Y-113647619D01*
X112261904Y-113723809D01*
X112261904Y-113952380D01*
X112223809Y-114028571D01*
X112185714Y-114066666D01*
%TO.C,D9*%
X141609523Y-134061904D02*
X141609523Y-133261904D01*
X141800000Y-133261904D01*
X141914285Y-133300000D01*
X141990476Y-133376190D01*
X142028571Y-133452380D01*
X142066666Y-133604761D01*
X142066666Y-133719047D01*
X142028571Y-133871428D01*
X141990476Y-133947619D01*
X141914285Y-134023809D01*
X141800000Y-134061904D01*
X141609523Y-134061904D01*
X142447619Y-134061904D02*
X142600000Y-134061904D01*
X142676190Y-134023809D01*
X142714285Y-133985714D01*
X142790476Y-133871428D01*
X142828571Y-133719047D01*
X142828571Y-133414285D01*
X142790476Y-133338095D01*
X142752380Y-133300000D01*
X142676190Y-133261904D01*
X142523809Y-133261904D01*
X142447619Y-133300000D01*
X142409523Y-133338095D01*
X142371428Y-133414285D01*
X142371428Y-133604761D01*
X142409523Y-133680952D01*
X142447619Y-133719047D01*
X142523809Y-133757142D01*
X142676190Y-133757142D01*
X142752380Y-133719047D01*
X142790476Y-133680952D01*
X142828571Y-133604761D01*
%TO.C,D8*%
X140409523Y-126261904D02*
X140409523Y-125461904D01*
X140600000Y-125461904D01*
X140714285Y-125500000D01*
X140790476Y-125576190D01*
X140828571Y-125652380D01*
X140866666Y-125804761D01*
X140866666Y-125919047D01*
X140828571Y-126071428D01*
X140790476Y-126147619D01*
X140714285Y-126223809D01*
X140600000Y-126261904D01*
X140409523Y-126261904D01*
X141323809Y-125804761D02*
X141247619Y-125766666D01*
X141209523Y-125728571D01*
X141171428Y-125652380D01*
X141171428Y-125614285D01*
X141209523Y-125538095D01*
X141247619Y-125500000D01*
X141323809Y-125461904D01*
X141476190Y-125461904D01*
X141552380Y-125500000D01*
X141590476Y-125538095D01*
X141628571Y-125614285D01*
X141628571Y-125652380D01*
X141590476Y-125728571D01*
X141552380Y-125766666D01*
X141476190Y-125804761D01*
X141323809Y-125804761D01*
X141247619Y-125842857D01*
X141209523Y-125880952D01*
X141171428Y-125957142D01*
X141171428Y-126109523D01*
X141209523Y-126185714D01*
X141247619Y-126223809D01*
X141323809Y-126261904D01*
X141476190Y-126261904D01*
X141552380Y-126223809D01*
X141590476Y-126185714D01*
X141628571Y-126109523D01*
X141628571Y-125957142D01*
X141590476Y-125880952D01*
X141552380Y-125842857D01*
X141476190Y-125804761D01*
%TO.C,D7*%
X140009523Y-101461904D02*
X140009523Y-100661904D01*
X140200000Y-100661904D01*
X140314285Y-100700000D01*
X140390476Y-100776190D01*
X140428571Y-100852380D01*
X140466666Y-101004761D01*
X140466666Y-101119047D01*
X140428571Y-101271428D01*
X140390476Y-101347619D01*
X140314285Y-101423809D01*
X140200000Y-101461904D01*
X140009523Y-101461904D01*
X140733333Y-100661904D02*
X141266666Y-100661904D01*
X140923809Y-101461904D01*
%TO.C,D6*%
X140609523Y-102761904D02*
X140609523Y-101961904D01*
X140800000Y-101961904D01*
X140914285Y-102000000D01*
X140990476Y-102076190D01*
X141028571Y-102152380D01*
X141066666Y-102304761D01*
X141066666Y-102419047D01*
X141028571Y-102571428D01*
X140990476Y-102647619D01*
X140914285Y-102723809D01*
X140800000Y-102761904D01*
X140609523Y-102761904D01*
X141752380Y-101961904D02*
X141600000Y-101961904D01*
X141523809Y-102000000D01*
X141485714Y-102038095D01*
X141409523Y-102152380D01*
X141371428Y-102304761D01*
X141371428Y-102609523D01*
X141409523Y-102685714D01*
X141447619Y-102723809D01*
X141523809Y-102761904D01*
X141676190Y-102761904D01*
X141752380Y-102723809D01*
X141790476Y-102685714D01*
X141828571Y-102609523D01*
X141828571Y-102419047D01*
X141790476Y-102342857D01*
X141752380Y-102304761D01*
X141676190Y-102266666D01*
X141523809Y-102266666D01*
X141447619Y-102304761D01*
X141409523Y-102342857D01*
X141371428Y-102419047D01*
%TO.C,D5*%
X135509523Y-109761904D02*
X135509523Y-108961904D01*
X135700000Y-108961904D01*
X135814285Y-109000000D01*
X135890476Y-109076190D01*
X135928571Y-109152380D01*
X135966666Y-109304761D01*
X135966666Y-109419047D01*
X135928571Y-109571428D01*
X135890476Y-109647619D01*
X135814285Y-109723809D01*
X135700000Y-109761904D01*
X135509523Y-109761904D01*
X136690476Y-108961904D02*
X136309523Y-108961904D01*
X136271428Y-109342857D01*
X136309523Y-109304761D01*
X136385714Y-109266666D01*
X136576190Y-109266666D01*
X136652380Y-109304761D01*
X136690476Y-109342857D01*
X136728571Y-109419047D01*
X136728571Y-109609523D01*
X136690476Y-109685714D01*
X136652380Y-109723809D01*
X136576190Y-109761904D01*
X136385714Y-109761904D01*
X136309523Y-109723809D01*
X136271428Y-109685714D01*
%TO.C,D4*%
X138009523Y-109961904D02*
X138009523Y-109161904D01*
X138200000Y-109161904D01*
X138314285Y-109200000D01*
X138390476Y-109276190D01*
X138428571Y-109352380D01*
X138466666Y-109504761D01*
X138466666Y-109619047D01*
X138428571Y-109771428D01*
X138390476Y-109847619D01*
X138314285Y-109923809D01*
X138200000Y-109961904D01*
X138009523Y-109961904D01*
X139152380Y-109428571D02*
X139152380Y-109961904D01*
X138961904Y-109123809D02*
X138771428Y-109695238D01*
X139266666Y-109695238D01*
%TO.C,R23*%
X133485714Y-112061904D02*
X133219047Y-111680952D01*
X133028571Y-112061904D02*
X133028571Y-111261904D01*
X133333333Y-111261904D01*
X133409523Y-111300000D01*
X133447619Y-111338095D01*
X133485714Y-111414285D01*
X133485714Y-111528571D01*
X133447619Y-111604761D01*
X133409523Y-111642857D01*
X133333333Y-111680952D01*
X133028571Y-111680952D01*
X133790476Y-111338095D02*
X133828571Y-111300000D01*
X133904761Y-111261904D01*
X134095238Y-111261904D01*
X134171428Y-111300000D01*
X134209523Y-111338095D01*
X134247619Y-111414285D01*
X134247619Y-111490476D01*
X134209523Y-111604761D01*
X133752380Y-112061904D01*
X134247619Y-112061904D01*
X134514285Y-111261904D02*
X135009523Y-111261904D01*
X134742857Y-111566666D01*
X134857142Y-111566666D01*
X134933333Y-111604761D01*
X134971428Y-111642857D01*
X135009523Y-111719047D01*
X135009523Y-111909523D01*
X134971428Y-111985714D01*
X134933333Y-112023809D01*
X134857142Y-112061904D01*
X134628571Y-112061904D01*
X134552380Y-112023809D01*
X134514285Y-111985714D01*
%TO.C,R22*%
X140885714Y-112161904D02*
X140619047Y-111780952D01*
X140428571Y-112161904D02*
X140428571Y-111361904D01*
X140733333Y-111361904D01*
X140809523Y-111400000D01*
X140847619Y-111438095D01*
X140885714Y-111514285D01*
X140885714Y-111628571D01*
X140847619Y-111704761D01*
X140809523Y-111742857D01*
X140733333Y-111780952D01*
X140428571Y-111780952D01*
X141190476Y-111438095D02*
X141228571Y-111400000D01*
X141304761Y-111361904D01*
X141495238Y-111361904D01*
X141571428Y-111400000D01*
X141609523Y-111438095D01*
X141647619Y-111514285D01*
X141647619Y-111590476D01*
X141609523Y-111704761D01*
X141152380Y-112161904D01*
X141647619Y-112161904D01*
X141952380Y-111438095D02*
X141990476Y-111400000D01*
X142066666Y-111361904D01*
X142257142Y-111361904D01*
X142333333Y-111400000D01*
X142371428Y-111438095D01*
X142409523Y-111514285D01*
X142409523Y-111590476D01*
X142371428Y-111704761D01*
X141914285Y-112161904D01*
X142409523Y-112161904D01*
%TO.C,R21*%
X152785714Y-122961904D02*
X152519047Y-122580952D01*
X152328571Y-122961904D02*
X152328571Y-122161904D01*
X152633333Y-122161904D01*
X152709523Y-122200000D01*
X152747619Y-122238095D01*
X152785714Y-122314285D01*
X152785714Y-122428571D01*
X152747619Y-122504761D01*
X152709523Y-122542857D01*
X152633333Y-122580952D01*
X152328571Y-122580952D01*
X153090476Y-122238095D02*
X153128571Y-122200000D01*
X153204761Y-122161904D01*
X153395238Y-122161904D01*
X153471428Y-122200000D01*
X153509523Y-122238095D01*
X153547619Y-122314285D01*
X153547619Y-122390476D01*
X153509523Y-122504761D01*
X153052380Y-122961904D01*
X153547619Y-122961904D01*
X154309523Y-122961904D02*
X153852380Y-122961904D01*
X154080952Y-122961904D02*
X154080952Y-122161904D01*
X154004761Y-122276190D01*
X153928571Y-122352380D01*
X153852380Y-122390476D01*
%TO.C,R20*%
X163085714Y-122731904D02*
X162819047Y-122350952D01*
X162628571Y-122731904D02*
X162628571Y-121931904D01*
X162933333Y-121931904D01*
X163009523Y-121970000D01*
X163047619Y-122008095D01*
X163085714Y-122084285D01*
X163085714Y-122198571D01*
X163047619Y-122274761D01*
X163009523Y-122312857D01*
X162933333Y-122350952D01*
X162628571Y-122350952D01*
X163390476Y-122008095D02*
X163428571Y-121970000D01*
X163504761Y-121931904D01*
X163695238Y-121931904D01*
X163771428Y-121970000D01*
X163809523Y-122008095D01*
X163847619Y-122084285D01*
X163847619Y-122160476D01*
X163809523Y-122274761D01*
X163352380Y-122731904D01*
X163847619Y-122731904D01*
X164342857Y-121931904D02*
X164419047Y-121931904D01*
X164495238Y-121970000D01*
X164533333Y-122008095D01*
X164571428Y-122084285D01*
X164609523Y-122236666D01*
X164609523Y-122427142D01*
X164571428Y-122579523D01*
X164533333Y-122655714D01*
X164495238Y-122693809D01*
X164419047Y-122731904D01*
X164342857Y-122731904D01*
X164266666Y-122693809D01*
X164228571Y-122655714D01*
X164190476Y-122579523D01*
X164152380Y-122427142D01*
X164152380Y-122236666D01*
X164190476Y-122084285D01*
X164228571Y-122008095D01*
X164266666Y-121970000D01*
X164342857Y-121931904D01*
%TO.C,R19*%
X146785714Y-124261904D02*
X146519047Y-123880952D01*
X146328571Y-124261904D02*
X146328571Y-123461904D01*
X146633333Y-123461904D01*
X146709523Y-123500000D01*
X146747619Y-123538095D01*
X146785714Y-123614285D01*
X146785714Y-123728571D01*
X146747619Y-123804761D01*
X146709523Y-123842857D01*
X146633333Y-123880952D01*
X146328571Y-123880952D01*
X147547619Y-124261904D02*
X147090476Y-124261904D01*
X147319047Y-124261904D02*
X147319047Y-123461904D01*
X147242857Y-123576190D01*
X147166666Y-123652380D01*
X147090476Y-123690476D01*
X147928571Y-124261904D02*
X148080952Y-124261904D01*
X148157142Y-124223809D01*
X148195238Y-124185714D01*
X148271428Y-124071428D01*
X148309523Y-123919047D01*
X148309523Y-123614285D01*
X148271428Y-123538095D01*
X148233333Y-123500000D01*
X148157142Y-123461904D01*
X148004761Y-123461904D01*
X147928571Y-123500000D01*
X147890476Y-123538095D01*
X147852380Y-123614285D01*
X147852380Y-123804761D01*
X147890476Y-123880952D01*
X147928571Y-123919047D01*
X148004761Y-123957142D01*
X148157142Y-123957142D01*
X148233333Y-123919047D01*
X148271428Y-123880952D01*
X148309523Y-123804761D01*
%TO.C,R17*%
X160285714Y-128061904D02*
X160019047Y-127680952D01*
X159828571Y-128061904D02*
X159828571Y-127261904D01*
X160133333Y-127261904D01*
X160209523Y-127300000D01*
X160247619Y-127338095D01*
X160285714Y-127414285D01*
X160285714Y-127528571D01*
X160247619Y-127604761D01*
X160209523Y-127642857D01*
X160133333Y-127680952D01*
X159828571Y-127680952D01*
X161047619Y-128061904D02*
X160590476Y-128061904D01*
X160819047Y-128061904D02*
X160819047Y-127261904D01*
X160742857Y-127376190D01*
X160666666Y-127452380D01*
X160590476Y-127490476D01*
X161314285Y-127261904D02*
X161847619Y-127261904D01*
X161504761Y-128061904D01*
%TO.C,R16*%
X143885714Y-112061904D02*
X143619047Y-111680952D01*
X143428571Y-112061904D02*
X143428571Y-111261904D01*
X143733333Y-111261904D01*
X143809523Y-111300000D01*
X143847619Y-111338095D01*
X143885714Y-111414285D01*
X143885714Y-111528571D01*
X143847619Y-111604761D01*
X143809523Y-111642857D01*
X143733333Y-111680952D01*
X143428571Y-111680952D01*
X144647619Y-112061904D02*
X144190476Y-112061904D01*
X144419047Y-112061904D02*
X144419047Y-111261904D01*
X144342857Y-111376190D01*
X144266666Y-111452380D01*
X144190476Y-111490476D01*
X145333333Y-111261904D02*
X145180952Y-111261904D01*
X145104761Y-111300000D01*
X145066666Y-111338095D01*
X144990476Y-111452380D01*
X144952380Y-111604761D01*
X144952380Y-111909523D01*
X144990476Y-111985714D01*
X145028571Y-112023809D01*
X145104761Y-112061904D01*
X145257142Y-112061904D01*
X145333333Y-112023809D01*
X145371428Y-111985714D01*
X145409523Y-111909523D01*
X145409523Y-111719047D01*
X145371428Y-111642857D01*
X145333333Y-111604761D01*
X145257142Y-111566666D01*
X145104761Y-111566666D01*
X145028571Y-111604761D01*
X144990476Y-111642857D01*
X144952380Y-111719047D01*
%TO.C,R14*%
X136685714Y-112131904D02*
X136419047Y-111750952D01*
X136228571Y-112131904D02*
X136228571Y-111331904D01*
X136533333Y-111331904D01*
X136609523Y-111370000D01*
X136647619Y-111408095D01*
X136685714Y-111484285D01*
X136685714Y-111598571D01*
X136647619Y-111674761D01*
X136609523Y-111712857D01*
X136533333Y-111750952D01*
X136228571Y-111750952D01*
X137447619Y-112131904D02*
X136990476Y-112131904D01*
X137219047Y-112131904D02*
X137219047Y-111331904D01*
X137142857Y-111446190D01*
X137066666Y-111522380D01*
X136990476Y-111560476D01*
X138133333Y-111598571D02*
X138133333Y-112131904D01*
X137942857Y-111293809D02*
X137752380Y-111865238D01*
X138247619Y-111865238D01*
%TO.C,R13*%
X145687904Y-132410285D02*
X145306952Y-132676952D01*
X145687904Y-132867428D02*
X144887904Y-132867428D01*
X144887904Y-132562666D01*
X144926000Y-132486476D01*
X144964095Y-132448380D01*
X145040285Y-132410285D01*
X145154571Y-132410285D01*
X145230761Y-132448380D01*
X145268857Y-132486476D01*
X145306952Y-132562666D01*
X145306952Y-132867428D01*
X145687904Y-131648380D02*
X145687904Y-132105523D01*
X145687904Y-131876952D02*
X144887904Y-131876952D01*
X145002190Y-131953142D01*
X145078380Y-132029333D01*
X145116476Y-132105523D01*
X144887904Y-131381714D02*
X144887904Y-130886476D01*
X145192666Y-131153142D01*
X145192666Y-131038857D01*
X145230761Y-130962666D01*
X145268857Y-130924571D01*
X145345047Y-130886476D01*
X145535523Y-130886476D01*
X145611714Y-130924571D01*
X145649809Y-130962666D01*
X145687904Y-131038857D01*
X145687904Y-131267428D01*
X145649809Y-131343619D01*
X145611714Y-131381714D01*
%TO.C,R12*%
X145687904Y-128600285D02*
X145306952Y-128866952D01*
X145687904Y-129057428D02*
X144887904Y-129057428D01*
X144887904Y-128752666D01*
X144926000Y-128676476D01*
X144964095Y-128638380D01*
X145040285Y-128600285D01*
X145154571Y-128600285D01*
X145230761Y-128638380D01*
X145268857Y-128676476D01*
X145306952Y-128752666D01*
X145306952Y-129057428D01*
X145687904Y-127838380D02*
X145687904Y-128295523D01*
X145687904Y-128066952D02*
X144887904Y-128066952D01*
X145002190Y-128143142D01*
X145078380Y-128219333D01*
X145116476Y-128295523D01*
X144964095Y-127533619D02*
X144926000Y-127495523D01*
X144887904Y-127419333D01*
X144887904Y-127228857D01*
X144926000Y-127152666D01*
X144964095Y-127114571D01*
X145040285Y-127076476D01*
X145116476Y-127076476D01*
X145230761Y-127114571D01*
X145687904Y-127571714D01*
X145687904Y-127076476D01*
%TO.C,R11*%
X112085714Y-126461904D02*
X111819047Y-126080952D01*
X111628571Y-126461904D02*
X111628571Y-125661904D01*
X111933333Y-125661904D01*
X112009523Y-125700000D01*
X112047619Y-125738095D01*
X112085714Y-125814285D01*
X112085714Y-125928571D01*
X112047619Y-126004761D01*
X112009523Y-126042857D01*
X111933333Y-126080952D01*
X111628571Y-126080952D01*
X112847619Y-126461904D02*
X112390476Y-126461904D01*
X112619047Y-126461904D02*
X112619047Y-125661904D01*
X112542857Y-125776190D01*
X112466666Y-125852380D01*
X112390476Y-125890476D01*
X113609523Y-126461904D02*
X113152380Y-126461904D01*
X113380952Y-126461904D02*
X113380952Y-125661904D01*
X113304761Y-125776190D01*
X113228571Y-125852380D01*
X113152380Y-125890476D01*
%TO.C,R10*%
X112085714Y-129461904D02*
X111819047Y-129080952D01*
X111628571Y-129461904D02*
X111628571Y-128661904D01*
X111933333Y-128661904D01*
X112009523Y-128700000D01*
X112047619Y-128738095D01*
X112085714Y-128814285D01*
X112085714Y-128928571D01*
X112047619Y-129004761D01*
X112009523Y-129042857D01*
X111933333Y-129080952D01*
X111628571Y-129080952D01*
X112847619Y-129461904D02*
X112390476Y-129461904D01*
X112619047Y-129461904D02*
X112619047Y-128661904D01*
X112542857Y-128776190D01*
X112466666Y-128852380D01*
X112390476Y-128890476D01*
X113342857Y-128661904D02*
X113419047Y-128661904D01*
X113495238Y-128700000D01*
X113533333Y-128738095D01*
X113571428Y-128814285D01*
X113609523Y-128966666D01*
X113609523Y-129157142D01*
X113571428Y-129309523D01*
X113533333Y-129385714D01*
X113495238Y-129423809D01*
X113419047Y-129461904D01*
X113342857Y-129461904D01*
X113266666Y-129423809D01*
X113228571Y-129385714D01*
X113190476Y-129309523D01*
X113152380Y-129157142D01*
X113152380Y-128966666D01*
X113190476Y-128814285D01*
X113228571Y-128738095D01*
X113266666Y-128700000D01*
X113342857Y-128661904D01*
%TO.C,R9*%
X152866666Y-116159904D02*
X152600000Y-115778952D01*
X152409523Y-116159904D02*
X152409523Y-115359904D01*
X152714285Y-115359904D01*
X152790476Y-115398000D01*
X152828571Y-115436095D01*
X152866666Y-115512285D01*
X152866666Y-115626571D01*
X152828571Y-115702761D01*
X152790476Y-115740857D01*
X152714285Y-115778952D01*
X152409523Y-115778952D01*
X153247619Y-116159904D02*
X153400000Y-116159904D01*
X153476190Y-116121809D01*
X153514285Y-116083714D01*
X153590476Y-115969428D01*
X153628571Y-115817047D01*
X153628571Y-115512285D01*
X153590476Y-115436095D01*
X153552380Y-115398000D01*
X153476190Y-115359904D01*
X153323809Y-115359904D01*
X153247619Y-115398000D01*
X153209523Y-115436095D01*
X153171428Y-115512285D01*
X153171428Y-115702761D01*
X153209523Y-115778952D01*
X153247619Y-115817047D01*
X153323809Y-115855142D01*
X153476190Y-115855142D01*
X153552380Y-115817047D01*
X153590476Y-115778952D01*
X153628571Y-115702761D01*
%TO.C,R8*%
X149766666Y-111561904D02*
X149500000Y-111180952D01*
X149309523Y-111561904D02*
X149309523Y-110761904D01*
X149614285Y-110761904D01*
X149690476Y-110800000D01*
X149728571Y-110838095D01*
X149766666Y-110914285D01*
X149766666Y-111028571D01*
X149728571Y-111104761D01*
X149690476Y-111142857D01*
X149614285Y-111180952D01*
X149309523Y-111180952D01*
X150223809Y-111104761D02*
X150147619Y-111066666D01*
X150109523Y-111028571D01*
X150071428Y-110952380D01*
X150071428Y-110914285D01*
X150109523Y-110838095D01*
X150147619Y-110800000D01*
X150223809Y-110761904D01*
X150376190Y-110761904D01*
X150452380Y-110800000D01*
X150490476Y-110838095D01*
X150528571Y-110914285D01*
X150528571Y-110952380D01*
X150490476Y-111028571D01*
X150452380Y-111066666D01*
X150376190Y-111104761D01*
X150223809Y-111104761D01*
X150147619Y-111142857D01*
X150109523Y-111180952D01*
X150071428Y-111257142D01*
X150071428Y-111409523D01*
X150109523Y-111485714D01*
X150147619Y-111523809D01*
X150223809Y-111561904D01*
X150376190Y-111561904D01*
X150452380Y-111523809D01*
X150490476Y-111485714D01*
X150528571Y-111409523D01*
X150528571Y-111257142D01*
X150490476Y-111180952D01*
X150452380Y-111142857D01*
X150376190Y-111104761D01*
%TO.C,R7*%
X151961904Y-113133333D02*
X151580952Y-113400000D01*
X151961904Y-113590476D02*
X151161904Y-113590476D01*
X151161904Y-113285714D01*
X151200000Y-113209523D01*
X151238095Y-113171428D01*
X151314285Y-113133333D01*
X151428571Y-113133333D01*
X151504761Y-113171428D01*
X151542857Y-113209523D01*
X151580952Y-113285714D01*
X151580952Y-113590476D01*
X151161904Y-112866666D02*
X151161904Y-112333333D01*
X151961904Y-112676190D01*
%TO.C,R6*%
X158179904Y-117615333D02*
X157798952Y-117882000D01*
X158179904Y-118072476D02*
X157379904Y-118072476D01*
X157379904Y-117767714D01*
X157418000Y-117691523D01*
X157456095Y-117653428D01*
X157532285Y-117615333D01*
X157646571Y-117615333D01*
X157722761Y-117653428D01*
X157760857Y-117691523D01*
X157798952Y-117767714D01*
X157798952Y-118072476D01*
X157379904Y-116929619D02*
X157379904Y-117082000D01*
X157418000Y-117158190D01*
X157456095Y-117196285D01*
X157570380Y-117272476D01*
X157722761Y-117310571D01*
X158027523Y-117310571D01*
X158103714Y-117272476D01*
X158141809Y-117234380D01*
X158179904Y-117158190D01*
X158179904Y-117005809D01*
X158141809Y-116929619D01*
X158103714Y-116891523D01*
X158027523Y-116853428D01*
X157837047Y-116853428D01*
X157760857Y-116891523D01*
X157722761Y-116929619D01*
X157684666Y-117005809D01*
X157684666Y-117158190D01*
X157722761Y-117234380D01*
X157760857Y-117272476D01*
X157837047Y-117310571D01*
%TO.C,R3*%
X126109904Y-114987333D02*
X125728952Y-115254000D01*
X126109904Y-115444476D02*
X125309904Y-115444476D01*
X125309904Y-115139714D01*
X125348000Y-115063523D01*
X125386095Y-115025428D01*
X125462285Y-114987333D01*
X125576571Y-114987333D01*
X125652761Y-115025428D01*
X125690857Y-115063523D01*
X125728952Y-115139714D01*
X125728952Y-115444476D01*
X125309904Y-114720666D02*
X125309904Y-114225428D01*
X125614666Y-114492095D01*
X125614666Y-114377809D01*
X125652761Y-114301619D01*
X125690857Y-114263523D01*
X125767047Y-114225428D01*
X125957523Y-114225428D01*
X126033714Y-114263523D01*
X126071809Y-114301619D01*
X126109904Y-114377809D01*
X126109904Y-114606380D01*
X126071809Y-114682571D01*
X126033714Y-114720666D01*
%TO.C,R4*%
X122461904Y-114233333D02*
X122080952Y-114500000D01*
X122461904Y-114690476D02*
X121661904Y-114690476D01*
X121661904Y-114385714D01*
X121700000Y-114309523D01*
X121738095Y-114271428D01*
X121814285Y-114233333D01*
X121928571Y-114233333D01*
X122004761Y-114271428D01*
X122042857Y-114309523D01*
X122080952Y-114385714D01*
X122080952Y-114690476D01*
X121928571Y-113547619D02*
X122461904Y-113547619D01*
X121623809Y-113738095D02*
X122195238Y-113928571D01*
X122195238Y-113433333D01*
%TO.C,R2*%
X131961904Y-124433333D02*
X131580952Y-124700000D01*
X131961904Y-124890476D02*
X131161904Y-124890476D01*
X131161904Y-124585714D01*
X131200000Y-124509523D01*
X131238095Y-124471428D01*
X131314285Y-124433333D01*
X131428571Y-124433333D01*
X131504761Y-124471428D01*
X131542857Y-124509523D01*
X131580952Y-124585714D01*
X131580952Y-124890476D01*
X131238095Y-124128571D02*
X131200000Y-124090476D01*
X131161904Y-124014285D01*
X131161904Y-123823809D01*
X131200000Y-123747619D01*
X131238095Y-123709523D01*
X131314285Y-123671428D01*
X131390476Y-123671428D01*
X131504761Y-123709523D01*
X131961904Y-124166666D01*
X131961904Y-123671428D01*
%TO.C,R1*%
X127561904Y-119533333D02*
X127180952Y-119800000D01*
X127561904Y-119990476D02*
X126761904Y-119990476D01*
X126761904Y-119685714D01*
X126800000Y-119609523D01*
X126838095Y-119571428D01*
X126914285Y-119533333D01*
X127028571Y-119533333D01*
X127104761Y-119571428D01*
X127142857Y-119609523D01*
X127180952Y-119685714D01*
X127180952Y-119990476D01*
X127561904Y-118771428D02*
X127561904Y-119228571D01*
X127561904Y-119000000D02*
X126761904Y-119000000D01*
X126876190Y-119076190D01*
X126952380Y-119152380D01*
X126990476Y-119228571D01*
%TO.C,C23*%
X130785714Y-136185714D02*
X130747619Y-136223809D01*
X130633333Y-136261904D01*
X130557142Y-136261904D01*
X130442857Y-136223809D01*
X130366666Y-136147619D01*
X130328571Y-136071428D01*
X130290476Y-135919047D01*
X130290476Y-135804761D01*
X130328571Y-135652380D01*
X130366666Y-135576190D01*
X130442857Y-135500000D01*
X130557142Y-135461904D01*
X130633333Y-135461904D01*
X130747619Y-135500000D01*
X130785714Y-135538095D01*
X131090476Y-135538095D02*
X131128571Y-135500000D01*
X131204761Y-135461904D01*
X131395238Y-135461904D01*
X131471428Y-135500000D01*
X131509523Y-135538095D01*
X131547619Y-135614285D01*
X131547619Y-135690476D01*
X131509523Y-135804761D01*
X131052380Y-136261904D01*
X131547619Y-136261904D01*
X131814285Y-135461904D02*
X132309523Y-135461904D01*
X132042857Y-135766666D01*
X132157142Y-135766666D01*
X132233333Y-135804761D01*
X132271428Y-135842857D01*
X132309523Y-135919047D01*
X132309523Y-136109523D01*
X132271428Y-136185714D01*
X132233333Y-136223809D01*
X132157142Y-136261904D01*
X131928571Y-136261904D01*
X131852380Y-136223809D01*
X131814285Y-136185714D01*
%TO.C,C22*%
X135485714Y-130785714D02*
X135447619Y-130823809D01*
X135333333Y-130861904D01*
X135257142Y-130861904D01*
X135142857Y-130823809D01*
X135066666Y-130747619D01*
X135028571Y-130671428D01*
X134990476Y-130519047D01*
X134990476Y-130404761D01*
X135028571Y-130252380D01*
X135066666Y-130176190D01*
X135142857Y-130100000D01*
X135257142Y-130061904D01*
X135333333Y-130061904D01*
X135447619Y-130100000D01*
X135485714Y-130138095D01*
X135790476Y-130138095D02*
X135828571Y-130100000D01*
X135904761Y-130061904D01*
X136095238Y-130061904D01*
X136171428Y-130100000D01*
X136209523Y-130138095D01*
X136247619Y-130214285D01*
X136247619Y-130290476D01*
X136209523Y-130404761D01*
X135752380Y-130861904D01*
X136247619Y-130861904D01*
X136552380Y-130138095D02*
X136590476Y-130100000D01*
X136666666Y-130061904D01*
X136857142Y-130061904D01*
X136933333Y-130100000D01*
X136971428Y-130138095D01*
X137009523Y-130214285D01*
X137009523Y-130290476D01*
X136971428Y-130404761D01*
X136514285Y-130861904D01*
X137009523Y-130861904D01*
%TO.C,C21*%
X136785714Y-133014285D02*
X136823809Y-133052380D01*
X136861904Y-133166666D01*
X136861904Y-133242857D01*
X136823809Y-133357142D01*
X136747619Y-133433333D01*
X136671428Y-133471428D01*
X136519047Y-133509523D01*
X136404761Y-133509523D01*
X136252380Y-133471428D01*
X136176190Y-133433333D01*
X136100000Y-133357142D01*
X136061904Y-133242857D01*
X136061904Y-133166666D01*
X136100000Y-133052380D01*
X136138095Y-133014285D01*
X136138095Y-132709523D02*
X136100000Y-132671428D01*
X136061904Y-132595238D01*
X136061904Y-132404761D01*
X136100000Y-132328571D01*
X136138095Y-132290476D01*
X136214285Y-132252380D01*
X136290476Y-132252380D01*
X136404761Y-132290476D01*
X136861904Y-132747619D01*
X136861904Y-132252380D01*
X136861904Y-131490476D02*
X136861904Y-131947619D01*
X136861904Y-131719047D02*
X136061904Y-131719047D01*
X136176190Y-131795238D01*
X136252380Y-131871428D01*
X136290476Y-131947619D01*
%TO.C,C20*%
X137385714Y-126485714D02*
X137347619Y-126523809D01*
X137233333Y-126561904D01*
X137157142Y-126561904D01*
X137042857Y-126523809D01*
X136966666Y-126447619D01*
X136928571Y-126371428D01*
X136890476Y-126219047D01*
X136890476Y-126104761D01*
X136928571Y-125952380D01*
X136966666Y-125876190D01*
X137042857Y-125800000D01*
X137157142Y-125761904D01*
X137233333Y-125761904D01*
X137347619Y-125800000D01*
X137385714Y-125838095D01*
X137690476Y-125838095D02*
X137728571Y-125800000D01*
X137804761Y-125761904D01*
X137995238Y-125761904D01*
X138071428Y-125800000D01*
X138109523Y-125838095D01*
X138147619Y-125914285D01*
X138147619Y-125990476D01*
X138109523Y-126104761D01*
X137652380Y-126561904D01*
X138147619Y-126561904D01*
X138642857Y-125761904D02*
X138719047Y-125761904D01*
X138795238Y-125800000D01*
X138833333Y-125838095D01*
X138871428Y-125914285D01*
X138909523Y-126066666D01*
X138909523Y-126257142D01*
X138871428Y-126409523D01*
X138833333Y-126485714D01*
X138795238Y-126523809D01*
X138719047Y-126561904D01*
X138642857Y-126561904D01*
X138566666Y-126523809D01*
X138528571Y-126485714D01*
X138490476Y-126409523D01*
X138452380Y-126257142D01*
X138452380Y-126066666D01*
X138490476Y-125914285D01*
X138528571Y-125838095D01*
X138566666Y-125800000D01*
X138642857Y-125761904D01*
%TO.C,C18*%
X102279714Y-115299714D02*
X102241619Y-115337809D01*
X102127333Y-115375904D01*
X102051142Y-115375904D01*
X101936857Y-115337809D01*
X101860666Y-115261619D01*
X101822571Y-115185428D01*
X101784476Y-115033047D01*
X101784476Y-114918761D01*
X101822571Y-114766380D01*
X101860666Y-114690190D01*
X101936857Y-114614000D01*
X102051142Y-114575904D01*
X102127333Y-114575904D01*
X102241619Y-114614000D01*
X102279714Y-114652095D01*
X103041619Y-115375904D02*
X102584476Y-115375904D01*
X102813047Y-115375904D02*
X102813047Y-114575904D01*
X102736857Y-114690190D01*
X102660666Y-114766380D01*
X102584476Y-114804476D01*
X103498761Y-114918761D02*
X103422571Y-114880666D01*
X103384476Y-114842571D01*
X103346380Y-114766380D01*
X103346380Y-114728285D01*
X103384476Y-114652095D01*
X103422571Y-114614000D01*
X103498761Y-114575904D01*
X103651142Y-114575904D01*
X103727333Y-114614000D01*
X103765428Y-114652095D01*
X103803523Y-114728285D01*
X103803523Y-114766380D01*
X103765428Y-114842571D01*
X103727333Y-114880666D01*
X103651142Y-114918761D01*
X103498761Y-114918761D01*
X103422571Y-114956857D01*
X103384476Y-114994952D01*
X103346380Y-115071142D01*
X103346380Y-115223523D01*
X103384476Y-115299714D01*
X103422571Y-115337809D01*
X103498761Y-115375904D01*
X103651142Y-115375904D01*
X103727333Y-115337809D01*
X103765428Y-115299714D01*
X103803523Y-115223523D01*
X103803523Y-115071142D01*
X103765428Y-114994952D01*
X103727333Y-114956857D01*
X103651142Y-114918761D01*
%TO.C,C16*%
X111185714Y-119785714D02*
X111147619Y-119823809D01*
X111033333Y-119861904D01*
X110957142Y-119861904D01*
X110842857Y-119823809D01*
X110766666Y-119747619D01*
X110728571Y-119671428D01*
X110690476Y-119519047D01*
X110690476Y-119404761D01*
X110728571Y-119252380D01*
X110766666Y-119176190D01*
X110842857Y-119100000D01*
X110957142Y-119061904D01*
X111033333Y-119061904D01*
X111147619Y-119100000D01*
X111185714Y-119138095D01*
X111947619Y-119861904D02*
X111490476Y-119861904D01*
X111719047Y-119861904D02*
X111719047Y-119061904D01*
X111642857Y-119176190D01*
X111566666Y-119252380D01*
X111490476Y-119290476D01*
X112633333Y-119061904D02*
X112480952Y-119061904D01*
X112404761Y-119100000D01*
X112366666Y-119138095D01*
X112290476Y-119252380D01*
X112252380Y-119404761D01*
X112252380Y-119709523D01*
X112290476Y-119785714D01*
X112328571Y-119823809D01*
X112404761Y-119861904D01*
X112557142Y-119861904D01*
X112633333Y-119823809D01*
X112671428Y-119785714D01*
X112709523Y-119709523D01*
X112709523Y-119519047D01*
X112671428Y-119442857D01*
X112633333Y-119404761D01*
X112557142Y-119366666D01*
X112404761Y-119366666D01*
X112328571Y-119404761D01*
X112290476Y-119442857D01*
X112252380Y-119519047D01*
%TO.C,C13*%
X120685714Y-113714285D02*
X120723809Y-113752380D01*
X120761904Y-113866666D01*
X120761904Y-113942857D01*
X120723809Y-114057142D01*
X120647619Y-114133333D01*
X120571428Y-114171428D01*
X120419047Y-114209523D01*
X120304761Y-114209523D01*
X120152380Y-114171428D01*
X120076190Y-114133333D01*
X120000000Y-114057142D01*
X119961904Y-113942857D01*
X119961904Y-113866666D01*
X120000000Y-113752380D01*
X120038095Y-113714285D01*
X120761904Y-112952380D02*
X120761904Y-113409523D01*
X120761904Y-113180952D02*
X119961904Y-113180952D01*
X120076190Y-113257142D01*
X120152380Y-113333333D01*
X120190476Y-113409523D01*
X119961904Y-112685714D02*
X119961904Y-112190476D01*
X120266666Y-112457142D01*
X120266666Y-112342857D01*
X120304761Y-112266666D01*
X120342857Y-112228571D01*
X120419047Y-112190476D01*
X120609523Y-112190476D01*
X120685714Y-112228571D01*
X120723809Y-112266666D01*
X120761904Y-112342857D01*
X120761904Y-112571428D01*
X120723809Y-112647619D01*
X120685714Y-112685714D01*
%TO.C,C12*%
X112185714Y-117085714D02*
X112147619Y-117123809D01*
X112033333Y-117161904D01*
X111957142Y-117161904D01*
X111842857Y-117123809D01*
X111766666Y-117047619D01*
X111728571Y-116971428D01*
X111690476Y-116819047D01*
X111690476Y-116704761D01*
X111728571Y-116552380D01*
X111766666Y-116476190D01*
X111842857Y-116400000D01*
X111957142Y-116361904D01*
X112033333Y-116361904D01*
X112147619Y-116400000D01*
X112185714Y-116438095D01*
X112947619Y-117161904D02*
X112490476Y-117161904D01*
X112719047Y-117161904D02*
X112719047Y-116361904D01*
X112642857Y-116476190D01*
X112566666Y-116552380D01*
X112490476Y-116590476D01*
X113252380Y-116438095D02*
X113290476Y-116400000D01*
X113366666Y-116361904D01*
X113557142Y-116361904D01*
X113633333Y-116400000D01*
X113671428Y-116438095D01*
X113709523Y-116514285D01*
X113709523Y-116590476D01*
X113671428Y-116704761D01*
X113214285Y-117161904D01*
X113709523Y-117161904D01*
%TO.C,C11*%
X124250714Y-116884714D02*
X124212619Y-116922809D01*
X124098333Y-116960904D01*
X124022142Y-116960904D01*
X123907857Y-116922809D01*
X123831666Y-116846619D01*
X123793571Y-116770428D01*
X123755476Y-116618047D01*
X123755476Y-116503761D01*
X123793571Y-116351380D01*
X123831666Y-116275190D01*
X123907857Y-116199000D01*
X124022142Y-116160904D01*
X124098333Y-116160904D01*
X124212619Y-116199000D01*
X124250714Y-116237095D01*
X125012619Y-116960904D02*
X124555476Y-116960904D01*
X124784047Y-116960904D02*
X124784047Y-116160904D01*
X124707857Y-116275190D01*
X124631666Y-116351380D01*
X124555476Y-116389476D01*
X125774523Y-116960904D02*
X125317380Y-116960904D01*
X125545952Y-116960904D02*
X125545952Y-116160904D01*
X125469761Y-116275190D01*
X125393571Y-116351380D01*
X125317380Y-116389476D01*
%TO.C,C10*%
X111185714Y-124085714D02*
X111147619Y-124123809D01*
X111033333Y-124161904D01*
X110957142Y-124161904D01*
X110842857Y-124123809D01*
X110766666Y-124047619D01*
X110728571Y-123971428D01*
X110690476Y-123819047D01*
X110690476Y-123704761D01*
X110728571Y-123552380D01*
X110766666Y-123476190D01*
X110842857Y-123400000D01*
X110957142Y-123361904D01*
X111033333Y-123361904D01*
X111147619Y-123400000D01*
X111185714Y-123438095D01*
X111947619Y-124161904D02*
X111490476Y-124161904D01*
X111719047Y-124161904D02*
X111719047Y-123361904D01*
X111642857Y-123476190D01*
X111566666Y-123552380D01*
X111490476Y-123590476D01*
X112442857Y-123361904D02*
X112519047Y-123361904D01*
X112595238Y-123400000D01*
X112633333Y-123438095D01*
X112671428Y-123514285D01*
X112709523Y-123666666D01*
X112709523Y-123857142D01*
X112671428Y-124009523D01*
X112633333Y-124085714D01*
X112595238Y-124123809D01*
X112519047Y-124161904D01*
X112442857Y-124161904D01*
X112366666Y-124123809D01*
X112328571Y-124085714D01*
X112290476Y-124009523D01*
X112252380Y-123857142D01*
X112252380Y-123666666D01*
X112290476Y-123514285D01*
X112328571Y-123438095D01*
X112366666Y-123400000D01*
X112442857Y-123361904D01*
%TO.C,C9*%
X125885714Y-135133333D02*
X125923809Y-135171428D01*
X125961904Y-135285714D01*
X125961904Y-135361904D01*
X125923809Y-135476190D01*
X125847619Y-135552380D01*
X125771428Y-135590476D01*
X125619047Y-135628571D01*
X125504761Y-135628571D01*
X125352380Y-135590476D01*
X125276190Y-135552380D01*
X125200000Y-135476190D01*
X125161904Y-135361904D01*
X125161904Y-135285714D01*
X125200000Y-135171428D01*
X125238095Y-135133333D01*
X125961904Y-134752380D02*
X125961904Y-134600000D01*
X125923809Y-134523809D01*
X125885714Y-134485714D01*
X125771428Y-134409523D01*
X125619047Y-134371428D01*
X125314285Y-134371428D01*
X125238095Y-134409523D01*
X125200000Y-134447619D01*
X125161904Y-134523809D01*
X125161904Y-134676190D01*
X125200000Y-134752380D01*
X125238095Y-134790476D01*
X125314285Y-134828571D01*
X125504761Y-134828571D01*
X125580952Y-134790476D01*
X125619047Y-134752380D01*
X125657142Y-134676190D01*
X125657142Y-134523809D01*
X125619047Y-134447619D01*
X125580952Y-134409523D01*
X125504761Y-134371428D01*
%TO.C,C8*%
X112766666Y-127785714D02*
X112728571Y-127823809D01*
X112614285Y-127861904D01*
X112538095Y-127861904D01*
X112423809Y-127823809D01*
X112347619Y-127747619D01*
X112309523Y-127671428D01*
X112271428Y-127519047D01*
X112271428Y-127404761D01*
X112309523Y-127252380D01*
X112347619Y-127176190D01*
X112423809Y-127100000D01*
X112538095Y-127061904D01*
X112614285Y-127061904D01*
X112728571Y-127100000D01*
X112766666Y-127138095D01*
X113223809Y-127404761D02*
X113147619Y-127366666D01*
X113109523Y-127328571D01*
X113071428Y-127252380D01*
X113071428Y-127214285D01*
X113109523Y-127138095D01*
X113147619Y-127100000D01*
X113223809Y-127061904D01*
X113376190Y-127061904D01*
X113452380Y-127100000D01*
X113490476Y-127138095D01*
X113528571Y-127214285D01*
X113528571Y-127252380D01*
X113490476Y-127328571D01*
X113452380Y-127366666D01*
X113376190Y-127404761D01*
X113223809Y-127404761D01*
X113147619Y-127442857D01*
X113109523Y-127480952D01*
X113071428Y-127557142D01*
X113071428Y-127709523D01*
X113109523Y-127785714D01*
X113147619Y-127823809D01*
X113223809Y-127861904D01*
X113376190Y-127861904D01*
X113452380Y-127823809D01*
X113490476Y-127785714D01*
X113528571Y-127709523D01*
X113528571Y-127557142D01*
X113490476Y-127480952D01*
X113452380Y-127442857D01*
X113376190Y-127404761D01*
%TO.C,C7*%
X114685714Y-114233333D02*
X114723809Y-114271428D01*
X114761904Y-114385714D01*
X114761904Y-114461904D01*
X114723809Y-114576190D01*
X114647619Y-114652380D01*
X114571428Y-114690476D01*
X114419047Y-114728571D01*
X114304761Y-114728571D01*
X114152380Y-114690476D01*
X114076190Y-114652380D01*
X114000000Y-114576190D01*
X113961904Y-114461904D01*
X113961904Y-114385714D01*
X114000000Y-114271428D01*
X114038095Y-114233333D01*
X113961904Y-113966666D02*
X113961904Y-113433333D01*
X114761904Y-113776190D01*
%TO.C,C5*%
X112766666Y-124985714D02*
X112728571Y-125023809D01*
X112614285Y-125061904D01*
X112538095Y-125061904D01*
X112423809Y-125023809D01*
X112347619Y-124947619D01*
X112309523Y-124871428D01*
X112271428Y-124719047D01*
X112271428Y-124604761D01*
X112309523Y-124452380D01*
X112347619Y-124376190D01*
X112423809Y-124300000D01*
X112538095Y-124261904D01*
X112614285Y-124261904D01*
X112728571Y-124300000D01*
X112766666Y-124338095D01*
X113490476Y-124261904D02*
X113109523Y-124261904D01*
X113071428Y-124642857D01*
X113109523Y-124604761D01*
X113185714Y-124566666D01*
X113376190Y-124566666D01*
X113452380Y-124604761D01*
X113490476Y-124642857D01*
X113528571Y-124719047D01*
X113528571Y-124909523D01*
X113490476Y-124985714D01*
X113452380Y-125023809D01*
X113376190Y-125061904D01*
X113185714Y-125061904D01*
X113109523Y-125023809D01*
X113071428Y-124985714D01*
%TO.C,C4*%
X112166666Y-131685714D02*
X112128571Y-131723809D01*
X112014285Y-131761904D01*
X111938095Y-131761904D01*
X111823809Y-131723809D01*
X111747619Y-131647619D01*
X111709523Y-131571428D01*
X111671428Y-131419047D01*
X111671428Y-131304761D01*
X111709523Y-131152380D01*
X111747619Y-131076190D01*
X111823809Y-131000000D01*
X111938095Y-130961904D01*
X112014285Y-130961904D01*
X112128571Y-131000000D01*
X112166666Y-131038095D01*
X112852380Y-131228571D02*
X112852380Y-131761904D01*
X112661904Y-130923809D02*
X112471428Y-131495238D01*
X112966666Y-131495238D01*
%TO.C,U4*%
X100561904Y-110909523D02*
X101209523Y-110909523D01*
X101285714Y-110871428D01*
X101323809Y-110833333D01*
X101361904Y-110757142D01*
X101361904Y-110604761D01*
X101323809Y-110528571D01*
X101285714Y-110490476D01*
X101209523Y-110452380D01*
X100561904Y-110452380D01*
X100828571Y-109728571D02*
X101361904Y-109728571D01*
X100523809Y-109919047D02*
X101095238Y-110109523D01*
X101095238Y-109614285D01*
X101479904Y-112846800D02*
X101670380Y-112846800D01*
X101594190Y-113037276D02*
X101670380Y-112846800D01*
X101594190Y-112656323D01*
X101822761Y-112961085D02*
X101670380Y-112846800D01*
X101822761Y-112732514D01*
X101479904Y-112846800D02*
X101670380Y-112846800D01*
X101594190Y-113037276D02*
X101670380Y-112846800D01*
X101594190Y-112656323D01*
X101822761Y-112961085D02*
X101670380Y-112846800D01*
X101822761Y-112732514D01*
%TO.C,J12*%
X168561904Y-102647619D02*
X169133333Y-102647619D01*
X169247619Y-102685714D01*
X169323809Y-102761904D01*
X169361904Y-102876190D01*
X169361904Y-102952380D01*
X169361904Y-101847619D02*
X169361904Y-102304761D01*
X169361904Y-102076190D02*
X168561904Y-102076190D01*
X168676190Y-102152380D01*
X168752380Y-102228571D01*
X168790476Y-102304761D01*
X168638095Y-101542857D02*
X168600000Y-101504761D01*
X168561904Y-101428571D01*
X168561904Y-101238095D01*
X168600000Y-101161904D01*
X168638095Y-101123809D01*
X168714285Y-101085714D01*
X168790476Y-101085714D01*
X168904761Y-101123809D01*
X169361904Y-101580952D01*
X169361904Y-101085714D01*
%TO.C,J4*%
X132133333Y-109961904D02*
X132133333Y-110533333D01*
X132095238Y-110647619D01*
X132019047Y-110723809D01*
X131904761Y-110761904D01*
X131828571Y-110761904D01*
X132857142Y-110228571D02*
X132857142Y-110761904D01*
X132666666Y-109923809D02*
X132476190Y-110495238D01*
X132971428Y-110495238D01*
%TO.C,C17*%
X152785714Y-111185714D02*
X152747619Y-111223809D01*
X152633333Y-111261904D01*
X152557142Y-111261904D01*
X152442857Y-111223809D01*
X152366666Y-111147619D01*
X152328571Y-111071428D01*
X152290476Y-110919047D01*
X152290476Y-110804761D01*
X152328571Y-110652380D01*
X152366666Y-110576190D01*
X152442857Y-110500000D01*
X152557142Y-110461904D01*
X152633333Y-110461904D01*
X152747619Y-110500000D01*
X152785714Y-110538095D01*
X153547619Y-111261904D02*
X153090476Y-111261904D01*
X153319047Y-111261904D02*
X153319047Y-110461904D01*
X153242857Y-110576190D01*
X153166666Y-110652380D01*
X153090476Y-110690476D01*
X153814285Y-110461904D02*
X154347619Y-110461904D01*
X154004761Y-111261904D01*
%TO.C,U1*%
X126690476Y-129861904D02*
X126690476Y-130509523D01*
X126728571Y-130585714D01*
X126766666Y-130623809D01*
X126842857Y-130661904D01*
X126995238Y-130661904D01*
X127071428Y-130623809D01*
X127109523Y-130585714D01*
X127147619Y-130509523D01*
X127147619Y-129861904D01*
X127947619Y-130661904D02*
X127490476Y-130661904D01*
X127719047Y-130661904D02*
X127719047Y-129861904D01*
X127642857Y-129976190D01*
X127566666Y-130052380D01*
X127490476Y-130090476D01*
%TO.C,J20*%
X132661904Y-138447619D02*
X133233333Y-138447619D01*
X133347619Y-138485714D01*
X133423809Y-138561904D01*
X133461904Y-138676190D01*
X133461904Y-138752380D01*
X132738095Y-138104761D02*
X132700000Y-138066666D01*
X132661904Y-137990476D01*
X132661904Y-137800000D01*
X132700000Y-137723809D01*
X132738095Y-137685714D01*
X132814285Y-137647619D01*
X132890476Y-137647619D01*
X133004761Y-137685714D01*
X133461904Y-138142857D01*
X133461904Y-137647619D01*
X132661904Y-137152380D02*
X132661904Y-137076190D01*
X132700000Y-137000000D01*
X132738095Y-136961904D01*
X132814285Y-136923809D01*
X132966666Y-136885714D01*
X133157142Y-136885714D01*
X133309523Y-136923809D01*
X133385714Y-136961904D01*
X133423809Y-137000000D01*
X133461904Y-137076190D01*
X133461904Y-137152380D01*
X133423809Y-137228571D01*
X133385714Y-137266666D01*
X133309523Y-137304761D01*
X133157142Y-137342857D01*
X132966666Y-137342857D01*
X132814285Y-137304761D01*
X132738095Y-137266666D01*
X132700000Y-137228571D01*
X132661904Y-137152380D01*
%TO.C,J19*%
X161361904Y-138247619D02*
X161933333Y-138247619D01*
X162047619Y-138285714D01*
X162123809Y-138361904D01*
X162161904Y-138476190D01*
X162161904Y-138552380D01*
X162161904Y-137447619D02*
X162161904Y-137904761D01*
X162161904Y-137676190D02*
X161361904Y-137676190D01*
X161476190Y-137752380D01*
X161552380Y-137828571D01*
X161590476Y-137904761D01*
X162161904Y-137066666D02*
X162161904Y-136914285D01*
X162123809Y-136838095D01*
X162085714Y-136800000D01*
X161971428Y-136723809D01*
X161819047Y-136685714D01*
X161514285Y-136685714D01*
X161438095Y-136723809D01*
X161400000Y-136761904D01*
X161361904Y-136838095D01*
X161361904Y-136990476D01*
X161400000Y-137066666D01*
X161438095Y-137104761D01*
X161514285Y-137142857D01*
X161704761Y-137142857D01*
X161780952Y-137104761D01*
X161819047Y-137066666D01*
X161857142Y-136990476D01*
X161857142Y-136838095D01*
X161819047Y-136761904D01*
X161780952Y-136723809D01*
X161704761Y-136685714D01*
%TO.C,J1*%
X119533333Y-104161904D02*
X119533333Y-104733333D01*
X119495238Y-104847619D01*
X119419047Y-104923809D01*
X119304761Y-104961904D01*
X119228571Y-104961904D01*
X120333333Y-104961904D02*
X119876190Y-104961904D01*
X120104761Y-104961904D02*
X120104761Y-104161904D01*
X120028571Y-104276190D01*
X119952380Y-104352380D01*
X119876190Y-104390476D01*
%TO.C,J2*%
X127133333Y-117061904D02*
X127133333Y-117633333D01*
X127095238Y-117747619D01*
X127019047Y-117823809D01*
X126904761Y-117861904D01*
X126828571Y-117861904D01*
X127476190Y-117138095D02*
X127514285Y-117100000D01*
X127590476Y-117061904D01*
X127780952Y-117061904D01*
X127857142Y-117100000D01*
X127895238Y-117138095D01*
X127933333Y-117214285D01*
X127933333Y-117290476D01*
X127895238Y-117404761D01*
X127438095Y-117861904D01*
X127933333Y-117861904D01*
%TO.C,Y1*%
X120019047Y-107980952D02*
X120019047Y-108361904D01*
X119752380Y-107561904D02*
X120019047Y-107980952D01*
X120285714Y-107561904D01*
X120971428Y-108361904D02*
X120514285Y-108361904D01*
X120742857Y-108361904D02*
X120742857Y-107561904D01*
X120666666Y-107676190D01*
X120590476Y-107752380D01*
X120514285Y-107790476D01*
%TO.C,U2*%
X125061904Y-133109523D02*
X125709523Y-133109523D01*
X125785714Y-133071428D01*
X125823809Y-133033333D01*
X125861904Y-132957142D01*
X125861904Y-132804761D01*
X125823809Y-132728571D01*
X125785714Y-132690476D01*
X125709523Y-132652380D01*
X125061904Y-132652380D01*
X125138095Y-132309523D02*
X125100000Y-132271428D01*
X125061904Y-132195238D01*
X125061904Y-132004761D01*
X125100000Y-131928571D01*
X125138095Y-131890476D01*
X125214285Y-131852380D01*
X125290476Y-131852380D01*
X125404761Y-131890476D01*
X125861904Y-132347619D01*
X125861904Y-131852380D01*
%TO.C,C3*%
X114866666Y-109485714D02*
X114828571Y-109523809D01*
X114714285Y-109561904D01*
X114638095Y-109561904D01*
X114523809Y-109523809D01*
X114447619Y-109447619D01*
X114409523Y-109371428D01*
X114371428Y-109219047D01*
X114371428Y-109104761D01*
X114409523Y-108952380D01*
X114447619Y-108876190D01*
X114523809Y-108800000D01*
X114638095Y-108761904D01*
X114714285Y-108761904D01*
X114828571Y-108800000D01*
X114866666Y-108838095D01*
X115133333Y-108761904D02*
X115628571Y-108761904D01*
X115361904Y-109066666D01*
X115476190Y-109066666D01*
X115552380Y-109104761D01*
X115590476Y-109142857D01*
X115628571Y-109219047D01*
X115628571Y-109409523D01*
X115590476Y-109485714D01*
X115552380Y-109523809D01*
X115476190Y-109561904D01*
X115247619Y-109561904D01*
X115171428Y-109523809D01*
X115133333Y-109485714D01*
%TO.C,C2*%
X124071214Y-110669333D02*
X124109309Y-110707428D01*
X124147404Y-110821714D01*
X124147404Y-110897904D01*
X124109309Y-111012190D01*
X124033119Y-111088380D01*
X123956928Y-111126476D01*
X123804547Y-111164571D01*
X123690261Y-111164571D01*
X123537880Y-111126476D01*
X123461690Y-111088380D01*
X123385500Y-111012190D01*
X123347404Y-110897904D01*
X123347404Y-110821714D01*
X123385500Y-110707428D01*
X123423595Y-110669333D01*
X123423595Y-110364571D02*
X123385500Y-110326476D01*
X123347404Y-110250285D01*
X123347404Y-110059809D01*
X123385500Y-109983619D01*
X123423595Y-109945523D01*
X123499785Y-109907428D01*
X123575976Y-109907428D01*
X123690261Y-109945523D01*
X124147404Y-110402666D01*
X124147404Y-109907428D01*
%TO.C,Q4*%
X135123809Y-118038095D02*
X135047619Y-118000000D01*
X134971428Y-117923809D01*
X134857142Y-117809523D01*
X134780952Y-117771428D01*
X134704761Y-117771428D01*
X134742857Y-117961904D02*
X134666666Y-117923809D01*
X134590476Y-117847619D01*
X134552380Y-117695238D01*
X134552380Y-117428571D01*
X134590476Y-117276190D01*
X134666666Y-117200000D01*
X134742857Y-117161904D01*
X134895238Y-117161904D01*
X134971428Y-117200000D01*
X135047619Y-117276190D01*
X135085714Y-117428571D01*
X135085714Y-117695238D01*
X135047619Y-117847619D01*
X134971428Y-117923809D01*
X134895238Y-117961904D01*
X134742857Y-117961904D01*
X135771428Y-117428571D02*
X135771428Y-117961904D01*
X135580952Y-117123809D02*
X135390476Y-117695238D01*
X135885714Y-117695238D01*
%TO.C,Q3*%
X142423809Y-118138095D02*
X142347619Y-118100000D01*
X142271428Y-118023809D01*
X142157142Y-117909523D01*
X142080952Y-117871428D01*
X142004761Y-117871428D01*
X142042857Y-118061904D02*
X141966666Y-118023809D01*
X141890476Y-117947619D01*
X141852380Y-117795238D01*
X141852380Y-117528571D01*
X141890476Y-117376190D01*
X141966666Y-117300000D01*
X142042857Y-117261904D01*
X142195238Y-117261904D01*
X142271428Y-117300000D01*
X142347619Y-117376190D01*
X142385714Y-117528571D01*
X142385714Y-117795238D01*
X142347619Y-117947619D01*
X142271428Y-118023809D01*
X142195238Y-118061904D01*
X142042857Y-118061904D01*
X142652380Y-117261904D02*
X143147619Y-117261904D01*
X142880952Y-117566666D01*
X142995238Y-117566666D01*
X143071428Y-117604761D01*
X143109523Y-117642857D01*
X143147619Y-117719047D01*
X143147619Y-117909523D01*
X143109523Y-117985714D01*
X143071428Y-118023809D01*
X142995238Y-118061904D01*
X142766666Y-118061904D01*
X142690476Y-118023809D01*
X142652380Y-117985714D01*
%TO.C,Q2*%
X154923809Y-133038095D02*
X154847619Y-133000000D01*
X154771428Y-132923809D01*
X154657142Y-132809523D01*
X154580952Y-132771428D01*
X154504761Y-132771428D01*
X154542857Y-132961904D02*
X154466666Y-132923809D01*
X154390476Y-132847619D01*
X154352380Y-132695238D01*
X154352380Y-132428571D01*
X154390476Y-132276190D01*
X154466666Y-132200000D01*
X154542857Y-132161904D01*
X154695238Y-132161904D01*
X154771428Y-132200000D01*
X154847619Y-132276190D01*
X154885714Y-132428571D01*
X154885714Y-132695238D01*
X154847619Y-132847619D01*
X154771428Y-132923809D01*
X154695238Y-132961904D01*
X154542857Y-132961904D01*
X155190476Y-132238095D02*
X155228571Y-132200000D01*
X155304761Y-132161904D01*
X155495238Y-132161904D01*
X155571428Y-132200000D01*
X155609523Y-132238095D01*
X155647619Y-132314285D01*
X155647619Y-132390476D01*
X155609523Y-132504761D01*
X155152380Y-132961904D01*
X155647619Y-132961904D01*
%TO.C,Q1*%
X162123809Y-133138095D02*
X162047619Y-133100000D01*
X161971428Y-133023809D01*
X161857142Y-132909523D01*
X161780952Y-132871428D01*
X161704761Y-132871428D01*
X161742857Y-133061904D02*
X161666666Y-133023809D01*
X161590476Y-132947619D01*
X161552380Y-132795238D01*
X161552380Y-132528571D01*
X161590476Y-132376190D01*
X161666666Y-132300000D01*
X161742857Y-132261904D01*
X161895238Y-132261904D01*
X161971428Y-132300000D01*
X162047619Y-132376190D01*
X162085714Y-132528571D01*
X162085714Y-132795238D01*
X162047619Y-132947619D01*
X161971428Y-133023809D01*
X161895238Y-133061904D01*
X161742857Y-133061904D01*
X162847619Y-133061904D02*
X162390476Y-133061904D01*
X162619047Y-133061904D02*
X162619047Y-132261904D01*
X162542857Y-132376190D01*
X162466666Y-132452380D01*
X162390476Y-132490476D01*
%TD*%
M02*
