%TF.GenerationSoftware,KiCad,Pcbnew,(5.1.10)-1*%
%TF.CreationDate,2021-11-13T18:31:53+01:00*%
%TF.ProjectId,HeCo,4865436f-2e6b-4696-9361-645f70636258,rev?*%
%TF.SameCoordinates,Original*%
%TF.FileFunction,Soldermask,Top*%
%TF.FilePolarity,Negative*%
%FSLAX46Y46*%
G04 Gerber Fmt 4.6, Leading zero omitted, Abs format (unit mm)*
G04 Created by KiCad (PCBNEW (5.1.10)-1) date 2021-11-13 18:31:53*
%MOMM*%
%LPD*%
G01*
G04 APERTURE LIST*
%ADD10R,1.900000X1.000000*%
%ADD11R,1.900000X1.800000*%
%ADD12R,1.300000X1.650000*%
%ADD13R,1.550000X1.425000*%
%ADD14R,1.380000X0.450000*%
%ADD15O,1.700000X1.700000*%
%ADD16R,1.700000X1.700000*%
%ADD17R,0.800000X0.900000*%
%ADD18O,3.600000X2.080000*%
%ADD19R,0.900000X0.800000*%
%ADD20R,0.813000X0.500000*%
%ADD21R,0.449200X1.117800*%
%ADD22R,1.400000X1.200000*%
%ADD23R,1.500000X2.000000*%
%ADD24R,3.800000X2.000000*%
%ADD25R,5.800000X6.400000*%
%ADD26R,1.200000X2.200000*%
%ADD27R,6.400000X5.800000*%
%ADD28R,2.200000X1.200000*%
G04 APERTURE END LIST*
D10*
%TO.C,J3*%
X101467000Y-135962000D03*
D11*
X101467000Y-133262000D03*
D12*
X101467000Y-137787000D03*
X101467000Y-131037000D03*
D13*
X104042000Y-136899500D03*
X104042000Y-131924500D03*
D14*
X104127000Y-135712000D03*
X104127000Y-135062000D03*
X104127000Y-134412000D03*
X104127000Y-133762000D03*
X104127000Y-133112000D03*
%TD*%
D15*
%TO.C,J14*%
X110160000Y-101900000D03*
X112700000Y-101900000D03*
X115240000Y-101900000D03*
X117780000Y-101900000D03*
D16*
X120320000Y-101900000D03*
%TD*%
D17*
%TO.C,D2*%
X109800000Y-110200000D03*
X110750000Y-112200000D03*
X108850000Y-112200000D03*
%TD*%
D15*
%TO.C,J10*%
X167310000Y-108250000D03*
X164770000Y-108250000D03*
X162230000Y-108250000D03*
X159690000Y-108250000D03*
X157150000Y-108250000D03*
X154610000Y-108250000D03*
X152070000Y-108250000D03*
D16*
X149530000Y-108250000D03*
%TD*%
%TO.C,U3*%
G36*
G01*
X120145500Y-117873500D02*
X120145500Y-120785500D01*
G75*
G02*
X120001500Y-120929500I-144000J0D01*
G01*
X117089500Y-120929500D01*
G75*
G02*
X116945500Y-120785500I0J144000D01*
G01*
X116945500Y-117873500D01*
G75*
G02*
X117089500Y-117729500I144000J0D01*
G01*
X120001500Y-117729500D01*
G75*
G02*
X120145500Y-117873500I0J-144000D01*
G01*
G37*
G36*
G01*
X122420500Y-121879500D02*
X122420500Y-121979500D01*
G75*
G02*
X122370500Y-122029500I-50000J0D01*
G01*
X121595500Y-122029500D01*
G75*
G02*
X121545500Y-121979500I0J50000D01*
G01*
X121545500Y-121879500D01*
G75*
G02*
X121595500Y-121829500I50000J0D01*
G01*
X122370500Y-121829500D01*
G75*
G02*
X122420500Y-121879500I0J-50000D01*
G01*
G37*
G36*
G01*
X122420500Y-121479500D02*
X122420500Y-121579500D01*
G75*
G02*
X122370500Y-121629500I-50000J0D01*
G01*
X121595500Y-121629500D01*
G75*
G02*
X121545500Y-121579500I0J50000D01*
G01*
X121545500Y-121479500D01*
G75*
G02*
X121595500Y-121429500I50000J0D01*
G01*
X122370500Y-121429500D01*
G75*
G02*
X122420500Y-121479500I0J-50000D01*
G01*
G37*
G36*
G01*
X122420500Y-121079500D02*
X122420500Y-121179500D01*
G75*
G02*
X122370500Y-121229500I-50000J0D01*
G01*
X121595500Y-121229500D01*
G75*
G02*
X121545500Y-121179500I0J50000D01*
G01*
X121545500Y-121079500D01*
G75*
G02*
X121595500Y-121029500I50000J0D01*
G01*
X122370500Y-121029500D01*
G75*
G02*
X122420500Y-121079500I0J-50000D01*
G01*
G37*
G36*
G01*
X122420500Y-120679500D02*
X122420500Y-120779500D01*
G75*
G02*
X122370500Y-120829500I-50000J0D01*
G01*
X121595500Y-120829500D01*
G75*
G02*
X121545500Y-120779500I0J50000D01*
G01*
X121545500Y-120679500D01*
G75*
G02*
X121595500Y-120629500I50000J0D01*
G01*
X122370500Y-120629500D01*
G75*
G02*
X122420500Y-120679500I0J-50000D01*
G01*
G37*
G36*
G01*
X122420500Y-120279500D02*
X122420500Y-120379500D01*
G75*
G02*
X122370500Y-120429500I-50000J0D01*
G01*
X121595500Y-120429500D01*
G75*
G02*
X121545500Y-120379500I0J50000D01*
G01*
X121545500Y-120279500D01*
G75*
G02*
X121595500Y-120229500I50000J0D01*
G01*
X122370500Y-120229500D01*
G75*
G02*
X122420500Y-120279500I0J-50000D01*
G01*
G37*
G36*
G01*
X122420500Y-119879500D02*
X122420500Y-119979500D01*
G75*
G02*
X122370500Y-120029500I-50000J0D01*
G01*
X121595500Y-120029500D01*
G75*
G02*
X121545500Y-119979500I0J50000D01*
G01*
X121545500Y-119879500D01*
G75*
G02*
X121595500Y-119829500I50000J0D01*
G01*
X122370500Y-119829500D01*
G75*
G02*
X122420500Y-119879500I0J-50000D01*
G01*
G37*
G36*
G01*
X122420500Y-119479500D02*
X122420500Y-119579500D01*
G75*
G02*
X122370500Y-119629500I-50000J0D01*
G01*
X121595500Y-119629500D01*
G75*
G02*
X121545500Y-119579500I0J50000D01*
G01*
X121545500Y-119479500D01*
G75*
G02*
X121595500Y-119429500I50000J0D01*
G01*
X122370500Y-119429500D01*
G75*
G02*
X122420500Y-119479500I0J-50000D01*
G01*
G37*
G36*
G01*
X122420500Y-119079500D02*
X122420500Y-119179500D01*
G75*
G02*
X122370500Y-119229500I-50000J0D01*
G01*
X121595500Y-119229500D01*
G75*
G02*
X121545500Y-119179500I0J50000D01*
G01*
X121545500Y-119079500D01*
G75*
G02*
X121595500Y-119029500I50000J0D01*
G01*
X122370500Y-119029500D01*
G75*
G02*
X122420500Y-119079500I0J-50000D01*
G01*
G37*
G36*
G01*
X122420500Y-118679500D02*
X122420500Y-118779500D01*
G75*
G02*
X122370500Y-118829500I-50000J0D01*
G01*
X121595500Y-118829500D01*
G75*
G02*
X121545500Y-118779500I0J50000D01*
G01*
X121545500Y-118679500D01*
G75*
G02*
X121595500Y-118629500I50000J0D01*
G01*
X122370500Y-118629500D01*
G75*
G02*
X122420500Y-118679500I0J-50000D01*
G01*
G37*
G36*
G01*
X122420500Y-118279500D02*
X122420500Y-118379500D01*
G75*
G02*
X122370500Y-118429500I-50000J0D01*
G01*
X121595500Y-118429500D01*
G75*
G02*
X121545500Y-118379500I0J50000D01*
G01*
X121545500Y-118279500D01*
G75*
G02*
X121595500Y-118229500I50000J0D01*
G01*
X122370500Y-118229500D01*
G75*
G02*
X122420500Y-118279500I0J-50000D01*
G01*
G37*
G36*
G01*
X122420500Y-117879500D02*
X122420500Y-117979500D01*
G75*
G02*
X122370500Y-118029500I-50000J0D01*
G01*
X121595500Y-118029500D01*
G75*
G02*
X121545500Y-117979500I0J50000D01*
G01*
X121545500Y-117879500D01*
G75*
G02*
X121595500Y-117829500I50000J0D01*
G01*
X122370500Y-117829500D01*
G75*
G02*
X122420500Y-117879500I0J-50000D01*
G01*
G37*
G36*
G01*
X122420500Y-117479500D02*
X122420500Y-117579500D01*
G75*
G02*
X122370500Y-117629500I-50000J0D01*
G01*
X121595500Y-117629500D01*
G75*
G02*
X121545500Y-117579500I0J50000D01*
G01*
X121545500Y-117479500D01*
G75*
G02*
X121595500Y-117429500I50000J0D01*
G01*
X122370500Y-117429500D01*
G75*
G02*
X122420500Y-117479500I0J-50000D01*
G01*
G37*
G36*
G01*
X122420500Y-117079500D02*
X122420500Y-117179500D01*
G75*
G02*
X122370500Y-117229500I-50000J0D01*
G01*
X121595500Y-117229500D01*
G75*
G02*
X121545500Y-117179500I0J50000D01*
G01*
X121545500Y-117079500D01*
G75*
G02*
X121595500Y-117029500I50000J0D01*
G01*
X122370500Y-117029500D01*
G75*
G02*
X122420500Y-117079500I0J-50000D01*
G01*
G37*
G36*
G01*
X122420500Y-116679500D02*
X122420500Y-116779500D01*
G75*
G02*
X122370500Y-116829500I-50000J0D01*
G01*
X121595500Y-116829500D01*
G75*
G02*
X121545500Y-116779500I0J50000D01*
G01*
X121545500Y-116679500D01*
G75*
G02*
X121595500Y-116629500I50000J0D01*
G01*
X122370500Y-116629500D01*
G75*
G02*
X122420500Y-116679500I0J-50000D01*
G01*
G37*
G36*
G01*
X121245500Y-115504500D02*
X121245500Y-116279500D01*
G75*
G02*
X121195500Y-116329500I-50000J0D01*
G01*
X121095500Y-116329500D01*
G75*
G02*
X121045500Y-116279500I0J50000D01*
G01*
X121045500Y-115504500D01*
G75*
G02*
X121095500Y-115454500I50000J0D01*
G01*
X121195500Y-115454500D01*
G75*
G02*
X121245500Y-115504500I0J-50000D01*
G01*
G37*
G36*
G01*
X120845500Y-115504500D02*
X120845500Y-116279500D01*
G75*
G02*
X120795500Y-116329500I-50000J0D01*
G01*
X120695500Y-116329500D01*
G75*
G02*
X120645500Y-116279500I0J50000D01*
G01*
X120645500Y-115504500D01*
G75*
G02*
X120695500Y-115454500I50000J0D01*
G01*
X120795500Y-115454500D01*
G75*
G02*
X120845500Y-115504500I0J-50000D01*
G01*
G37*
G36*
G01*
X120445500Y-115504500D02*
X120445500Y-116279500D01*
G75*
G02*
X120395500Y-116329500I-50000J0D01*
G01*
X120295500Y-116329500D01*
G75*
G02*
X120245500Y-116279500I0J50000D01*
G01*
X120245500Y-115504500D01*
G75*
G02*
X120295500Y-115454500I50000J0D01*
G01*
X120395500Y-115454500D01*
G75*
G02*
X120445500Y-115504500I0J-50000D01*
G01*
G37*
G36*
G01*
X120045500Y-115504500D02*
X120045500Y-116279500D01*
G75*
G02*
X119995500Y-116329500I-50000J0D01*
G01*
X119895500Y-116329500D01*
G75*
G02*
X119845500Y-116279500I0J50000D01*
G01*
X119845500Y-115504500D01*
G75*
G02*
X119895500Y-115454500I50000J0D01*
G01*
X119995500Y-115454500D01*
G75*
G02*
X120045500Y-115504500I0J-50000D01*
G01*
G37*
G36*
G01*
X119645500Y-115504500D02*
X119645500Y-116279500D01*
G75*
G02*
X119595500Y-116329500I-50000J0D01*
G01*
X119495500Y-116329500D01*
G75*
G02*
X119445500Y-116279500I0J50000D01*
G01*
X119445500Y-115504500D01*
G75*
G02*
X119495500Y-115454500I50000J0D01*
G01*
X119595500Y-115454500D01*
G75*
G02*
X119645500Y-115504500I0J-50000D01*
G01*
G37*
G36*
G01*
X119245500Y-115504500D02*
X119245500Y-116279500D01*
G75*
G02*
X119195500Y-116329500I-50000J0D01*
G01*
X119095500Y-116329500D01*
G75*
G02*
X119045500Y-116279500I0J50000D01*
G01*
X119045500Y-115504500D01*
G75*
G02*
X119095500Y-115454500I50000J0D01*
G01*
X119195500Y-115454500D01*
G75*
G02*
X119245500Y-115504500I0J-50000D01*
G01*
G37*
G36*
G01*
X118845500Y-115504500D02*
X118845500Y-116279500D01*
G75*
G02*
X118795500Y-116329500I-50000J0D01*
G01*
X118695500Y-116329500D01*
G75*
G02*
X118645500Y-116279500I0J50000D01*
G01*
X118645500Y-115504500D01*
G75*
G02*
X118695500Y-115454500I50000J0D01*
G01*
X118795500Y-115454500D01*
G75*
G02*
X118845500Y-115504500I0J-50000D01*
G01*
G37*
G36*
G01*
X118445500Y-115504500D02*
X118445500Y-116279500D01*
G75*
G02*
X118395500Y-116329500I-50000J0D01*
G01*
X118295500Y-116329500D01*
G75*
G02*
X118245500Y-116279500I0J50000D01*
G01*
X118245500Y-115504500D01*
G75*
G02*
X118295500Y-115454500I50000J0D01*
G01*
X118395500Y-115454500D01*
G75*
G02*
X118445500Y-115504500I0J-50000D01*
G01*
G37*
G36*
G01*
X118045500Y-115504500D02*
X118045500Y-116279500D01*
G75*
G02*
X117995500Y-116329500I-50000J0D01*
G01*
X117895500Y-116329500D01*
G75*
G02*
X117845500Y-116279500I0J50000D01*
G01*
X117845500Y-115504500D01*
G75*
G02*
X117895500Y-115454500I50000J0D01*
G01*
X117995500Y-115454500D01*
G75*
G02*
X118045500Y-115504500I0J-50000D01*
G01*
G37*
G36*
G01*
X117645500Y-115504500D02*
X117645500Y-116279500D01*
G75*
G02*
X117595500Y-116329500I-50000J0D01*
G01*
X117495500Y-116329500D01*
G75*
G02*
X117445500Y-116279500I0J50000D01*
G01*
X117445500Y-115504500D01*
G75*
G02*
X117495500Y-115454500I50000J0D01*
G01*
X117595500Y-115454500D01*
G75*
G02*
X117645500Y-115504500I0J-50000D01*
G01*
G37*
G36*
G01*
X117245500Y-115504500D02*
X117245500Y-116279500D01*
G75*
G02*
X117195500Y-116329500I-50000J0D01*
G01*
X117095500Y-116329500D01*
G75*
G02*
X117045500Y-116279500I0J50000D01*
G01*
X117045500Y-115504500D01*
G75*
G02*
X117095500Y-115454500I50000J0D01*
G01*
X117195500Y-115454500D01*
G75*
G02*
X117245500Y-115504500I0J-50000D01*
G01*
G37*
G36*
G01*
X116845500Y-115504500D02*
X116845500Y-116279500D01*
G75*
G02*
X116795500Y-116329500I-50000J0D01*
G01*
X116695500Y-116329500D01*
G75*
G02*
X116645500Y-116279500I0J50000D01*
G01*
X116645500Y-115504500D01*
G75*
G02*
X116695500Y-115454500I50000J0D01*
G01*
X116795500Y-115454500D01*
G75*
G02*
X116845500Y-115504500I0J-50000D01*
G01*
G37*
G36*
G01*
X116445500Y-115504500D02*
X116445500Y-116279500D01*
G75*
G02*
X116395500Y-116329500I-50000J0D01*
G01*
X116295500Y-116329500D01*
G75*
G02*
X116245500Y-116279500I0J50000D01*
G01*
X116245500Y-115504500D01*
G75*
G02*
X116295500Y-115454500I50000J0D01*
G01*
X116395500Y-115454500D01*
G75*
G02*
X116445500Y-115504500I0J-50000D01*
G01*
G37*
G36*
G01*
X116045500Y-115504500D02*
X116045500Y-116279500D01*
G75*
G02*
X115995500Y-116329500I-50000J0D01*
G01*
X115895500Y-116329500D01*
G75*
G02*
X115845500Y-116279500I0J50000D01*
G01*
X115845500Y-115504500D01*
G75*
G02*
X115895500Y-115454500I50000J0D01*
G01*
X115995500Y-115454500D01*
G75*
G02*
X116045500Y-115504500I0J-50000D01*
G01*
G37*
G36*
G01*
X115545500Y-116679500D02*
X115545500Y-116779500D01*
G75*
G02*
X115495500Y-116829500I-50000J0D01*
G01*
X114720500Y-116829500D01*
G75*
G02*
X114670500Y-116779500I0J50000D01*
G01*
X114670500Y-116679500D01*
G75*
G02*
X114720500Y-116629500I50000J0D01*
G01*
X115495500Y-116629500D01*
G75*
G02*
X115545500Y-116679500I0J-50000D01*
G01*
G37*
G36*
G01*
X115545500Y-117079500D02*
X115545500Y-117179500D01*
G75*
G02*
X115495500Y-117229500I-50000J0D01*
G01*
X114720500Y-117229500D01*
G75*
G02*
X114670500Y-117179500I0J50000D01*
G01*
X114670500Y-117079500D01*
G75*
G02*
X114720500Y-117029500I50000J0D01*
G01*
X115495500Y-117029500D01*
G75*
G02*
X115545500Y-117079500I0J-50000D01*
G01*
G37*
G36*
G01*
X115545500Y-117479500D02*
X115545500Y-117579500D01*
G75*
G02*
X115495500Y-117629500I-50000J0D01*
G01*
X114720500Y-117629500D01*
G75*
G02*
X114670500Y-117579500I0J50000D01*
G01*
X114670500Y-117479500D01*
G75*
G02*
X114720500Y-117429500I50000J0D01*
G01*
X115495500Y-117429500D01*
G75*
G02*
X115545500Y-117479500I0J-50000D01*
G01*
G37*
G36*
G01*
X115545500Y-117879500D02*
X115545500Y-117979500D01*
G75*
G02*
X115495500Y-118029500I-50000J0D01*
G01*
X114720500Y-118029500D01*
G75*
G02*
X114670500Y-117979500I0J50000D01*
G01*
X114670500Y-117879500D01*
G75*
G02*
X114720500Y-117829500I50000J0D01*
G01*
X115495500Y-117829500D01*
G75*
G02*
X115545500Y-117879500I0J-50000D01*
G01*
G37*
G36*
G01*
X115545500Y-118279500D02*
X115545500Y-118379500D01*
G75*
G02*
X115495500Y-118429500I-50000J0D01*
G01*
X114720500Y-118429500D01*
G75*
G02*
X114670500Y-118379500I0J50000D01*
G01*
X114670500Y-118279500D01*
G75*
G02*
X114720500Y-118229500I50000J0D01*
G01*
X115495500Y-118229500D01*
G75*
G02*
X115545500Y-118279500I0J-50000D01*
G01*
G37*
G36*
G01*
X115545500Y-118679500D02*
X115545500Y-118779500D01*
G75*
G02*
X115495500Y-118829500I-50000J0D01*
G01*
X114720500Y-118829500D01*
G75*
G02*
X114670500Y-118779500I0J50000D01*
G01*
X114670500Y-118679500D01*
G75*
G02*
X114720500Y-118629500I50000J0D01*
G01*
X115495500Y-118629500D01*
G75*
G02*
X115545500Y-118679500I0J-50000D01*
G01*
G37*
G36*
G01*
X115545500Y-119079500D02*
X115545500Y-119179500D01*
G75*
G02*
X115495500Y-119229500I-50000J0D01*
G01*
X114720500Y-119229500D01*
G75*
G02*
X114670500Y-119179500I0J50000D01*
G01*
X114670500Y-119079500D01*
G75*
G02*
X114720500Y-119029500I50000J0D01*
G01*
X115495500Y-119029500D01*
G75*
G02*
X115545500Y-119079500I0J-50000D01*
G01*
G37*
G36*
G01*
X115545500Y-119479500D02*
X115545500Y-119579500D01*
G75*
G02*
X115495500Y-119629500I-50000J0D01*
G01*
X114720500Y-119629500D01*
G75*
G02*
X114670500Y-119579500I0J50000D01*
G01*
X114670500Y-119479500D01*
G75*
G02*
X114720500Y-119429500I50000J0D01*
G01*
X115495500Y-119429500D01*
G75*
G02*
X115545500Y-119479500I0J-50000D01*
G01*
G37*
G36*
G01*
X115545500Y-119879500D02*
X115545500Y-119979500D01*
G75*
G02*
X115495500Y-120029500I-50000J0D01*
G01*
X114720500Y-120029500D01*
G75*
G02*
X114670500Y-119979500I0J50000D01*
G01*
X114670500Y-119879500D01*
G75*
G02*
X114720500Y-119829500I50000J0D01*
G01*
X115495500Y-119829500D01*
G75*
G02*
X115545500Y-119879500I0J-50000D01*
G01*
G37*
G36*
G01*
X115545500Y-120279500D02*
X115545500Y-120379500D01*
G75*
G02*
X115495500Y-120429500I-50000J0D01*
G01*
X114720500Y-120429500D01*
G75*
G02*
X114670500Y-120379500I0J50000D01*
G01*
X114670500Y-120279500D01*
G75*
G02*
X114720500Y-120229500I50000J0D01*
G01*
X115495500Y-120229500D01*
G75*
G02*
X115545500Y-120279500I0J-50000D01*
G01*
G37*
G36*
G01*
X115545500Y-120679500D02*
X115545500Y-120779500D01*
G75*
G02*
X115495500Y-120829500I-50000J0D01*
G01*
X114720500Y-120829500D01*
G75*
G02*
X114670500Y-120779500I0J50000D01*
G01*
X114670500Y-120679500D01*
G75*
G02*
X114720500Y-120629500I50000J0D01*
G01*
X115495500Y-120629500D01*
G75*
G02*
X115545500Y-120679500I0J-50000D01*
G01*
G37*
G36*
G01*
X115545500Y-121079500D02*
X115545500Y-121179500D01*
G75*
G02*
X115495500Y-121229500I-50000J0D01*
G01*
X114720500Y-121229500D01*
G75*
G02*
X114670500Y-121179500I0J50000D01*
G01*
X114670500Y-121079500D01*
G75*
G02*
X114720500Y-121029500I50000J0D01*
G01*
X115495500Y-121029500D01*
G75*
G02*
X115545500Y-121079500I0J-50000D01*
G01*
G37*
G36*
G01*
X115545500Y-121479500D02*
X115545500Y-121579500D01*
G75*
G02*
X115495500Y-121629500I-50000J0D01*
G01*
X114720500Y-121629500D01*
G75*
G02*
X114670500Y-121579500I0J50000D01*
G01*
X114670500Y-121479500D01*
G75*
G02*
X114720500Y-121429500I50000J0D01*
G01*
X115495500Y-121429500D01*
G75*
G02*
X115545500Y-121479500I0J-50000D01*
G01*
G37*
G36*
G01*
X115545500Y-121879500D02*
X115545500Y-121979500D01*
G75*
G02*
X115495500Y-122029500I-50000J0D01*
G01*
X114720500Y-122029500D01*
G75*
G02*
X114670500Y-121979500I0J50000D01*
G01*
X114670500Y-121879500D01*
G75*
G02*
X114720500Y-121829500I50000J0D01*
G01*
X115495500Y-121829500D01*
G75*
G02*
X115545500Y-121879500I0J-50000D01*
G01*
G37*
G36*
G01*
X116045500Y-122379500D02*
X116045500Y-123154500D01*
G75*
G02*
X115995500Y-123204500I-50000J0D01*
G01*
X115895500Y-123204500D01*
G75*
G02*
X115845500Y-123154500I0J50000D01*
G01*
X115845500Y-122379500D01*
G75*
G02*
X115895500Y-122329500I50000J0D01*
G01*
X115995500Y-122329500D01*
G75*
G02*
X116045500Y-122379500I0J-50000D01*
G01*
G37*
G36*
G01*
X116445500Y-122379500D02*
X116445500Y-123154500D01*
G75*
G02*
X116395500Y-123204500I-50000J0D01*
G01*
X116295500Y-123204500D01*
G75*
G02*
X116245500Y-123154500I0J50000D01*
G01*
X116245500Y-122379500D01*
G75*
G02*
X116295500Y-122329500I50000J0D01*
G01*
X116395500Y-122329500D01*
G75*
G02*
X116445500Y-122379500I0J-50000D01*
G01*
G37*
G36*
G01*
X116845500Y-122379500D02*
X116845500Y-123154500D01*
G75*
G02*
X116795500Y-123204500I-50000J0D01*
G01*
X116695500Y-123204500D01*
G75*
G02*
X116645500Y-123154500I0J50000D01*
G01*
X116645500Y-122379500D01*
G75*
G02*
X116695500Y-122329500I50000J0D01*
G01*
X116795500Y-122329500D01*
G75*
G02*
X116845500Y-122379500I0J-50000D01*
G01*
G37*
G36*
G01*
X117245500Y-122379500D02*
X117245500Y-123154500D01*
G75*
G02*
X117195500Y-123204500I-50000J0D01*
G01*
X117095500Y-123204500D01*
G75*
G02*
X117045500Y-123154500I0J50000D01*
G01*
X117045500Y-122379500D01*
G75*
G02*
X117095500Y-122329500I50000J0D01*
G01*
X117195500Y-122329500D01*
G75*
G02*
X117245500Y-122379500I0J-50000D01*
G01*
G37*
G36*
G01*
X117645500Y-122379500D02*
X117645500Y-123154500D01*
G75*
G02*
X117595500Y-123204500I-50000J0D01*
G01*
X117495500Y-123204500D01*
G75*
G02*
X117445500Y-123154500I0J50000D01*
G01*
X117445500Y-122379500D01*
G75*
G02*
X117495500Y-122329500I50000J0D01*
G01*
X117595500Y-122329500D01*
G75*
G02*
X117645500Y-122379500I0J-50000D01*
G01*
G37*
G36*
G01*
X118045500Y-122379500D02*
X118045500Y-123154500D01*
G75*
G02*
X117995500Y-123204500I-50000J0D01*
G01*
X117895500Y-123204500D01*
G75*
G02*
X117845500Y-123154500I0J50000D01*
G01*
X117845500Y-122379500D01*
G75*
G02*
X117895500Y-122329500I50000J0D01*
G01*
X117995500Y-122329500D01*
G75*
G02*
X118045500Y-122379500I0J-50000D01*
G01*
G37*
G36*
G01*
X118445500Y-122379500D02*
X118445500Y-123154500D01*
G75*
G02*
X118395500Y-123204500I-50000J0D01*
G01*
X118295500Y-123204500D01*
G75*
G02*
X118245500Y-123154500I0J50000D01*
G01*
X118245500Y-122379500D01*
G75*
G02*
X118295500Y-122329500I50000J0D01*
G01*
X118395500Y-122329500D01*
G75*
G02*
X118445500Y-122379500I0J-50000D01*
G01*
G37*
G36*
G01*
X118845500Y-122379500D02*
X118845500Y-123154500D01*
G75*
G02*
X118795500Y-123204500I-50000J0D01*
G01*
X118695500Y-123204500D01*
G75*
G02*
X118645500Y-123154500I0J50000D01*
G01*
X118645500Y-122379500D01*
G75*
G02*
X118695500Y-122329500I50000J0D01*
G01*
X118795500Y-122329500D01*
G75*
G02*
X118845500Y-122379500I0J-50000D01*
G01*
G37*
G36*
G01*
X119245500Y-122379500D02*
X119245500Y-123154500D01*
G75*
G02*
X119195500Y-123204500I-50000J0D01*
G01*
X119095500Y-123204500D01*
G75*
G02*
X119045500Y-123154500I0J50000D01*
G01*
X119045500Y-122379500D01*
G75*
G02*
X119095500Y-122329500I50000J0D01*
G01*
X119195500Y-122329500D01*
G75*
G02*
X119245500Y-122379500I0J-50000D01*
G01*
G37*
G36*
G01*
X119645500Y-122379500D02*
X119645500Y-123154500D01*
G75*
G02*
X119595500Y-123204500I-50000J0D01*
G01*
X119495500Y-123204500D01*
G75*
G02*
X119445500Y-123154500I0J50000D01*
G01*
X119445500Y-122379500D01*
G75*
G02*
X119495500Y-122329500I50000J0D01*
G01*
X119595500Y-122329500D01*
G75*
G02*
X119645500Y-122379500I0J-50000D01*
G01*
G37*
G36*
G01*
X120045500Y-122379500D02*
X120045500Y-123154500D01*
G75*
G02*
X119995500Y-123204500I-50000J0D01*
G01*
X119895500Y-123204500D01*
G75*
G02*
X119845500Y-123154500I0J50000D01*
G01*
X119845500Y-122379500D01*
G75*
G02*
X119895500Y-122329500I50000J0D01*
G01*
X119995500Y-122329500D01*
G75*
G02*
X120045500Y-122379500I0J-50000D01*
G01*
G37*
G36*
G01*
X120445500Y-122379500D02*
X120445500Y-123154500D01*
G75*
G02*
X120395500Y-123204500I-50000J0D01*
G01*
X120295500Y-123204500D01*
G75*
G02*
X120245500Y-123154500I0J50000D01*
G01*
X120245500Y-122379500D01*
G75*
G02*
X120295500Y-122329500I50000J0D01*
G01*
X120395500Y-122329500D01*
G75*
G02*
X120445500Y-122379500I0J-50000D01*
G01*
G37*
G36*
G01*
X120845500Y-122379500D02*
X120845500Y-123154500D01*
G75*
G02*
X120795500Y-123204500I-50000J0D01*
G01*
X120695500Y-123204500D01*
G75*
G02*
X120645500Y-123154500I0J50000D01*
G01*
X120645500Y-122379500D01*
G75*
G02*
X120695500Y-122329500I50000J0D01*
G01*
X120795500Y-122329500D01*
G75*
G02*
X120845500Y-122379500I0J-50000D01*
G01*
G37*
G36*
G01*
X121245500Y-122379500D02*
X121245500Y-123154500D01*
G75*
G02*
X121195500Y-123204500I-50000J0D01*
G01*
X121095500Y-123204500D01*
G75*
G02*
X121045500Y-123154500I0J50000D01*
G01*
X121045500Y-122379500D01*
G75*
G02*
X121095500Y-122329500I50000J0D01*
G01*
X121195500Y-122329500D01*
G75*
G02*
X121245500Y-122379500I0J-50000D01*
G01*
G37*
%TD*%
D15*
%TO.C,J15*%
X125400000Y-106980000D03*
X125400000Y-104440000D03*
D16*
X125400000Y-101900000D03*
%TD*%
%TO.C,C15*%
G36*
G01*
X124709000Y-123105000D02*
X124709000Y-122605000D01*
G75*
G02*
X124934000Y-122380000I225000J0D01*
G01*
X125384000Y-122380000D01*
G75*
G02*
X125609000Y-122605000I0J-225000D01*
G01*
X125609000Y-123105000D01*
G75*
G02*
X125384000Y-123330000I-225000J0D01*
G01*
X124934000Y-123330000D01*
G75*
G02*
X124709000Y-123105000I0J225000D01*
G01*
G37*
G36*
G01*
X123159000Y-123105000D02*
X123159000Y-122605000D01*
G75*
G02*
X123384000Y-122380000I225000J0D01*
G01*
X123834000Y-122380000D01*
G75*
G02*
X124059000Y-122605000I0J-225000D01*
G01*
X124059000Y-123105000D01*
G75*
G02*
X123834000Y-123330000I-225000J0D01*
G01*
X123384000Y-123330000D01*
G75*
G02*
X123159000Y-123105000I0J225000D01*
G01*
G37*
%TD*%
%TO.C,R15*%
G36*
G01*
X133842000Y-128765000D02*
X134392000Y-128765000D01*
G75*
G02*
X134592000Y-128965000I0J-200000D01*
G01*
X134592000Y-129365000D01*
G75*
G02*
X134392000Y-129565000I-200000J0D01*
G01*
X133842000Y-129565000D01*
G75*
G02*
X133642000Y-129365000I0J200000D01*
G01*
X133642000Y-128965000D01*
G75*
G02*
X133842000Y-128765000I200000J0D01*
G01*
G37*
G36*
G01*
X133842000Y-127115000D02*
X134392000Y-127115000D01*
G75*
G02*
X134592000Y-127315000I0J-200000D01*
G01*
X134592000Y-127715000D01*
G75*
G02*
X134392000Y-127915000I-200000J0D01*
G01*
X133842000Y-127915000D01*
G75*
G02*
X133642000Y-127715000I0J200000D01*
G01*
X133642000Y-127315000D01*
G75*
G02*
X133842000Y-127115000I200000J0D01*
G01*
G37*
%TD*%
%TO.C,R18*%
G36*
G01*
X133842000Y-132321000D02*
X134392000Y-132321000D01*
G75*
G02*
X134592000Y-132521000I0J-200000D01*
G01*
X134592000Y-132921000D01*
G75*
G02*
X134392000Y-133121000I-200000J0D01*
G01*
X133842000Y-133121000D01*
G75*
G02*
X133642000Y-132921000I0J200000D01*
G01*
X133642000Y-132521000D01*
G75*
G02*
X133842000Y-132321000I200000J0D01*
G01*
G37*
G36*
G01*
X133842000Y-130671000D02*
X134392000Y-130671000D01*
G75*
G02*
X134592000Y-130871000I0J-200000D01*
G01*
X134592000Y-131271000D01*
G75*
G02*
X134392000Y-131471000I-200000J0D01*
G01*
X133842000Y-131471000D01*
G75*
G02*
X133642000Y-131271000I0J200000D01*
G01*
X133642000Y-130871000D01*
G75*
G02*
X133842000Y-130671000I200000J0D01*
G01*
G37*
%TD*%
D17*
%TO.C,D15*%
X131069000Y-132642000D03*
X130119000Y-130642000D03*
X132019000Y-130642000D03*
%TD*%
%TO.C,D14*%
X131069000Y-129086000D03*
X130119000Y-127086000D03*
X132019000Y-127086000D03*
%TD*%
D15*
%TO.C,J5*%
X107620000Y-137968000D03*
X107620000Y-135428000D03*
X110160000Y-137968000D03*
X110160000Y-135428000D03*
X112700000Y-137968000D03*
X112700000Y-135428000D03*
X115240000Y-137968000D03*
D16*
X115240000Y-135428000D03*
%TD*%
D15*
%TO.C,J13*%
X153340000Y-101900000D03*
X153340000Y-104440000D03*
X150800000Y-101900000D03*
X150800000Y-104440000D03*
X148260000Y-101900000D03*
X148260000Y-104440000D03*
X145720000Y-101900000D03*
D16*
X145720000Y-104440000D03*
%TD*%
%TO.C,C19*%
G36*
G01*
X106421000Y-113834000D02*
X106421000Y-113334000D01*
G75*
G02*
X106646000Y-113109000I225000J0D01*
G01*
X107096000Y-113109000D01*
G75*
G02*
X107321000Y-113334000I0J-225000D01*
G01*
X107321000Y-113834000D01*
G75*
G02*
X107096000Y-114059000I-225000J0D01*
G01*
X106646000Y-114059000D01*
G75*
G02*
X106421000Y-113834000I0J225000D01*
G01*
G37*
G36*
G01*
X104871000Y-113834000D02*
X104871000Y-113334000D01*
G75*
G02*
X105096000Y-113109000I225000J0D01*
G01*
X105546000Y-113109000D01*
G75*
G02*
X105771000Y-113334000I0J-225000D01*
G01*
X105771000Y-113834000D01*
G75*
G02*
X105546000Y-114059000I-225000J0D01*
G01*
X105096000Y-114059000D01*
G75*
G02*
X104871000Y-113834000I0J225000D01*
G01*
G37*
%TD*%
%TO.C,C1*%
G36*
G01*
X118850000Y-128245000D02*
X118350000Y-128245000D01*
G75*
G02*
X118125000Y-128020000I0J225000D01*
G01*
X118125000Y-127570000D01*
G75*
G02*
X118350000Y-127345000I225000J0D01*
G01*
X118850000Y-127345000D01*
G75*
G02*
X119075000Y-127570000I0J-225000D01*
G01*
X119075000Y-128020000D01*
G75*
G02*
X118850000Y-128245000I-225000J0D01*
G01*
G37*
G36*
G01*
X118850000Y-129795000D02*
X118350000Y-129795000D01*
G75*
G02*
X118125000Y-129570000I0J225000D01*
G01*
X118125000Y-129120000D01*
G75*
G02*
X118350000Y-128895000I225000J0D01*
G01*
X118850000Y-128895000D01*
G75*
G02*
X119075000Y-129120000I0J-225000D01*
G01*
X119075000Y-129570000D01*
G75*
G02*
X118850000Y-129795000I-225000J0D01*
G01*
G37*
%TD*%
D15*
%TO.C,J6*%
X149530000Y-115870000D03*
D16*
X149530000Y-118410000D03*
%TD*%
%TO.C,C6*%
G36*
G01*
X127428000Y-110973000D02*
X126928000Y-110973000D01*
G75*
G02*
X126703000Y-110748000I0J225000D01*
G01*
X126703000Y-110298000D01*
G75*
G02*
X126928000Y-110073000I225000J0D01*
G01*
X127428000Y-110073000D01*
G75*
G02*
X127653000Y-110298000I0J-225000D01*
G01*
X127653000Y-110748000D01*
G75*
G02*
X127428000Y-110973000I-225000J0D01*
G01*
G37*
G36*
G01*
X127428000Y-112523000D02*
X126928000Y-112523000D01*
G75*
G02*
X126703000Y-112298000I0J225000D01*
G01*
X126703000Y-111848000D01*
G75*
G02*
X126928000Y-111623000I225000J0D01*
G01*
X127428000Y-111623000D01*
G75*
G02*
X127653000Y-111848000I0J-225000D01*
G01*
X127653000Y-112298000D01*
G75*
G02*
X127428000Y-112523000I-225000J0D01*
G01*
G37*
%TD*%
%TO.C,D13*%
G36*
G01*
X147656000Y-136187750D02*
X147656000Y-136700250D01*
G75*
G02*
X147437250Y-136919000I-218750J0D01*
G01*
X146999750Y-136919000D01*
G75*
G02*
X146781000Y-136700250I0J218750D01*
G01*
X146781000Y-136187750D01*
G75*
G02*
X146999750Y-135969000I218750J0D01*
G01*
X147437250Y-135969000D01*
G75*
G02*
X147656000Y-136187750I0J-218750D01*
G01*
G37*
G36*
G01*
X149231000Y-136187750D02*
X149231000Y-136700250D01*
G75*
G02*
X149012250Y-136919000I-218750J0D01*
G01*
X148574750Y-136919000D01*
G75*
G02*
X148356000Y-136700250I0J218750D01*
G01*
X148356000Y-136187750D01*
G75*
G02*
X148574750Y-135969000I218750J0D01*
G01*
X149012250Y-135969000D01*
G75*
G02*
X149231000Y-136187750I0J-218750D01*
G01*
G37*
%TD*%
%TO.C,D12*%
G36*
G01*
X147656000Y-132631750D02*
X147656000Y-133144250D01*
G75*
G02*
X147437250Y-133363000I-218750J0D01*
G01*
X146999750Y-133363000D01*
G75*
G02*
X146781000Y-133144250I0J218750D01*
G01*
X146781000Y-132631750D01*
G75*
G02*
X146999750Y-132413000I218750J0D01*
G01*
X147437250Y-132413000D01*
G75*
G02*
X147656000Y-132631750I0J-218750D01*
G01*
G37*
G36*
G01*
X149231000Y-132631750D02*
X149231000Y-133144250D01*
G75*
G02*
X149012250Y-133363000I-218750J0D01*
G01*
X148574750Y-133363000D01*
G75*
G02*
X148356000Y-133144250I0J218750D01*
G01*
X148356000Y-132631750D01*
G75*
G02*
X148574750Y-132413000I218750J0D01*
G01*
X149012250Y-132413000D01*
G75*
G02*
X149231000Y-132631750I0J-218750D01*
G01*
G37*
%TD*%
%TO.C,D11*%
G36*
G01*
X156050000Y-123543750D02*
X156050000Y-124056250D01*
G75*
G02*
X155831250Y-124275000I-218750J0D01*
G01*
X155393750Y-124275000D01*
G75*
G02*
X155175000Y-124056250I0J218750D01*
G01*
X155175000Y-123543750D01*
G75*
G02*
X155393750Y-123325000I218750J0D01*
G01*
X155831250Y-123325000D01*
G75*
G02*
X156050000Y-123543750I0J-218750D01*
G01*
G37*
G36*
G01*
X157625000Y-123543750D02*
X157625000Y-124056250D01*
G75*
G02*
X157406250Y-124275000I-218750J0D01*
G01*
X156968750Y-124275000D01*
G75*
G02*
X156750000Y-124056250I0J218750D01*
G01*
X156750000Y-123543750D01*
G75*
G02*
X156968750Y-123325000I218750J0D01*
G01*
X157406250Y-123325000D01*
G75*
G02*
X157625000Y-123543750I0J-218750D01*
G01*
G37*
%TD*%
%TO.C,D10*%
G36*
G01*
X166450000Y-123543750D02*
X166450000Y-124056250D01*
G75*
G02*
X166231250Y-124275000I-218750J0D01*
G01*
X165793750Y-124275000D01*
G75*
G02*
X165575000Y-124056250I0J218750D01*
G01*
X165575000Y-123543750D01*
G75*
G02*
X165793750Y-123325000I218750J0D01*
G01*
X166231250Y-123325000D01*
G75*
G02*
X166450000Y-123543750I0J-218750D01*
G01*
G37*
G36*
G01*
X168025000Y-123543750D02*
X168025000Y-124056250D01*
G75*
G02*
X167806250Y-124275000I-218750J0D01*
G01*
X167368750Y-124275000D01*
G75*
G02*
X167150000Y-124056250I0J218750D01*
G01*
X167150000Y-123543750D01*
G75*
G02*
X167368750Y-123325000I218750J0D01*
G01*
X167806250Y-123325000D01*
G75*
G02*
X168025000Y-123543750I0J-218750D01*
G01*
G37*
%TD*%
%TO.C,R5*%
G36*
G01*
X127583000Y-137035000D02*
X127033000Y-137035000D01*
G75*
G02*
X126833000Y-136835000I0J200000D01*
G01*
X126833000Y-136435000D01*
G75*
G02*
X127033000Y-136235000I200000J0D01*
G01*
X127583000Y-136235000D01*
G75*
G02*
X127783000Y-136435000I0J-200000D01*
G01*
X127783000Y-136835000D01*
G75*
G02*
X127583000Y-137035000I-200000J0D01*
G01*
G37*
G36*
G01*
X127583000Y-138685000D02*
X127033000Y-138685000D01*
G75*
G02*
X126833000Y-138485000I0J200000D01*
G01*
X126833000Y-138085000D01*
G75*
G02*
X127033000Y-137885000I200000J0D01*
G01*
X127583000Y-137885000D01*
G75*
G02*
X127783000Y-138085000I0J-200000D01*
G01*
X127783000Y-138485000D01*
G75*
G02*
X127583000Y-138685000I-200000J0D01*
G01*
G37*
%TD*%
%TO.C,D1*%
G36*
G01*
X128651750Y-137810000D02*
X129164250Y-137810000D01*
G75*
G02*
X129383000Y-138028750I0J-218750D01*
G01*
X129383000Y-138466250D01*
G75*
G02*
X129164250Y-138685000I-218750J0D01*
G01*
X128651750Y-138685000D01*
G75*
G02*
X128433000Y-138466250I0J218750D01*
G01*
X128433000Y-138028750D01*
G75*
G02*
X128651750Y-137810000I218750J0D01*
G01*
G37*
G36*
G01*
X128651750Y-136235000D02*
X129164250Y-136235000D01*
G75*
G02*
X129383000Y-136453750I0J-218750D01*
G01*
X129383000Y-136891250D01*
G75*
G02*
X129164250Y-137110000I-218750J0D01*
G01*
X128651750Y-137110000D01*
G75*
G02*
X128433000Y-136891250I0J218750D01*
G01*
X128433000Y-136453750D01*
G75*
G02*
X128651750Y-136235000I218750J0D01*
G01*
G37*
%TD*%
D18*
%TO.C,J11*%
X105842000Y-119680000D03*
G36*
G01*
X107392003Y-125800000D02*
X104291997Y-125800000D01*
G75*
G02*
X104042000Y-125550003I0J249997D01*
G01*
X104042000Y-123969997D01*
G75*
G02*
X104291997Y-123720000I249997J0D01*
G01*
X107392003Y-123720000D01*
G75*
G02*
X107642000Y-123969997I0J-249997D01*
G01*
X107642000Y-125550003D01*
G75*
G02*
X107392003Y-125800000I-249997J0D01*
G01*
G37*
%TD*%
D17*
%TO.C,D3*%
X113450000Y-110200000D03*
X114400000Y-112200000D03*
X112500000Y-112200000D03*
%TD*%
%TO.C,D9*%
X140848000Y-132642000D03*
X139898000Y-130642000D03*
X141798000Y-130642000D03*
%TD*%
%TO.C,D8*%
X140848000Y-129086000D03*
X139898000Y-127086000D03*
X141798000Y-127086000D03*
%TD*%
D19*
%TO.C,D7*%
X136828000Y-102396000D03*
X138828000Y-101446000D03*
X138828000Y-103346000D03*
%TD*%
%TO.C,D6*%
X140386000Y-104694000D03*
X142386000Y-103744000D03*
X142386000Y-105644000D03*
%TD*%
%TO.C,D5*%
X136846000Y-106980000D03*
X138846000Y-106030000D03*
X138846000Y-107930000D03*
%TD*%
%TO.C,D4*%
X140386000Y-109266000D03*
X142386000Y-108316000D03*
X142386000Y-110216000D03*
%TD*%
%TO.C,R23*%
G36*
G01*
X133375000Y-112925000D02*
X133375000Y-113475000D01*
G75*
G02*
X133175000Y-113675000I-200000J0D01*
G01*
X132775000Y-113675000D01*
G75*
G02*
X132575000Y-113475000I0J200000D01*
G01*
X132575000Y-112925000D01*
G75*
G02*
X132775000Y-112725000I200000J0D01*
G01*
X133175000Y-112725000D01*
G75*
G02*
X133375000Y-112925000I0J-200000D01*
G01*
G37*
G36*
G01*
X135025000Y-112925000D02*
X135025000Y-113475000D01*
G75*
G02*
X134825000Y-113675000I-200000J0D01*
G01*
X134425000Y-113675000D01*
G75*
G02*
X134225000Y-113475000I0J200000D01*
G01*
X134225000Y-112925000D01*
G75*
G02*
X134425000Y-112725000I200000J0D01*
G01*
X134825000Y-112725000D01*
G75*
G02*
X135025000Y-112925000I0J-200000D01*
G01*
G37*
%TD*%
%TO.C,R22*%
G36*
G01*
X140975000Y-112925000D02*
X140975000Y-113475000D01*
G75*
G02*
X140775000Y-113675000I-200000J0D01*
G01*
X140375000Y-113675000D01*
G75*
G02*
X140175000Y-113475000I0J200000D01*
G01*
X140175000Y-112925000D01*
G75*
G02*
X140375000Y-112725000I200000J0D01*
G01*
X140775000Y-112725000D01*
G75*
G02*
X140975000Y-112925000I0J-200000D01*
G01*
G37*
G36*
G01*
X142625000Y-112925000D02*
X142625000Y-113475000D01*
G75*
G02*
X142425000Y-113675000I-200000J0D01*
G01*
X142025000Y-113675000D01*
G75*
G02*
X141825000Y-113475000I0J200000D01*
G01*
X141825000Y-112925000D01*
G75*
G02*
X142025000Y-112725000I200000J0D01*
G01*
X142425000Y-112725000D01*
G75*
G02*
X142625000Y-112925000I0J-200000D01*
G01*
G37*
%TD*%
%TO.C,R21*%
G36*
G01*
X153625000Y-124075000D02*
X153625000Y-123525000D01*
G75*
G02*
X153825000Y-123325000I200000J0D01*
G01*
X154225000Y-123325000D01*
G75*
G02*
X154425000Y-123525000I0J-200000D01*
G01*
X154425000Y-124075000D01*
G75*
G02*
X154225000Y-124275000I-200000J0D01*
G01*
X153825000Y-124275000D01*
G75*
G02*
X153625000Y-124075000I0J200000D01*
G01*
G37*
G36*
G01*
X151975000Y-124075000D02*
X151975000Y-123525000D01*
G75*
G02*
X152175000Y-123325000I200000J0D01*
G01*
X152575000Y-123325000D01*
G75*
G02*
X152775000Y-123525000I0J-200000D01*
G01*
X152775000Y-124075000D01*
G75*
G02*
X152575000Y-124275000I-200000J0D01*
G01*
X152175000Y-124275000D01*
G75*
G02*
X151975000Y-124075000I0J200000D01*
G01*
G37*
%TD*%
%TO.C,R20*%
G36*
G01*
X164025000Y-124075000D02*
X164025000Y-123525000D01*
G75*
G02*
X164225000Y-123325000I200000J0D01*
G01*
X164625000Y-123325000D01*
G75*
G02*
X164825000Y-123525000I0J-200000D01*
G01*
X164825000Y-124075000D01*
G75*
G02*
X164625000Y-124275000I-200000J0D01*
G01*
X164225000Y-124275000D01*
G75*
G02*
X164025000Y-124075000I0J200000D01*
G01*
G37*
G36*
G01*
X162375000Y-124075000D02*
X162375000Y-123525000D01*
G75*
G02*
X162575000Y-123325000I200000J0D01*
G01*
X162975000Y-123325000D01*
G75*
G02*
X163175000Y-123525000I0J-200000D01*
G01*
X163175000Y-124075000D01*
G75*
G02*
X162975000Y-124275000I-200000J0D01*
G01*
X162575000Y-124275000D01*
G75*
G02*
X162375000Y-124075000I0J200000D01*
G01*
G37*
%TD*%
%TO.C,R19*%
G36*
G01*
X149575000Y-123525000D02*
X149575000Y-124075000D01*
G75*
G02*
X149375000Y-124275000I-200000J0D01*
G01*
X148975000Y-124275000D01*
G75*
G02*
X148775000Y-124075000I0J200000D01*
G01*
X148775000Y-123525000D01*
G75*
G02*
X148975000Y-123325000I200000J0D01*
G01*
X149375000Y-123325000D01*
G75*
G02*
X149575000Y-123525000I0J-200000D01*
G01*
G37*
G36*
G01*
X151225000Y-123525000D02*
X151225000Y-124075000D01*
G75*
G02*
X151025000Y-124275000I-200000J0D01*
G01*
X150625000Y-124275000D01*
G75*
G02*
X150425000Y-124075000I0J200000D01*
G01*
X150425000Y-123525000D01*
G75*
G02*
X150625000Y-123325000I200000J0D01*
G01*
X151025000Y-123325000D01*
G75*
G02*
X151225000Y-123525000I0J-200000D01*
G01*
G37*
%TD*%
%TO.C,R17*%
G36*
G01*
X159975000Y-123525000D02*
X159975000Y-124075000D01*
G75*
G02*
X159775000Y-124275000I-200000J0D01*
G01*
X159375000Y-124275000D01*
G75*
G02*
X159175000Y-124075000I0J200000D01*
G01*
X159175000Y-123525000D01*
G75*
G02*
X159375000Y-123325000I200000J0D01*
G01*
X159775000Y-123325000D01*
G75*
G02*
X159975000Y-123525000I0J-200000D01*
G01*
G37*
G36*
G01*
X161625000Y-123525000D02*
X161625000Y-124075000D01*
G75*
G02*
X161425000Y-124275000I-200000J0D01*
G01*
X161025000Y-124275000D01*
G75*
G02*
X160825000Y-124075000I0J200000D01*
G01*
X160825000Y-123525000D01*
G75*
G02*
X161025000Y-123325000I200000J0D01*
G01*
X161425000Y-123325000D01*
G75*
G02*
X161625000Y-123525000I0J-200000D01*
G01*
G37*
%TD*%
%TO.C,R16*%
G36*
G01*
X145200000Y-113475000D02*
X145200000Y-112925000D01*
G75*
G02*
X145400000Y-112725000I200000J0D01*
G01*
X145800000Y-112725000D01*
G75*
G02*
X146000000Y-112925000I0J-200000D01*
G01*
X146000000Y-113475000D01*
G75*
G02*
X145800000Y-113675000I-200000J0D01*
G01*
X145400000Y-113675000D01*
G75*
G02*
X145200000Y-113475000I0J200000D01*
G01*
G37*
G36*
G01*
X143550000Y-113475000D02*
X143550000Y-112925000D01*
G75*
G02*
X143750000Y-112725000I200000J0D01*
G01*
X144150000Y-112725000D01*
G75*
G02*
X144350000Y-112925000I0J-200000D01*
G01*
X144350000Y-113475000D01*
G75*
G02*
X144150000Y-113675000I-200000J0D01*
G01*
X143750000Y-113675000D01*
G75*
G02*
X143550000Y-113475000I0J200000D01*
G01*
G37*
%TD*%
%TO.C,R14*%
G36*
G01*
X137625000Y-113475000D02*
X137625000Y-112925000D01*
G75*
G02*
X137825000Y-112725000I200000J0D01*
G01*
X138225000Y-112725000D01*
G75*
G02*
X138425000Y-112925000I0J-200000D01*
G01*
X138425000Y-113475000D01*
G75*
G02*
X138225000Y-113675000I-200000J0D01*
G01*
X137825000Y-113675000D01*
G75*
G02*
X137625000Y-113475000I0J200000D01*
G01*
G37*
G36*
G01*
X135975000Y-113475000D02*
X135975000Y-112925000D01*
G75*
G02*
X136175000Y-112725000I200000J0D01*
G01*
X136575000Y-112725000D01*
G75*
G02*
X136775000Y-112925000I0J-200000D01*
G01*
X136775000Y-113475000D01*
G75*
G02*
X136575000Y-113675000I-200000J0D01*
G01*
X136175000Y-113675000D01*
G75*
G02*
X135975000Y-113475000I0J200000D01*
G01*
G37*
%TD*%
%TO.C,R13*%
G36*
G01*
X143621000Y-132321000D02*
X144171000Y-132321000D01*
G75*
G02*
X144371000Y-132521000I0J-200000D01*
G01*
X144371000Y-132921000D01*
G75*
G02*
X144171000Y-133121000I-200000J0D01*
G01*
X143621000Y-133121000D01*
G75*
G02*
X143421000Y-132921000I0J200000D01*
G01*
X143421000Y-132521000D01*
G75*
G02*
X143621000Y-132321000I200000J0D01*
G01*
G37*
G36*
G01*
X143621000Y-130671000D02*
X144171000Y-130671000D01*
G75*
G02*
X144371000Y-130871000I0J-200000D01*
G01*
X144371000Y-131271000D01*
G75*
G02*
X144171000Y-131471000I-200000J0D01*
G01*
X143621000Y-131471000D01*
G75*
G02*
X143421000Y-131271000I0J200000D01*
G01*
X143421000Y-130871000D01*
G75*
G02*
X143621000Y-130671000I200000J0D01*
G01*
G37*
%TD*%
%TO.C,R12*%
G36*
G01*
X143621000Y-128511000D02*
X144171000Y-128511000D01*
G75*
G02*
X144371000Y-128711000I0J-200000D01*
G01*
X144371000Y-129111000D01*
G75*
G02*
X144171000Y-129311000I-200000J0D01*
G01*
X143621000Y-129311000D01*
G75*
G02*
X143421000Y-129111000I0J200000D01*
G01*
X143421000Y-128711000D01*
G75*
G02*
X143621000Y-128511000I200000J0D01*
G01*
G37*
G36*
G01*
X143621000Y-126861000D02*
X144171000Y-126861000D01*
G75*
G02*
X144371000Y-127061000I0J-200000D01*
G01*
X144371000Y-127461000D01*
G75*
G02*
X144171000Y-127661000I-200000J0D01*
G01*
X143621000Y-127661000D01*
G75*
G02*
X143421000Y-127461000I0J200000D01*
G01*
X143421000Y-127061000D01*
G75*
G02*
X143621000Y-126861000I200000J0D01*
G01*
G37*
%TD*%
%TO.C,R11*%
G36*
G01*
X115919000Y-127702000D02*
X115919000Y-127152000D01*
G75*
G02*
X116119000Y-126952000I200000J0D01*
G01*
X116519000Y-126952000D01*
G75*
G02*
X116719000Y-127152000I0J-200000D01*
G01*
X116719000Y-127702000D01*
G75*
G02*
X116519000Y-127902000I-200000J0D01*
G01*
X116119000Y-127902000D01*
G75*
G02*
X115919000Y-127702000I0J200000D01*
G01*
G37*
G36*
G01*
X114269000Y-127702000D02*
X114269000Y-127152000D01*
G75*
G02*
X114469000Y-126952000I200000J0D01*
G01*
X114869000Y-126952000D01*
G75*
G02*
X115069000Y-127152000I0J-200000D01*
G01*
X115069000Y-127702000D01*
G75*
G02*
X114869000Y-127902000I-200000J0D01*
G01*
X114469000Y-127902000D01*
G75*
G02*
X114269000Y-127702000I0J200000D01*
G01*
G37*
%TD*%
%TO.C,R10*%
G36*
G01*
X115919000Y-129226000D02*
X115919000Y-128676000D01*
G75*
G02*
X116119000Y-128476000I200000J0D01*
G01*
X116519000Y-128476000D01*
G75*
G02*
X116719000Y-128676000I0J-200000D01*
G01*
X116719000Y-129226000D01*
G75*
G02*
X116519000Y-129426000I-200000J0D01*
G01*
X116119000Y-129426000D01*
G75*
G02*
X115919000Y-129226000I0J200000D01*
G01*
G37*
G36*
G01*
X114269000Y-129226000D02*
X114269000Y-128676000D01*
G75*
G02*
X114469000Y-128476000I200000J0D01*
G01*
X114869000Y-128476000D01*
G75*
G02*
X115069000Y-128676000I0J-200000D01*
G01*
X115069000Y-129226000D01*
G75*
G02*
X114869000Y-129426000I-200000J0D01*
G01*
X114469000Y-129426000D01*
G75*
G02*
X114269000Y-129226000I0J200000D01*
G01*
G37*
%TD*%
%TO.C,R9*%
G36*
G01*
X154339000Y-117503000D02*
X154339000Y-116953000D01*
G75*
G02*
X154539000Y-116753000I200000J0D01*
G01*
X154939000Y-116753000D01*
G75*
G02*
X155139000Y-116953000I0J-200000D01*
G01*
X155139000Y-117503000D01*
G75*
G02*
X154939000Y-117703000I-200000J0D01*
G01*
X154539000Y-117703000D01*
G75*
G02*
X154339000Y-117503000I0J200000D01*
G01*
G37*
G36*
G01*
X152689000Y-117503000D02*
X152689000Y-116953000D01*
G75*
G02*
X152889000Y-116753000I200000J0D01*
G01*
X153289000Y-116753000D01*
G75*
G02*
X153489000Y-116953000I0J-200000D01*
G01*
X153489000Y-117503000D01*
G75*
G02*
X153289000Y-117703000I-200000J0D01*
G01*
X152889000Y-117703000D01*
G75*
G02*
X152689000Y-117503000I0J200000D01*
G01*
G37*
%TD*%
%TO.C,R8*%
G36*
G01*
X146975000Y-110925000D02*
X146975000Y-111475000D01*
G75*
G02*
X146775000Y-111675000I-200000J0D01*
G01*
X146375000Y-111675000D01*
G75*
G02*
X146175000Y-111475000I0J200000D01*
G01*
X146175000Y-110925000D01*
G75*
G02*
X146375000Y-110725000I200000J0D01*
G01*
X146775000Y-110725000D01*
G75*
G02*
X146975000Y-110925000I0J-200000D01*
G01*
G37*
G36*
G01*
X148625000Y-110925000D02*
X148625000Y-111475000D01*
G75*
G02*
X148425000Y-111675000I-200000J0D01*
G01*
X148025000Y-111675000D01*
G75*
G02*
X147825000Y-111475000I0J200000D01*
G01*
X147825000Y-110925000D01*
G75*
G02*
X148025000Y-110725000I200000J0D01*
G01*
X148425000Y-110725000D01*
G75*
G02*
X148625000Y-110925000I0J-200000D01*
G01*
G37*
%TD*%
%TO.C,R7*%
G36*
G01*
X148775000Y-112725000D02*
X148775000Y-113275000D01*
G75*
G02*
X148575000Y-113475000I-200000J0D01*
G01*
X148175000Y-113475000D01*
G75*
G02*
X147975000Y-113275000I0J200000D01*
G01*
X147975000Y-112725000D01*
G75*
G02*
X148175000Y-112525000I200000J0D01*
G01*
X148575000Y-112525000D01*
G75*
G02*
X148775000Y-112725000I0J-200000D01*
G01*
G37*
G36*
G01*
X150425000Y-112725000D02*
X150425000Y-113275000D01*
G75*
G02*
X150225000Y-113475000I-200000J0D01*
G01*
X149825000Y-113475000D01*
G75*
G02*
X149625000Y-113275000I0J200000D01*
G01*
X149625000Y-112725000D01*
G75*
G02*
X149825000Y-112525000I200000J0D01*
G01*
X150225000Y-112525000D01*
G75*
G02*
X150425000Y-112725000I0J-200000D01*
G01*
G37*
%TD*%
%TO.C,R6*%
G36*
G01*
X159523000Y-117057000D02*
X158973000Y-117057000D01*
G75*
G02*
X158773000Y-116857000I0J200000D01*
G01*
X158773000Y-116457000D01*
G75*
G02*
X158973000Y-116257000I200000J0D01*
G01*
X159523000Y-116257000D01*
G75*
G02*
X159723000Y-116457000I0J-200000D01*
G01*
X159723000Y-116857000D01*
G75*
G02*
X159523000Y-117057000I-200000J0D01*
G01*
G37*
G36*
G01*
X159523000Y-118707000D02*
X158973000Y-118707000D01*
G75*
G02*
X158773000Y-118507000I0J200000D01*
G01*
X158773000Y-118107000D01*
G75*
G02*
X158973000Y-117907000I200000J0D01*
G01*
X159523000Y-117907000D01*
G75*
G02*
X159723000Y-118107000I0J-200000D01*
G01*
X159723000Y-118507000D01*
G75*
G02*
X159523000Y-118707000I-200000J0D01*
G01*
G37*
%TD*%
%TO.C,R3*%
G36*
G01*
X127453000Y-114429000D02*
X126903000Y-114429000D01*
G75*
G02*
X126703000Y-114229000I0J200000D01*
G01*
X126703000Y-113829000D01*
G75*
G02*
X126903000Y-113629000I200000J0D01*
G01*
X127453000Y-113629000D01*
G75*
G02*
X127653000Y-113829000I0J-200000D01*
G01*
X127653000Y-114229000D01*
G75*
G02*
X127453000Y-114429000I-200000J0D01*
G01*
G37*
G36*
G01*
X127453000Y-116079000D02*
X126903000Y-116079000D01*
G75*
G02*
X126703000Y-115879000I0J200000D01*
G01*
X126703000Y-115479000D01*
G75*
G02*
X126903000Y-115279000I200000J0D01*
G01*
X127453000Y-115279000D01*
G75*
G02*
X127653000Y-115479000I0J-200000D01*
G01*
X127653000Y-115879000D01*
G75*
G02*
X127453000Y-116079000I-200000J0D01*
G01*
G37*
%TD*%
%TO.C,R4*%
G36*
G01*
X119325000Y-113159000D02*
X118775000Y-113159000D01*
G75*
G02*
X118575000Y-112959000I0J200000D01*
G01*
X118575000Y-112559000D01*
G75*
G02*
X118775000Y-112359000I200000J0D01*
G01*
X119325000Y-112359000D01*
G75*
G02*
X119525000Y-112559000I0J-200000D01*
G01*
X119525000Y-112959000D01*
G75*
G02*
X119325000Y-113159000I-200000J0D01*
G01*
G37*
G36*
G01*
X119325000Y-114809000D02*
X118775000Y-114809000D01*
G75*
G02*
X118575000Y-114609000I0J200000D01*
G01*
X118575000Y-114209000D01*
G75*
G02*
X118775000Y-114009000I200000J0D01*
G01*
X119325000Y-114009000D01*
G75*
G02*
X119525000Y-114209000I0J-200000D01*
G01*
X119525000Y-114609000D01*
G75*
G02*
X119325000Y-114809000I-200000J0D01*
G01*
G37*
%TD*%
%TO.C,R2*%
G36*
G01*
X129824000Y-125185000D02*
X130374000Y-125185000D01*
G75*
G02*
X130574000Y-125385000I0J-200000D01*
G01*
X130574000Y-125785000D01*
G75*
G02*
X130374000Y-125985000I-200000J0D01*
G01*
X129824000Y-125985000D01*
G75*
G02*
X129624000Y-125785000I0J200000D01*
G01*
X129624000Y-125385000D01*
G75*
G02*
X129824000Y-125185000I200000J0D01*
G01*
G37*
G36*
G01*
X129824000Y-123535000D02*
X130374000Y-123535000D01*
G75*
G02*
X130574000Y-123735000I0J-200000D01*
G01*
X130574000Y-124135000D01*
G75*
G02*
X130374000Y-124335000I-200000J0D01*
G01*
X129824000Y-124335000D01*
G75*
G02*
X129624000Y-124135000I0J200000D01*
G01*
X129624000Y-123735000D01*
G75*
G02*
X129824000Y-123535000I200000J0D01*
G01*
G37*
%TD*%
%TO.C,R1*%
G36*
G01*
X127453000Y-121541000D02*
X126903000Y-121541000D01*
G75*
G02*
X126703000Y-121341000I0J200000D01*
G01*
X126703000Y-120941000D01*
G75*
G02*
X126903000Y-120741000I200000J0D01*
G01*
X127453000Y-120741000D01*
G75*
G02*
X127653000Y-120941000I0J-200000D01*
G01*
X127653000Y-121341000D01*
G75*
G02*
X127453000Y-121541000I-200000J0D01*
G01*
G37*
G36*
G01*
X127453000Y-123191000D02*
X126903000Y-123191000D01*
G75*
G02*
X126703000Y-122991000I0J200000D01*
G01*
X126703000Y-122591000D01*
G75*
G02*
X126903000Y-122391000I200000J0D01*
G01*
X127453000Y-122391000D01*
G75*
G02*
X127653000Y-122591000I0J-200000D01*
G01*
X127653000Y-122991000D01*
G75*
G02*
X127453000Y-123191000I-200000J0D01*
G01*
G37*
%TD*%
%TO.C,C23*%
G36*
G01*
X130917000Y-134162000D02*
X130917000Y-134662000D01*
G75*
G02*
X130692000Y-134887000I-225000J0D01*
G01*
X130242000Y-134887000D01*
G75*
G02*
X130017000Y-134662000I0J225000D01*
G01*
X130017000Y-134162000D01*
G75*
G02*
X130242000Y-133937000I225000J0D01*
G01*
X130692000Y-133937000D01*
G75*
G02*
X130917000Y-134162000I0J-225000D01*
G01*
G37*
G36*
G01*
X132467000Y-134162000D02*
X132467000Y-134662000D01*
G75*
G02*
X132242000Y-134887000I-225000J0D01*
G01*
X131792000Y-134887000D01*
G75*
G02*
X131567000Y-134662000I0J225000D01*
G01*
X131567000Y-134162000D01*
G75*
G02*
X131792000Y-133937000I225000J0D01*
G01*
X132242000Y-133937000D01*
G75*
G02*
X132467000Y-134162000I0J-225000D01*
G01*
G37*
%TD*%
%TO.C,C22*%
G36*
G01*
X136318000Y-127991000D02*
X135818000Y-127991000D01*
G75*
G02*
X135593000Y-127766000I0J225000D01*
G01*
X135593000Y-127316000D01*
G75*
G02*
X135818000Y-127091000I225000J0D01*
G01*
X136318000Y-127091000D01*
G75*
G02*
X136543000Y-127316000I0J-225000D01*
G01*
X136543000Y-127766000D01*
G75*
G02*
X136318000Y-127991000I-225000J0D01*
G01*
G37*
G36*
G01*
X136318000Y-129541000D02*
X135818000Y-129541000D01*
G75*
G02*
X135593000Y-129316000I0J225000D01*
G01*
X135593000Y-128866000D01*
G75*
G02*
X135818000Y-128641000I225000J0D01*
G01*
X136318000Y-128641000D01*
G75*
G02*
X136543000Y-128866000I0J-225000D01*
G01*
X136543000Y-129316000D01*
G75*
G02*
X136318000Y-129541000I-225000J0D01*
G01*
G37*
%TD*%
%TO.C,C21*%
G36*
G01*
X138050000Y-131571000D02*
X137550000Y-131571000D01*
G75*
G02*
X137325000Y-131346000I0J225000D01*
G01*
X137325000Y-130896000D01*
G75*
G02*
X137550000Y-130671000I225000J0D01*
G01*
X138050000Y-130671000D01*
G75*
G02*
X138275000Y-130896000I0J-225000D01*
G01*
X138275000Y-131346000D01*
G75*
G02*
X138050000Y-131571000I-225000J0D01*
G01*
G37*
G36*
G01*
X138050000Y-133121000D02*
X137550000Y-133121000D01*
G75*
G02*
X137325000Y-132896000I0J225000D01*
G01*
X137325000Y-132446000D01*
G75*
G02*
X137550000Y-132221000I225000J0D01*
G01*
X138050000Y-132221000D01*
G75*
G02*
X138275000Y-132446000I0J-225000D01*
G01*
X138275000Y-132896000D01*
G75*
G02*
X138050000Y-133121000I-225000J0D01*
G01*
G37*
%TD*%
%TO.C,C20*%
G36*
G01*
X138050000Y-128015000D02*
X137550000Y-128015000D01*
G75*
G02*
X137325000Y-127790000I0J225000D01*
G01*
X137325000Y-127340000D01*
G75*
G02*
X137550000Y-127115000I225000J0D01*
G01*
X138050000Y-127115000D01*
G75*
G02*
X138275000Y-127340000I0J-225000D01*
G01*
X138275000Y-127790000D01*
G75*
G02*
X138050000Y-128015000I-225000J0D01*
G01*
G37*
G36*
G01*
X138050000Y-129565000D02*
X137550000Y-129565000D01*
G75*
G02*
X137325000Y-129340000I0J225000D01*
G01*
X137325000Y-128890000D01*
G75*
G02*
X137550000Y-128665000I225000J0D01*
G01*
X138050000Y-128665000D01*
G75*
G02*
X138275000Y-128890000I0J-225000D01*
G01*
X138275000Y-129340000D01*
G75*
G02*
X138050000Y-129565000I-225000J0D01*
G01*
G37*
%TD*%
%TO.C,C18*%
G36*
G01*
X102469000Y-113334000D02*
X102469000Y-113834000D01*
G75*
G02*
X102244000Y-114059000I-225000J0D01*
G01*
X101794000Y-114059000D01*
G75*
G02*
X101569000Y-113834000I0J225000D01*
G01*
X101569000Y-113334000D01*
G75*
G02*
X101794000Y-113109000I225000J0D01*
G01*
X102244000Y-113109000D01*
G75*
G02*
X102469000Y-113334000I0J-225000D01*
G01*
G37*
G36*
G01*
X104019000Y-113334000D02*
X104019000Y-113834000D01*
G75*
G02*
X103794000Y-114059000I-225000J0D01*
G01*
X103344000Y-114059000D01*
G75*
G02*
X103119000Y-113834000I0J225000D01*
G01*
X103119000Y-113334000D01*
G75*
G02*
X103344000Y-113109000I225000J0D01*
G01*
X103794000Y-113109000D01*
G75*
G02*
X104019000Y-113334000I0J-225000D01*
G01*
G37*
%TD*%
%TO.C,C16*%
G36*
G01*
X112362000Y-120446000D02*
X112362000Y-120946000D01*
G75*
G02*
X112137000Y-121171000I-225000J0D01*
G01*
X111687000Y-121171000D01*
G75*
G02*
X111462000Y-120946000I0J225000D01*
G01*
X111462000Y-120446000D01*
G75*
G02*
X111687000Y-120221000I225000J0D01*
G01*
X112137000Y-120221000D01*
G75*
G02*
X112362000Y-120446000I0J-225000D01*
G01*
G37*
G36*
G01*
X113912000Y-120446000D02*
X113912000Y-120946000D01*
G75*
G02*
X113687000Y-121171000I-225000J0D01*
G01*
X113237000Y-121171000D01*
G75*
G02*
X113012000Y-120946000I0J225000D01*
G01*
X113012000Y-120446000D01*
G75*
G02*
X113237000Y-120221000I225000J0D01*
G01*
X113687000Y-120221000D01*
G75*
G02*
X113912000Y-120446000I0J-225000D01*
G01*
G37*
%TD*%
%TO.C,C14*%
G36*
G01*
X118350000Y-125593000D02*
X118850000Y-125593000D01*
G75*
G02*
X119075000Y-125818000I0J-225000D01*
G01*
X119075000Y-126268000D01*
G75*
G02*
X118850000Y-126493000I-225000J0D01*
G01*
X118350000Y-126493000D01*
G75*
G02*
X118125000Y-126268000I0J225000D01*
G01*
X118125000Y-125818000D01*
G75*
G02*
X118350000Y-125593000I225000J0D01*
G01*
G37*
G36*
G01*
X118350000Y-124043000D02*
X118850000Y-124043000D01*
G75*
G02*
X119075000Y-124268000I0J-225000D01*
G01*
X119075000Y-124718000D01*
G75*
G02*
X118850000Y-124943000I-225000J0D01*
G01*
X118350000Y-124943000D01*
G75*
G02*
X118125000Y-124718000I0J225000D01*
G01*
X118125000Y-124268000D01*
G75*
G02*
X118350000Y-124043000I225000J0D01*
G01*
G37*
%TD*%
%TO.C,C13*%
G36*
G01*
X117776000Y-113259000D02*
X117276000Y-113259000D01*
G75*
G02*
X117051000Y-113034000I0J225000D01*
G01*
X117051000Y-112584000D01*
G75*
G02*
X117276000Y-112359000I225000J0D01*
G01*
X117776000Y-112359000D01*
G75*
G02*
X118001000Y-112584000I0J-225000D01*
G01*
X118001000Y-113034000D01*
G75*
G02*
X117776000Y-113259000I-225000J0D01*
G01*
G37*
G36*
G01*
X117776000Y-114809000D02*
X117276000Y-114809000D01*
G75*
G02*
X117051000Y-114584000I0J225000D01*
G01*
X117051000Y-114134000D01*
G75*
G02*
X117276000Y-113909000I225000J0D01*
G01*
X117776000Y-113909000D01*
G75*
G02*
X118001000Y-114134000I0J-225000D01*
G01*
X118001000Y-114584000D01*
G75*
G02*
X117776000Y-114809000I-225000J0D01*
G01*
G37*
%TD*%
%TO.C,C12*%
G36*
G01*
X112375000Y-118160000D02*
X112375000Y-118660000D01*
G75*
G02*
X112150000Y-118885000I-225000J0D01*
G01*
X111700000Y-118885000D01*
G75*
G02*
X111475000Y-118660000I0J225000D01*
G01*
X111475000Y-118160000D01*
G75*
G02*
X111700000Y-117935000I225000J0D01*
G01*
X112150000Y-117935000D01*
G75*
G02*
X112375000Y-118160000I0J-225000D01*
G01*
G37*
G36*
G01*
X113925000Y-118160000D02*
X113925000Y-118660000D01*
G75*
G02*
X113700000Y-118885000I-225000J0D01*
G01*
X113250000Y-118885000D01*
G75*
G02*
X113025000Y-118660000I0J225000D01*
G01*
X113025000Y-118160000D01*
G75*
G02*
X113250000Y-117935000I225000J0D01*
G01*
X113700000Y-117935000D01*
G75*
G02*
X113925000Y-118160000I0J-225000D01*
G01*
G37*
%TD*%
%TO.C,C11*%
G36*
G01*
X125090000Y-118279000D02*
X125090000Y-117779000D01*
G75*
G02*
X125315000Y-117554000I225000J0D01*
G01*
X125765000Y-117554000D01*
G75*
G02*
X125990000Y-117779000I0J-225000D01*
G01*
X125990000Y-118279000D01*
G75*
G02*
X125765000Y-118504000I-225000J0D01*
G01*
X125315000Y-118504000D01*
G75*
G02*
X125090000Y-118279000I0J225000D01*
G01*
G37*
G36*
G01*
X123540000Y-118279000D02*
X123540000Y-117779000D01*
G75*
G02*
X123765000Y-117554000I225000J0D01*
G01*
X124215000Y-117554000D01*
G75*
G02*
X124440000Y-117779000I0J-225000D01*
G01*
X124440000Y-118279000D01*
G75*
G02*
X124215000Y-118504000I-225000J0D01*
G01*
X123765000Y-118504000D01*
G75*
G02*
X123540000Y-118279000I0J225000D01*
G01*
G37*
%TD*%
%TO.C,C10*%
G36*
G01*
X112375000Y-122224000D02*
X112375000Y-122724000D01*
G75*
G02*
X112150000Y-122949000I-225000J0D01*
G01*
X111700000Y-122949000D01*
G75*
G02*
X111475000Y-122724000I0J225000D01*
G01*
X111475000Y-122224000D01*
G75*
G02*
X111700000Y-121999000I225000J0D01*
G01*
X112150000Y-121999000D01*
G75*
G02*
X112375000Y-122224000I0J-225000D01*
G01*
G37*
G36*
G01*
X113925000Y-122224000D02*
X113925000Y-122724000D01*
G75*
G02*
X113700000Y-122949000I-225000J0D01*
G01*
X113250000Y-122949000D01*
G75*
G02*
X113025000Y-122724000I0J225000D01*
G01*
X113025000Y-122224000D01*
G75*
G02*
X113250000Y-121999000I225000J0D01*
G01*
X113700000Y-121999000D01*
G75*
G02*
X113925000Y-122224000I0J-225000D01*
G01*
G37*
%TD*%
%TO.C,C9*%
G36*
G01*
X125404000Y-137785000D02*
X125904000Y-137785000D01*
G75*
G02*
X126129000Y-138010000I0J-225000D01*
G01*
X126129000Y-138460000D01*
G75*
G02*
X125904000Y-138685000I-225000J0D01*
G01*
X125404000Y-138685000D01*
G75*
G02*
X125179000Y-138460000I0J225000D01*
G01*
X125179000Y-138010000D01*
G75*
G02*
X125404000Y-137785000I225000J0D01*
G01*
G37*
G36*
G01*
X125404000Y-136235000D02*
X125904000Y-136235000D01*
G75*
G02*
X126129000Y-136460000I0J-225000D01*
G01*
X126129000Y-136910000D01*
G75*
G02*
X125904000Y-137135000I-225000J0D01*
G01*
X125404000Y-137135000D01*
G75*
G02*
X125179000Y-136910000I0J225000D01*
G01*
X125179000Y-136460000D01*
G75*
G02*
X125404000Y-136235000I225000J0D01*
G01*
G37*
%TD*%
%TO.C,C8*%
G36*
G01*
X115169000Y-125653000D02*
X115169000Y-126153000D01*
G75*
G02*
X114944000Y-126378000I-225000J0D01*
G01*
X114494000Y-126378000D01*
G75*
G02*
X114269000Y-126153000I0J225000D01*
G01*
X114269000Y-125653000D01*
G75*
G02*
X114494000Y-125428000I225000J0D01*
G01*
X114944000Y-125428000D01*
G75*
G02*
X115169000Y-125653000I0J-225000D01*
G01*
G37*
G36*
G01*
X116719000Y-125653000D02*
X116719000Y-126153000D01*
G75*
G02*
X116494000Y-126378000I-225000J0D01*
G01*
X116044000Y-126378000D01*
G75*
G02*
X115819000Y-126153000I0J225000D01*
G01*
X115819000Y-125653000D01*
G75*
G02*
X116044000Y-125428000I225000J0D01*
G01*
X116494000Y-125428000D01*
G75*
G02*
X116719000Y-125653000I0J-225000D01*
G01*
G37*
%TD*%
%TO.C,C7*%
G36*
G01*
X116252000Y-113259000D02*
X115752000Y-113259000D01*
G75*
G02*
X115527000Y-113034000I0J225000D01*
G01*
X115527000Y-112584000D01*
G75*
G02*
X115752000Y-112359000I225000J0D01*
G01*
X116252000Y-112359000D01*
G75*
G02*
X116477000Y-112584000I0J-225000D01*
G01*
X116477000Y-113034000D01*
G75*
G02*
X116252000Y-113259000I-225000J0D01*
G01*
G37*
G36*
G01*
X116252000Y-114809000D02*
X115752000Y-114809000D01*
G75*
G02*
X115527000Y-114584000I0J225000D01*
G01*
X115527000Y-114134000D01*
G75*
G02*
X115752000Y-113909000I225000J0D01*
G01*
X116252000Y-113909000D01*
G75*
G02*
X116477000Y-114134000I0J-225000D01*
G01*
X116477000Y-114584000D01*
G75*
G02*
X116252000Y-114809000I-225000J0D01*
G01*
G37*
%TD*%
%TO.C,C5*%
G36*
G01*
X115169000Y-124129000D02*
X115169000Y-124629000D01*
G75*
G02*
X114944000Y-124854000I-225000J0D01*
G01*
X114494000Y-124854000D01*
G75*
G02*
X114269000Y-124629000I0J225000D01*
G01*
X114269000Y-124129000D01*
G75*
G02*
X114494000Y-123904000I225000J0D01*
G01*
X114944000Y-123904000D01*
G75*
G02*
X115169000Y-124129000I0J-225000D01*
G01*
G37*
G36*
G01*
X116719000Y-124129000D02*
X116719000Y-124629000D01*
G75*
G02*
X116494000Y-124854000I-225000J0D01*
G01*
X116044000Y-124854000D01*
G75*
G02*
X115819000Y-124629000I0J225000D01*
G01*
X115819000Y-124129000D01*
G75*
G02*
X116044000Y-123904000I225000J0D01*
G01*
X116494000Y-123904000D01*
G75*
G02*
X116719000Y-124129000I0J-225000D01*
G01*
G37*
%TD*%
%TO.C,C4*%
G36*
G01*
X114661000Y-131876000D02*
X114661000Y-132376000D01*
G75*
G02*
X114436000Y-132601000I-225000J0D01*
G01*
X113986000Y-132601000D01*
G75*
G02*
X113761000Y-132376000I0J225000D01*
G01*
X113761000Y-131876000D01*
G75*
G02*
X113986000Y-131651000I225000J0D01*
G01*
X114436000Y-131651000D01*
G75*
G02*
X114661000Y-131876000I0J-225000D01*
G01*
G37*
G36*
G01*
X116211000Y-131876000D02*
X116211000Y-132376000D01*
G75*
G02*
X115986000Y-132601000I-225000J0D01*
G01*
X115536000Y-132601000D01*
G75*
G02*
X115311000Y-132376000I0J225000D01*
G01*
X115311000Y-131876000D01*
G75*
G02*
X115536000Y-131651000I225000J0D01*
G01*
X115986000Y-131651000D01*
G75*
G02*
X116211000Y-131876000I0J-225000D01*
G01*
G37*
%TD*%
D20*
%TO.C,U4*%
X102599502Y-110282000D03*
D21*
X102318001Y-108911099D03*
X103118000Y-108911099D03*
X103918001Y-108911099D03*
X104717999Y-108911099D03*
X105518000Y-108911099D03*
X106318001Y-108911099D03*
D20*
X106036498Y-110282000D03*
D21*
X106317999Y-111652901D03*
X105518000Y-111652901D03*
X104717999Y-111652901D03*
X103918001Y-111652901D03*
X103118000Y-111652901D03*
X102317999Y-111652901D03*
%TD*%
D15*
%TO.C,J12*%
X158420000Y-101900000D03*
X160960000Y-101900000D03*
X163500000Y-101900000D03*
D16*
X166040000Y-101900000D03*
%TD*%
D15*
%TO.C,J9*%
X167310000Y-120950000D03*
X164770000Y-120950000D03*
X162230000Y-120950000D03*
X159690000Y-120950000D03*
X157150000Y-120950000D03*
X154610000Y-120950000D03*
X152070000Y-120950000D03*
D16*
X149530000Y-120950000D03*
%TD*%
D15*
%TO.C,J8*%
X167310000Y-118410000D03*
X167310000Y-115870000D03*
X167310000Y-113330000D03*
D16*
X167310000Y-110790000D03*
%TD*%
D15*
%TO.C,J7*%
X164770000Y-118410000D03*
X162230000Y-118410000D03*
X164770000Y-115870000D03*
X162230000Y-115870000D03*
X164770000Y-113330000D03*
X162230000Y-113330000D03*
X164770000Y-110790000D03*
D16*
X162230000Y-110790000D03*
%TD*%
D15*
%TO.C,J4*%
X129972000Y-114140000D03*
D16*
X129972000Y-111600000D03*
%TD*%
%TO.C,C17*%
G36*
G01*
X156446000Y-114222000D02*
X156446000Y-113122000D01*
G75*
G02*
X156696000Y-112872000I250000J0D01*
G01*
X158796000Y-112872000D01*
G75*
G02*
X159046000Y-113122000I0J-250000D01*
G01*
X159046000Y-114222000D01*
G75*
G02*
X158796000Y-114472000I-250000J0D01*
G01*
X156696000Y-114472000D01*
G75*
G02*
X156446000Y-114222000I0J250000D01*
G01*
G37*
G36*
G01*
X152846000Y-114222000D02*
X152846000Y-113122000D01*
G75*
G02*
X153096000Y-112872000I250000J0D01*
G01*
X155196000Y-112872000D01*
G75*
G02*
X155446000Y-113122000I0J-250000D01*
G01*
X155446000Y-114222000D01*
G75*
G02*
X155196000Y-114472000I-250000J0D01*
G01*
X153096000Y-114472000D01*
G75*
G02*
X152846000Y-114222000I0J250000D01*
G01*
G37*
%TD*%
%TO.C,U1*%
G36*
G01*
X121584000Y-128293000D02*
X121584000Y-128593000D01*
G75*
G02*
X121434000Y-128743000I-150000J0D01*
G01*
X120134000Y-128743000D01*
G75*
G02*
X119984000Y-128593000I0J150000D01*
G01*
X119984000Y-128293000D01*
G75*
G02*
X120134000Y-128143000I150000J0D01*
G01*
X121434000Y-128143000D01*
G75*
G02*
X121584000Y-128293000I0J-150000D01*
G01*
G37*
G36*
G01*
X121584000Y-127023000D02*
X121584000Y-127323000D01*
G75*
G02*
X121434000Y-127473000I-150000J0D01*
G01*
X120134000Y-127473000D01*
G75*
G02*
X119984000Y-127323000I0J150000D01*
G01*
X119984000Y-127023000D01*
G75*
G02*
X120134000Y-126873000I150000J0D01*
G01*
X121434000Y-126873000D01*
G75*
G02*
X121584000Y-127023000I0J-150000D01*
G01*
G37*
G36*
G01*
X121584000Y-125753000D02*
X121584000Y-126053000D01*
G75*
G02*
X121434000Y-126203000I-150000J0D01*
G01*
X120134000Y-126203000D01*
G75*
G02*
X119984000Y-126053000I0J150000D01*
G01*
X119984000Y-125753000D01*
G75*
G02*
X120134000Y-125603000I150000J0D01*
G01*
X121434000Y-125603000D01*
G75*
G02*
X121584000Y-125753000I0J-150000D01*
G01*
G37*
G36*
G01*
X121584000Y-124483000D02*
X121584000Y-124783000D01*
G75*
G02*
X121434000Y-124933000I-150000J0D01*
G01*
X120134000Y-124933000D01*
G75*
G02*
X119984000Y-124783000I0J150000D01*
G01*
X119984000Y-124483000D01*
G75*
G02*
X120134000Y-124333000I150000J0D01*
G01*
X121434000Y-124333000D01*
G75*
G02*
X121584000Y-124483000I0J-150000D01*
G01*
G37*
G36*
G01*
X128784000Y-124483000D02*
X128784000Y-124783000D01*
G75*
G02*
X128634000Y-124933000I-150000J0D01*
G01*
X127334000Y-124933000D01*
G75*
G02*
X127184000Y-124783000I0J150000D01*
G01*
X127184000Y-124483000D01*
G75*
G02*
X127334000Y-124333000I150000J0D01*
G01*
X128634000Y-124333000D01*
G75*
G02*
X128784000Y-124483000I0J-150000D01*
G01*
G37*
G36*
G01*
X128784000Y-125753000D02*
X128784000Y-126053000D01*
G75*
G02*
X128634000Y-126203000I-150000J0D01*
G01*
X127334000Y-126203000D01*
G75*
G02*
X127184000Y-126053000I0J150000D01*
G01*
X127184000Y-125753000D01*
G75*
G02*
X127334000Y-125603000I150000J0D01*
G01*
X128634000Y-125603000D01*
G75*
G02*
X128784000Y-125753000I0J-150000D01*
G01*
G37*
G36*
G01*
X128784000Y-127023000D02*
X128784000Y-127323000D01*
G75*
G02*
X128634000Y-127473000I-150000J0D01*
G01*
X127334000Y-127473000D01*
G75*
G02*
X127184000Y-127323000I0J150000D01*
G01*
X127184000Y-127023000D01*
G75*
G02*
X127334000Y-126873000I150000J0D01*
G01*
X128634000Y-126873000D01*
G75*
G02*
X128784000Y-127023000I0J-150000D01*
G01*
G37*
G36*
G01*
X128784000Y-128293000D02*
X128784000Y-128593000D01*
G75*
G02*
X128634000Y-128743000I-150000J0D01*
G01*
X127334000Y-128743000D01*
G75*
G02*
X127184000Y-128593000I0J150000D01*
G01*
X127184000Y-128293000D01*
G75*
G02*
X127334000Y-128143000I150000J0D01*
G01*
X128634000Y-128143000D01*
G75*
G02*
X128784000Y-128293000I0J-150000D01*
G01*
G37*
%TD*%
D15*
%TO.C,J20*%
X135560000Y-137968000D03*
X135560000Y-135428000D03*
X138100000Y-137968000D03*
X138100000Y-135428000D03*
X140640000Y-137968000D03*
X140640000Y-135428000D03*
X143180000Y-137968000D03*
D16*
X143180000Y-135428000D03*
%TD*%
D15*
%TO.C,J19*%
X151562000Y-137968000D03*
X151562000Y-135428000D03*
X154102000Y-137968000D03*
X154102000Y-135428000D03*
X156642000Y-137968000D03*
X156642000Y-135428000D03*
X159182000Y-137968000D03*
D16*
X159182000Y-135428000D03*
%TD*%
D15*
%TO.C,J18*%
X133020000Y-106980000D03*
X133020000Y-104440000D03*
D16*
X133020000Y-101900000D03*
%TD*%
D15*
%TO.C,J17*%
X130480000Y-106980000D03*
X130480000Y-104440000D03*
D16*
X130480000Y-101900000D03*
%TD*%
D15*
%TO.C,J16*%
X127940000Y-106980000D03*
X127940000Y-104440000D03*
D16*
X127940000Y-101900000D03*
%TD*%
D15*
%TO.C,J1*%
X117780000Y-106980000D03*
X115240000Y-106980000D03*
X112700000Y-106980000D03*
D16*
X110160000Y-106980000D03*
%TD*%
D15*
%TO.C,J2*%
X129972000Y-118660000D03*
D16*
X129972000Y-121200000D03*
%TD*%
D22*
%TO.C,Y1*%
X118334500Y-109432000D03*
X120534500Y-109432000D03*
X120534500Y-111132000D03*
X118334500Y-111132000D03*
%TD*%
D23*
%TO.C,U2*%
X123408000Y-131850000D03*
X118808000Y-131850000D03*
X121108000Y-131850000D03*
D24*
X121108000Y-138150000D03*
%TD*%
%TO.C,C3*%
G36*
G01*
X116760000Y-110211000D02*
X116260000Y-110211000D01*
G75*
G02*
X116035000Y-109986000I0J225000D01*
G01*
X116035000Y-109536000D01*
G75*
G02*
X116260000Y-109311000I225000J0D01*
G01*
X116760000Y-109311000D01*
G75*
G02*
X116985000Y-109536000I0J-225000D01*
G01*
X116985000Y-109986000D01*
G75*
G02*
X116760000Y-110211000I-225000J0D01*
G01*
G37*
G36*
G01*
X116760000Y-111761000D02*
X116260000Y-111761000D01*
G75*
G02*
X116035000Y-111536000I0J225000D01*
G01*
X116035000Y-111086000D01*
G75*
G02*
X116260000Y-110861000I225000J0D01*
G01*
X116760000Y-110861000D01*
G75*
G02*
X116985000Y-111086000I0J-225000D01*
G01*
X116985000Y-111536000D01*
G75*
G02*
X116760000Y-111761000I-225000J0D01*
G01*
G37*
%TD*%
%TO.C,C2*%
G36*
G01*
X122105500Y-110861000D02*
X122605500Y-110861000D01*
G75*
G02*
X122830500Y-111086000I0J-225000D01*
G01*
X122830500Y-111536000D01*
G75*
G02*
X122605500Y-111761000I-225000J0D01*
G01*
X122105500Y-111761000D01*
G75*
G02*
X121880500Y-111536000I0J225000D01*
G01*
X121880500Y-111086000D01*
G75*
G02*
X122105500Y-110861000I225000J0D01*
G01*
G37*
G36*
G01*
X122105500Y-109311000D02*
X122605500Y-109311000D01*
G75*
G02*
X122830500Y-109536000I0J-225000D01*
G01*
X122830500Y-109986000D01*
G75*
G02*
X122605500Y-110211000I-225000J0D01*
G01*
X122105500Y-110211000D01*
G75*
G02*
X121880500Y-109986000I0J225000D01*
G01*
X121880500Y-109536000D01*
G75*
G02*
X122105500Y-109311000I225000J0D01*
G01*
G37*
%TD*%
D25*
%TO.C,Q4*%
X135400000Y-121900000D03*
D26*
X133120000Y-115600000D03*
X137680000Y-115600000D03*
%TD*%
D25*
%TO.C,Q3*%
X142925000Y-121925000D03*
D26*
X140645000Y-115625000D03*
X145205000Y-115625000D03*
%TD*%
D27*
%TO.C,Q2*%
X154300000Y-128400000D03*
D28*
X148000000Y-130680000D03*
X148000000Y-126120000D03*
%TD*%
D27*
%TO.C,Q1*%
X165787000Y-128401000D03*
D28*
X159487000Y-130681000D03*
X159487000Y-126121000D03*
%TD*%
M02*
