%TF.GenerationSoftware,KiCad,Pcbnew,(5.1.10)-1*%
%TF.CreationDate,2021-11-13T18:31:53+01:00*%
%TF.ProjectId,HeCo,4865436f-2e6b-4696-9361-645f70636258,rev?*%
%TF.SameCoordinates,Original*%
%TF.FileFunction,Soldermask,Bot*%
%TF.FilePolarity,Negative*%
%FSLAX46Y46*%
G04 Gerber Fmt 4.6, Leading zero omitted, Abs format (unit mm)*
G04 Created by KiCad (PCBNEW (5.1.10)-1) date 2021-11-13 18:31:53*
%MOMM*%
%LPD*%
G01*
G04 APERTURE LIST*
%ADD10O,1.700000X1.700000*%
%ADD11R,1.700000X1.700000*%
%ADD12O,3.600000X2.080000*%
G04 APERTURE END LIST*
D10*
%TO.C,J14*%
X110160000Y-101900000D03*
X112700000Y-101900000D03*
X115240000Y-101900000D03*
X117780000Y-101900000D03*
D11*
X120320000Y-101900000D03*
%TD*%
D10*
%TO.C,J10*%
X167310000Y-108250000D03*
X164770000Y-108250000D03*
X162230000Y-108250000D03*
X159690000Y-108250000D03*
X157150000Y-108250000D03*
X154610000Y-108250000D03*
X152070000Y-108250000D03*
D11*
X149530000Y-108250000D03*
%TD*%
D10*
%TO.C,J15*%
X125400000Y-106980000D03*
X125400000Y-104440000D03*
D11*
X125400000Y-101900000D03*
%TD*%
D10*
%TO.C,J5*%
X107620000Y-137968000D03*
X107620000Y-135428000D03*
X110160000Y-137968000D03*
X110160000Y-135428000D03*
X112700000Y-137968000D03*
X112700000Y-135428000D03*
X115240000Y-137968000D03*
D11*
X115240000Y-135428000D03*
%TD*%
D10*
%TO.C,J13*%
X153340000Y-101900000D03*
X153340000Y-104440000D03*
X150800000Y-101900000D03*
X150800000Y-104440000D03*
X148260000Y-101900000D03*
X148260000Y-104440000D03*
X145720000Y-101900000D03*
D11*
X145720000Y-104440000D03*
%TD*%
D10*
%TO.C,J6*%
X149530000Y-115870000D03*
D11*
X149530000Y-118410000D03*
%TD*%
D12*
%TO.C,J11*%
X105842000Y-119680000D03*
G36*
G01*
X107392003Y-125800000D02*
X104291997Y-125800000D01*
G75*
G02*
X104042000Y-125550003I0J249997D01*
G01*
X104042000Y-123969997D01*
G75*
G02*
X104291997Y-123720000I249997J0D01*
G01*
X107392003Y-123720000D01*
G75*
G02*
X107642000Y-123969997I0J-249997D01*
G01*
X107642000Y-125550003D01*
G75*
G02*
X107392003Y-125800000I-249997J0D01*
G01*
G37*
%TD*%
D10*
%TO.C,J12*%
X158420000Y-101900000D03*
X160960000Y-101900000D03*
X163500000Y-101900000D03*
D11*
X166040000Y-101900000D03*
%TD*%
D10*
%TO.C,J9*%
X167310000Y-120950000D03*
X164770000Y-120950000D03*
X162230000Y-120950000D03*
X159690000Y-120950000D03*
X157150000Y-120950000D03*
X154610000Y-120950000D03*
X152070000Y-120950000D03*
D11*
X149530000Y-120950000D03*
%TD*%
D10*
%TO.C,J8*%
X167310000Y-118410000D03*
X167310000Y-115870000D03*
X167310000Y-113330000D03*
D11*
X167310000Y-110790000D03*
%TD*%
D10*
%TO.C,J7*%
X164770000Y-118410000D03*
X162230000Y-118410000D03*
X164770000Y-115870000D03*
X162230000Y-115870000D03*
X164770000Y-113330000D03*
X162230000Y-113330000D03*
X164770000Y-110790000D03*
D11*
X162230000Y-110790000D03*
%TD*%
D10*
%TO.C,J4*%
X129972000Y-114140000D03*
D11*
X129972000Y-111600000D03*
%TD*%
D10*
%TO.C,J20*%
X135560000Y-137968000D03*
X135560000Y-135428000D03*
X138100000Y-137968000D03*
X138100000Y-135428000D03*
X140640000Y-137968000D03*
X140640000Y-135428000D03*
X143180000Y-137968000D03*
D11*
X143180000Y-135428000D03*
%TD*%
D10*
%TO.C,J19*%
X151562000Y-137968000D03*
X151562000Y-135428000D03*
X154102000Y-137968000D03*
X154102000Y-135428000D03*
X156642000Y-137968000D03*
X156642000Y-135428000D03*
X159182000Y-137968000D03*
D11*
X159182000Y-135428000D03*
%TD*%
D10*
%TO.C,J18*%
X133020000Y-106980000D03*
X133020000Y-104440000D03*
D11*
X133020000Y-101900000D03*
%TD*%
D10*
%TO.C,J17*%
X130480000Y-106980000D03*
X130480000Y-104440000D03*
D11*
X130480000Y-101900000D03*
%TD*%
D10*
%TO.C,J16*%
X127940000Y-106980000D03*
X127940000Y-104440000D03*
D11*
X127940000Y-101900000D03*
%TD*%
D10*
%TO.C,J1*%
X117780000Y-106980000D03*
X115240000Y-106980000D03*
X112700000Y-106980000D03*
D11*
X110160000Y-106980000D03*
%TD*%
D10*
%TO.C,J2*%
X129972000Y-118660000D03*
D11*
X129972000Y-121200000D03*
%TD*%
M02*
