%TF.GenerationSoftware,KiCad,Pcbnew,(5.1.10)-1*%
%TF.CreationDate,2021-11-13T18:31:53+01:00*%
%TF.ProjectId,HeCo,4865436f-2e6b-4696-9361-645f70636258,rev?*%
%TF.SameCoordinates,Original*%
%TF.FileFunction,Legend,Bot*%
%TF.FilePolarity,Positive*%
%FSLAX46Y46*%
G04 Gerber Fmt 4.6, Leading zero omitted, Abs format (unit mm)*
G04 Created by KiCad (PCBNEW (5.1.10)-1) date 2021-11-13 18:31:53*
%MOMM*%
%LPD*%
G01*
G04 APERTURE LIST*
%ADD10C,0.150000*%
%ADD11C,0.120000*%
%ADD12C,0.002540*%
G04 APERTURE END LIST*
D10*
X117600000Y-130678571D02*
X117600000Y-129178571D01*
X117600000Y-129892857D02*
X116742857Y-129892857D01*
X116742857Y-130678571D02*
X116742857Y-129178571D01*
X115457142Y-130607142D02*
X115600000Y-130678571D01*
X115885714Y-130678571D01*
X116028571Y-130607142D01*
X116100000Y-130464285D01*
X116100000Y-129892857D01*
X116028571Y-129750000D01*
X115885714Y-129678571D01*
X115600000Y-129678571D01*
X115457142Y-129750000D01*
X115385714Y-129892857D01*
X115385714Y-130035714D01*
X116100000Y-130178571D01*
X113885714Y-130535714D02*
X113957142Y-130607142D01*
X114171428Y-130678571D01*
X114314285Y-130678571D01*
X114528571Y-130607142D01*
X114671428Y-130464285D01*
X114742857Y-130321428D01*
X114814285Y-130035714D01*
X114814285Y-129821428D01*
X114742857Y-129535714D01*
X114671428Y-129392857D01*
X114528571Y-129250000D01*
X114314285Y-129178571D01*
X114171428Y-129178571D01*
X113957142Y-129250000D01*
X113885714Y-129321428D01*
X113028571Y-130678571D02*
X113171428Y-130607142D01*
X113242857Y-130535714D01*
X113314285Y-130392857D01*
X113314285Y-129964285D01*
X113242857Y-129821428D01*
X113171428Y-129750000D01*
X113028571Y-129678571D01*
X112814285Y-129678571D01*
X112671428Y-129750000D01*
X112600000Y-129821428D01*
X112528571Y-129964285D01*
X112528571Y-130392857D01*
X112600000Y-130535714D01*
X112671428Y-130607142D01*
X112814285Y-130678571D01*
X113028571Y-130678571D01*
X110957142Y-129178571D02*
X110457142Y-130678571D01*
X109957142Y-129178571D01*
X108671428Y-130678571D02*
X109528571Y-130678571D01*
X109100000Y-130678571D02*
X109100000Y-129178571D01*
X109242857Y-129392857D01*
X109385714Y-129535714D01*
X109528571Y-129607142D01*
X108028571Y-130535714D02*
X107957142Y-130607142D01*
X108028571Y-130678571D01*
X108100000Y-130607142D01*
X108028571Y-130535714D01*
X108028571Y-130678571D01*
X107028571Y-129178571D02*
X106885714Y-129178571D01*
X106742857Y-129250000D01*
X106671428Y-129321428D01*
X106600000Y-129464285D01*
X106528571Y-129750000D01*
X106528571Y-130107142D01*
X106600000Y-130392857D01*
X106671428Y-130535714D01*
X106742857Y-130607142D01*
X106885714Y-130678571D01*
X107028571Y-130678571D01*
X107171428Y-130607142D01*
X107242857Y-130535714D01*
X107314285Y-130392857D01*
X107385714Y-130107142D01*
X107385714Y-129750000D01*
X107314285Y-129464285D01*
X107242857Y-129321428D01*
X107171428Y-129250000D01*
X107028571Y-129178571D01*
D11*
X167400000Y-105500000D02*
X167400000Y-106400000D01*
X157000000Y-105500000D02*
X157000000Y-106400000D01*
X169300000Y-128200000D02*
X169300000Y-122900000D01*
X140550000Y-128200000D02*
X169300000Y-128200000D01*
X140550000Y-107050000D02*
X140550000Y-128200000D01*
X169300000Y-107000000D02*
X140550000Y-107050000D01*
X168900000Y-122400000D02*
X168300000Y-123550000D01*
X168900000Y-117550000D02*
X168900000Y-122400000D01*
X168350000Y-116950000D02*
X168900000Y-117550000D01*
X168350000Y-126450000D02*
X165750000Y-126450000D01*
X168350000Y-124950000D02*
X165750000Y-124950000D01*
X168350000Y-123550000D02*
X165750000Y-123550000D01*
X168350000Y-127800000D02*
X168350000Y-123550000D01*
X165750000Y-127800000D02*
X168350000Y-127800000D01*
X165750000Y-123550000D02*
X165750000Y-127800000D01*
D10*
X168078571Y-127561904D02*
X168078571Y-126761904D01*
X167811904Y-127333333D01*
X167545238Y-126761904D01*
X167545238Y-127561904D01*
X167202380Y-127523809D02*
X167088095Y-127561904D01*
X166897619Y-127561904D01*
X166821428Y-127523809D01*
X166783333Y-127485714D01*
X166745238Y-127409523D01*
X166745238Y-127333333D01*
X166783333Y-127257142D01*
X166821428Y-127219047D01*
X166897619Y-127180952D01*
X167050000Y-127142857D01*
X167126190Y-127104761D01*
X167164285Y-127066666D01*
X167202380Y-126990476D01*
X167202380Y-126914285D01*
X167164285Y-126838095D01*
X167126190Y-126800000D01*
X167050000Y-126761904D01*
X166859523Y-126761904D01*
X166745238Y-126800000D01*
X166478571Y-126761904D02*
X165983333Y-126761904D01*
X166250000Y-127066666D01*
X166135714Y-127066666D01*
X166059523Y-127104761D01*
X166021428Y-127142857D01*
X165983333Y-127219047D01*
X165983333Y-127409523D01*
X166021428Y-127485714D01*
X166059523Y-127523809D01*
X166135714Y-127561904D01*
X166364285Y-127561904D01*
X166440476Y-127523809D01*
X166478571Y-127485714D01*
X168078571Y-126161904D02*
X168078571Y-125361904D01*
X167811904Y-125933333D01*
X167545238Y-125361904D01*
X167545238Y-126161904D01*
X167202380Y-126123809D02*
X167088095Y-126161904D01*
X166897619Y-126161904D01*
X166821428Y-126123809D01*
X166783333Y-126085714D01*
X166745238Y-126009523D01*
X166745238Y-125933333D01*
X166783333Y-125857142D01*
X166821428Y-125819047D01*
X166897619Y-125780952D01*
X167050000Y-125742857D01*
X167126190Y-125704761D01*
X167164285Y-125666666D01*
X167202380Y-125590476D01*
X167202380Y-125514285D01*
X167164285Y-125438095D01*
X167126190Y-125400000D01*
X167050000Y-125361904D01*
X166859523Y-125361904D01*
X166745238Y-125400000D01*
X166440476Y-125438095D02*
X166402380Y-125400000D01*
X166326190Y-125361904D01*
X166135714Y-125361904D01*
X166059523Y-125400000D01*
X166021428Y-125438095D01*
X165983333Y-125514285D01*
X165983333Y-125590476D01*
X166021428Y-125704761D01*
X166478571Y-126161904D01*
X165983333Y-126161904D01*
X168078571Y-124611904D02*
X168078571Y-123811904D01*
X167811904Y-124383333D01*
X167545238Y-123811904D01*
X167545238Y-124611904D01*
X167202380Y-124573809D02*
X167088095Y-124611904D01*
X166897619Y-124611904D01*
X166821428Y-124573809D01*
X166783333Y-124535714D01*
X166745238Y-124459523D01*
X166745238Y-124383333D01*
X166783333Y-124307142D01*
X166821428Y-124269047D01*
X166897619Y-124230952D01*
X167050000Y-124192857D01*
X167126190Y-124154761D01*
X167164285Y-124116666D01*
X167202380Y-124040476D01*
X167202380Y-123964285D01*
X167164285Y-123888095D01*
X167126190Y-123850000D01*
X167050000Y-123811904D01*
X166859523Y-123811904D01*
X166745238Y-123850000D01*
X165983333Y-124611904D02*
X166440476Y-124611904D01*
X166211904Y-124611904D02*
X166211904Y-123811904D01*
X166288095Y-123926190D01*
X166364285Y-124002380D01*
X166440476Y-124040476D01*
D11*
X168450000Y-112150000D02*
X163500000Y-112150000D01*
X168450000Y-114600000D02*
X163500000Y-114600000D01*
X168450000Y-117000000D02*
X163500000Y-117000000D01*
X168450000Y-109500000D02*
X168450000Y-117000000D01*
X163500000Y-109500000D02*
X163500000Y-117000000D01*
X168450000Y-109500000D02*
X163500000Y-109500000D01*
D10*
X156802380Y-126173809D02*
X156688095Y-126211904D01*
X156497619Y-126211904D01*
X156421428Y-126173809D01*
X156383333Y-126135714D01*
X156345238Y-126059523D01*
X156345238Y-125983333D01*
X156383333Y-125907142D01*
X156421428Y-125869047D01*
X156497619Y-125830952D01*
X156650000Y-125792857D01*
X156726190Y-125754761D01*
X156764285Y-125716666D01*
X156802380Y-125640476D01*
X156802380Y-125564285D01*
X156764285Y-125488095D01*
X156726190Y-125450000D01*
X156650000Y-125411904D01*
X156459523Y-125411904D01*
X156345238Y-125450000D01*
X156116666Y-125678571D02*
X155811904Y-125678571D01*
X156002380Y-125411904D02*
X156002380Y-126097619D01*
X155964285Y-126173809D01*
X155888095Y-126211904D01*
X155811904Y-126211904D01*
X155240476Y-126173809D02*
X155316666Y-126211904D01*
X155469047Y-126211904D01*
X155545238Y-126173809D01*
X155583333Y-126097619D01*
X155583333Y-125792857D01*
X155545238Y-125716666D01*
X155469047Y-125678571D01*
X155316666Y-125678571D01*
X155240476Y-125716666D01*
X155202380Y-125792857D01*
X155202380Y-125869047D01*
X155583333Y-125945238D01*
X154859523Y-125678571D02*
X154859523Y-126478571D01*
X154859523Y-125716666D02*
X154783333Y-125678571D01*
X154630952Y-125678571D01*
X154554761Y-125716666D01*
X154516666Y-125754761D01*
X154478571Y-125830952D01*
X154478571Y-126059523D01*
X154516666Y-126135714D01*
X154554761Y-126173809D01*
X154630952Y-126211904D01*
X154783333Y-126211904D01*
X154859523Y-126173809D01*
X154135714Y-125678571D02*
X154135714Y-126478571D01*
X154135714Y-125716666D02*
X154059523Y-125678571D01*
X153907142Y-125678571D01*
X153830952Y-125716666D01*
X153792857Y-125754761D01*
X153754761Y-125830952D01*
X153754761Y-126059523D01*
X153792857Y-126135714D01*
X153830952Y-126173809D01*
X153907142Y-126211904D01*
X154059523Y-126211904D01*
X154135714Y-126173809D01*
X153107142Y-126173809D02*
X153183333Y-126211904D01*
X153335714Y-126211904D01*
X153411904Y-126173809D01*
X153450000Y-126097619D01*
X153450000Y-125792857D01*
X153411904Y-125716666D01*
X153335714Y-125678571D01*
X153183333Y-125678571D01*
X153107142Y-125716666D01*
X153069047Y-125792857D01*
X153069047Y-125869047D01*
X153450000Y-125945238D01*
X152726190Y-126211904D02*
X152726190Y-125678571D01*
X152726190Y-125830952D02*
X152688095Y-125754761D01*
X152650000Y-125716666D01*
X152573809Y-125678571D01*
X152497619Y-125678571D01*
X151621428Y-126211904D02*
X151621428Y-125411904D01*
X151430952Y-125411904D01*
X151316666Y-125450000D01*
X151240476Y-125526190D01*
X151202380Y-125602380D01*
X151164285Y-125754761D01*
X151164285Y-125869047D01*
X151202380Y-126021428D01*
X151240476Y-126097619D01*
X151316666Y-126173809D01*
X151430952Y-126211904D01*
X151621428Y-126211904D01*
X150821428Y-126211904D02*
X150821428Y-125678571D01*
X150821428Y-125830952D02*
X150783333Y-125754761D01*
X150745238Y-125716666D01*
X150669047Y-125678571D01*
X150592857Y-125678571D01*
X150326190Y-126211904D02*
X150326190Y-125678571D01*
X150326190Y-125411904D02*
X150364285Y-125450000D01*
X150326190Y-125488095D01*
X150288095Y-125450000D01*
X150326190Y-125411904D01*
X150326190Y-125488095D01*
X150021428Y-125678571D02*
X149830952Y-126211904D01*
X149640476Y-125678571D01*
X149030952Y-126173809D02*
X149107142Y-126211904D01*
X149259523Y-126211904D01*
X149335714Y-126173809D01*
X149373809Y-126097619D01*
X149373809Y-125792857D01*
X149335714Y-125716666D01*
X149259523Y-125678571D01*
X149107142Y-125678571D01*
X149030952Y-125716666D01*
X148992857Y-125792857D01*
X148992857Y-125869047D01*
X149373809Y-125945238D01*
X148650000Y-126211904D02*
X148650000Y-125678571D01*
X148650000Y-125830952D02*
X148611904Y-125754761D01*
X148573809Y-125716666D01*
X148497619Y-125678571D01*
X148421428Y-125678571D01*
X157395238Y-113042857D02*
X157128571Y-113042857D01*
X157014285Y-113461904D02*
X157395238Y-113461904D01*
X157395238Y-112661904D01*
X157014285Y-112661904D01*
X156671428Y-112928571D02*
X156671428Y-113461904D01*
X156671428Y-113004761D02*
X156633333Y-112966666D01*
X156557142Y-112928571D01*
X156442857Y-112928571D01*
X156366666Y-112966666D01*
X156328571Y-113042857D01*
X156328571Y-113461904D01*
X155947619Y-113385714D02*
X155909523Y-113423809D01*
X155947619Y-113461904D01*
X155985714Y-113423809D01*
X155947619Y-113385714D01*
X155947619Y-113461904D01*
X155947619Y-112966666D02*
X155909523Y-113004761D01*
X155947619Y-113042857D01*
X155985714Y-113004761D01*
X155947619Y-112966666D01*
X155947619Y-113042857D01*
X155566666Y-113461904D02*
X155566666Y-112661904D01*
X155033333Y-112661904D02*
X154880952Y-112661904D01*
X154804761Y-112700000D01*
X154728571Y-112776190D01*
X154690476Y-112928571D01*
X154690476Y-113195238D01*
X154728571Y-113347619D01*
X154804761Y-113423809D01*
X154880952Y-113461904D01*
X155033333Y-113461904D01*
X155109523Y-113423809D01*
X155185714Y-113347619D01*
X155223809Y-113195238D01*
X155223809Y-112928571D01*
X155185714Y-112776190D01*
X155109523Y-112700000D01*
X155033333Y-112661904D01*
X154385714Y-112738095D02*
X154347619Y-112700000D01*
X154271428Y-112661904D01*
X154080952Y-112661904D01*
X154004761Y-112700000D01*
X153966666Y-112738095D01*
X153928571Y-112814285D01*
X153928571Y-112890476D01*
X153966666Y-113004761D01*
X154423809Y-113461904D01*
X153928571Y-113461904D01*
X153661904Y-112661904D02*
X153166666Y-112661904D01*
X153433333Y-112966666D01*
X153319047Y-112966666D01*
X153242857Y-113004761D01*
X153204761Y-113042857D01*
X153166666Y-113119047D01*
X153166666Y-113309523D01*
X153204761Y-113385714D01*
X153242857Y-113423809D01*
X153319047Y-113461904D01*
X153547619Y-113461904D01*
X153623809Y-113423809D01*
X153661904Y-113385714D01*
D11*
X169300000Y-107000000D02*
X169300000Y-122900000D01*
X154700000Y-100600000D02*
X154700000Y-106400000D01*
X143200000Y-100600000D02*
X154700000Y-100600000D01*
X143200000Y-106400000D02*
X143200000Y-100600000D01*
X154700000Y-106400000D02*
X143200000Y-106400000D01*
D10*
X152414285Y-105842857D02*
X152680952Y-105842857D01*
X152680952Y-106261904D02*
X152680952Y-105461904D01*
X152300000Y-105461904D01*
X151995238Y-106261904D02*
X151995238Y-105728571D01*
X151995238Y-105461904D02*
X152033333Y-105500000D01*
X151995238Y-105538095D01*
X151957142Y-105500000D01*
X151995238Y-105461904D01*
X151995238Y-105538095D01*
X151690476Y-106261904D02*
X151271428Y-105728571D01*
X151690476Y-105728571D02*
X151271428Y-106261904D01*
X150661904Y-106223809D02*
X150738095Y-106261904D01*
X150890476Y-106261904D01*
X150966666Y-106223809D01*
X151004761Y-106147619D01*
X151004761Y-105842857D01*
X150966666Y-105766666D01*
X150890476Y-105728571D01*
X150738095Y-105728571D01*
X150661904Y-105766666D01*
X150623809Y-105842857D01*
X150623809Y-105919047D01*
X151004761Y-105995238D01*
X149938095Y-106261904D02*
X149938095Y-105461904D01*
X149938095Y-106223809D02*
X150014285Y-106261904D01*
X150166666Y-106261904D01*
X150242857Y-106223809D01*
X150280952Y-106185714D01*
X150319047Y-106109523D01*
X150319047Y-105880952D01*
X150280952Y-105804761D01*
X150242857Y-105766666D01*
X150166666Y-105728571D01*
X150014285Y-105728571D01*
X149938095Y-105766666D01*
X148985714Y-105538095D02*
X148947619Y-105500000D01*
X148871428Y-105461904D01*
X148680952Y-105461904D01*
X148604761Y-105500000D01*
X148566666Y-105538095D01*
X148528571Y-105614285D01*
X148528571Y-105690476D01*
X148566666Y-105804761D01*
X149023809Y-106261904D01*
X148528571Y-106261904D01*
X147842857Y-105728571D02*
X147842857Y-106261904D01*
X148033333Y-105423809D02*
X148223809Y-105995238D01*
X147728571Y-105995238D01*
X147538095Y-105461904D02*
X147271428Y-106261904D01*
X147004761Y-105461904D01*
D11*
X134000000Y-103600000D02*
X133800000Y-103800000D01*
X124600000Y-103700000D02*
X124300000Y-103800000D01*
X121900000Y-112300000D02*
X107300000Y-112300000D01*
X121900000Y-100600000D02*
X107300000Y-100600000D01*
X121900000Y-105800000D02*
X107300000Y-105800000D01*
X107300000Y-100600000D02*
X107300000Y-112200000D01*
X109400000Y-102800000D02*
X108600000Y-103600000D01*
X115300000Y-104000000D02*
X114800000Y-104500000D01*
X115300000Y-103000000D02*
X115300000Y-104000000D01*
D10*
X121261904Y-107361904D02*
X120461904Y-107361904D01*
X120461904Y-107552380D01*
X120500000Y-107666666D01*
X120576190Y-107742857D01*
X120652380Y-107780952D01*
X120804761Y-107819047D01*
X120919047Y-107819047D01*
X121071428Y-107780952D01*
X121147619Y-107742857D01*
X121223809Y-107666666D01*
X121261904Y-107552380D01*
X121261904Y-107361904D01*
X121223809Y-108466666D02*
X121261904Y-108390476D01*
X121261904Y-108238095D01*
X121223809Y-108161904D01*
X121147619Y-108123809D01*
X120842857Y-108123809D01*
X120766666Y-108161904D01*
X120728571Y-108238095D01*
X120728571Y-108390476D01*
X120766666Y-108466666D01*
X120842857Y-108504761D01*
X120919047Y-108504761D01*
X120995238Y-108123809D01*
X121261904Y-108847619D02*
X120461904Y-108847619D01*
X120766666Y-108847619D02*
X120728571Y-108923809D01*
X120728571Y-109076190D01*
X120766666Y-109152380D01*
X120804761Y-109190476D01*
X120880952Y-109228571D01*
X121109523Y-109228571D01*
X121185714Y-109190476D01*
X121223809Y-109152380D01*
X121261904Y-109076190D01*
X121261904Y-108923809D01*
X121223809Y-108847619D01*
X120728571Y-109914285D02*
X121261904Y-109914285D01*
X120728571Y-109571428D02*
X121147619Y-109571428D01*
X121223809Y-109609523D01*
X121261904Y-109685714D01*
X121261904Y-109800000D01*
X121223809Y-109876190D01*
X121185714Y-109914285D01*
X120728571Y-110638095D02*
X121376190Y-110638095D01*
X121452380Y-110600000D01*
X121490476Y-110561904D01*
X121528571Y-110485714D01*
X121528571Y-110371428D01*
X121490476Y-110295238D01*
X121223809Y-110638095D02*
X121261904Y-110561904D01*
X121261904Y-110409523D01*
X121223809Y-110333333D01*
X121185714Y-110295238D01*
X121109523Y-110257142D01*
X120880952Y-110257142D01*
X120804761Y-110295238D01*
X120766666Y-110333333D01*
X120728571Y-110409523D01*
X120728571Y-110561904D01*
X120766666Y-110638095D01*
D11*
X121900000Y-112200000D02*
X121900000Y-100600000D01*
D10*
X112400000Y-108690476D02*
X112361904Y-108614285D01*
X112361904Y-108500000D01*
X112400000Y-108385714D01*
X112476190Y-108309523D01*
X112552380Y-108271428D01*
X112704761Y-108233333D01*
X112819047Y-108233333D01*
X112971428Y-108271428D01*
X113047619Y-108309523D01*
X113123809Y-108385714D01*
X113161904Y-108500000D01*
X113161904Y-108576190D01*
X113123809Y-108690476D01*
X113085714Y-108728571D01*
X112819047Y-108728571D01*
X112819047Y-108576190D01*
X113161904Y-109071428D02*
X112361904Y-109071428D01*
X113161904Y-109528571D01*
X112361904Y-109528571D01*
X113161904Y-109909523D02*
X112361904Y-109909523D01*
X112361904Y-110100000D01*
X112400000Y-110214285D01*
X112476190Y-110290476D01*
X112552380Y-110328571D01*
X112704761Y-110366666D01*
X112819047Y-110366666D01*
X112971428Y-110328571D01*
X113047619Y-110290476D01*
X113123809Y-110214285D01*
X113161904Y-110100000D01*
X113161904Y-109909523D01*
X145288095Y-117361904D02*
X145554761Y-116980952D01*
X145745238Y-117361904D02*
X145745238Y-116561904D01*
X145440476Y-116561904D01*
X145364285Y-116600000D01*
X145326190Y-116638095D01*
X145288095Y-116714285D01*
X145288095Y-116828571D01*
X145326190Y-116904761D01*
X145364285Y-116942857D01*
X145440476Y-116980952D01*
X145745238Y-116980952D01*
X145021428Y-117361904D02*
X144602380Y-116828571D01*
X145021428Y-116828571D02*
X144602380Y-117361904D01*
X144297619Y-117285714D02*
X144259523Y-117323809D01*
X144297619Y-117361904D01*
X144335714Y-117323809D01*
X144297619Y-117285714D01*
X144297619Y-117361904D01*
X144297619Y-116866666D02*
X144259523Y-116904761D01*
X144297619Y-116942857D01*
X144335714Y-116904761D01*
X144297619Y-116866666D01*
X144297619Y-116942857D01*
X143916666Y-117361904D02*
X143916666Y-116561904D01*
X143383333Y-116561904D02*
X143230952Y-116561904D01*
X143154761Y-116600000D01*
X143078571Y-116676190D01*
X143040476Y-116828571D01*
X143040476Y-117095238D01*
X143078571Y-117247619D01*
X143154761Y-117323809D01*
X143230952Y-117361904D01*
X143383333Y-117361904D01*
X143459523Y-117323809D01*
X143535714Y-117247619D01*
X143573809Y-117095238D01*
X143573809Y-116828571D01*
X143535714Y-116676190D01*
X143459523Y-116600000D01*
X143383333Y-116561904D01*
X142545238Y-116561904D02*
X142469047Y-116561904D01*
X142392857Y-116600000D01*
X142354761Y-116638095D01*
X142316666Y-116714285D01*
X142278571Y-116866666D01*
X142278571Y-117057142D01*
X142316666Y-117209523D01*
X142354761Y-117285714D01*
X142392857Y-117323809D01*
X142469047Y-117361904D01*
X142545238Y-117361904D01*
X142621428Y-117323809D01*
X142659523Y-117285714D01*
X142697619Y-117209523D01*
X142735714Y-117057142D01*
X142735714Y-116866666D01*
X142697619Y-116714285D01*
X142659523Y-116638095D01*
X142621428Y-116600000D01*
X142545238Y-116561904D01*
X141592857Y-116828571D02*
X141592857Y-117361904D01*
X141783333Y-116523809D02*
X141973809Y-117095238D01*
X141478571Y-117095238D01*
X145447619Y-119685714D02*
X145485714Y-119723809D01*
X145600000Y-119761904D01*
X145676190Y-119761904D01*
X145790476Y-119723809D01*
X145866666Y-119647619D01*
X145904761Y-119571428D01*
X145942857Y-119419047D01*
X145942857Y-119304761D01*
X145904761Y-119152380D01*
X145866666Y-119076190D01*
X145790476Y-119000000D01*
X145676190Y-118961904D01*
X145600000Y-118961904D01*
X145485714Y-119000000D01*
X145447619Y-119038095D01*
X144990476Y-119761904D02*
X145066666Y-119723809D01*
X145104761Y-119647619D01*
X145104761Y-118961904D01*
X144685714Y-119761904D02*
X144685714Y-118961904D01*
X144609523Y-119457142D02*
X144380952Y-119761904D01*
X144380952Y-119228571D02*
X144685714Y-119533333D01*
X144038095Y-119685714D02*
X144000000Y-119723809D01*
X144038095Y-119761904D01*
X144076190Y-119723809D01*
X144038095Y-119685714D01*
X144038095Y-119761904D01*
X144038095Y-119266666D02*
X144000000Y-119304761D01*
X144038095Y-119342857D01*
X144076190Y-119304761D01*
X144038095Y-119266666D01*
X144038095Y-119342857D01*
X143657142Y-119761904D02*
X143657142Y-118961904D01*
X143123809Y-118961904D02*
X142971428Y-118961904D01*
X142895238Y-119000000D01*
X142819047Y-119076190D01*
X142780952Y-119228571D01*
X142780952Y-119495238D01*
X142819047Y-119647619D01*
X142895238Y-119723809D01*
X142971428Y-119761904D01*
X143123809Y-119761904D01*
X143200000Y-119723809D01*
X143276190Y-119647619D01*
X143314285Y-119495238D01*
X143314285Y-119228571D01*
X143276190Y-119076190D01*
X143200000Y-119000000D01*
X143123809Y-118961904D01*
X142285714Y-118961904D02*
X142209523Y-118961904D01*
X142133333Y-119000000D01*
X142095238Y-119038095D01*
X142057142Y-119114285D01*
X142019047Y-119266666D01*
X142019047Y-119457142D01*
X142057142Y-119609523D01*
X142095238Y-119685714D01*
X142133333Y-119723809D01*
X142209523Y-119761904D01*
X142285714Y-119761904D01*
X142361904Y-119723809D01*
X142400000Y-119685714D01*
X142438095Y-119609523D01*
X142476190Y-119457142D01*
X142476190Y-119266666D01*
X142438095Y-119114285D01*
X142400000Y-119038095D01*
X142361904Y-119000000D01*
X142285714Y-118961904D01*
X141333333Y-118961904D02*
X141485714Y-118961904D01*
X141561904Y-119000000D01*
X141600000Y-119038095D01*
X141676190Y-119152380D01*
X141714285Y-119304761D01*
X141714285Y-119609523D01*
X141676190Y-119685714D01*
X141638095Y-119723809D01*
X141561904Y-119761904D01*
X141409523Y-119761904D01*
X141333333Y-119723809D01*
X141295238Y-119685714D01*
X141257142Y-119609523D01*
X141257142Y-119419047D01*
X141295238Y-119342857D01*
X141333333Y-119304761D01*
X141409523Y-119266666D01*
X141561904Y-119266666D01*
X141638095Y-119304761D01*
X141676190Y-119342857D01*
X141714285Y-119419047D01*
X145914285Y-120161904D02*
X145457142Y-120161904D01*
X145685714Y-120961904D02*
X145685714Y-120161904D01*
X145266666Y-120961904D02*
X144847619Y-120428571D01*
X145266666Y-120428571D02*
X144847619Y-120961904D01*
X144542857Y-120885714D02*
X144504761Y-120923809D01*
X144542857Y-120961904D01*
X144580952Y-120923809D01*
X144542857Y-120885714D01*
X144542857Y-120961904D01*
X144542857Y-120466666D02*
X144504761Y-120504761D01*
X144542857Y-120542857D01*
X144580952Y-120504761D01*
X144542857Y-120466666D01*
X144542857Y-120542857D01*
X144161904Y-120961904D02*
X144161904Y-120161904D01*
X143628571Y-120161904D02*
X143476190Y-120161904D01*
X143400000Y-120200000D01*
X143323809Y-120276190D01*
X143285714Y-120428571D01*
X143285714Y-120695238D01*
X143323809Y-120847619D01*
X143400000Y-120923809D01*
X143476190Y-120961904D01*
X143628571Y-120961904D01*
X143704761Y-120923809D01*
X143780952Y-120847619D01*
X143819047Y-120695238D01*
X143819047Y-120428571D01*
X143780952Y-120276190D01*
X143704761Y-120200000D01*
X143628571Y-120161904D01*
X142790476Y-120161904D02*
X142714285Y-120161904D01*
X142638095Y-120200000D01*
X142600000Y-120238095D01*
X142561904Y-120314285D01*
X142523809Y-120466666D01*
X142523809Y-120657142D01*
X142561904Y-120809523D01*
X142600000Y-120885714D01*
X142638095Y-120923809D01*
X142714285Y-120961904D01*
X142790476Y-120961904D01*
X142866666Y-120923809D01*
X142904761Y-120885714D01*
X142942857Y-120809523D01*
X142980952Y-120657142D01*
X142980952Y-120466666D01*
X142942857Y-120314285D01*
X142904761Y-120238095D01*
X142866666Y-120200000D01*
X142790476Y-120161904D01*
X142257142Y-120161904D02*
X141723809Y-120161904D01*
X142066666Y-120961904D01*
X145395238Y-118535714D02*
X145433333Y-118573809D01*
X145547619Y-118611904D01*
X145623809Y-118611904D01*
X145738095Y-118573809D01*
X145814285Y-118497619D01*
X145852380Y-118421428D01*
X145890476Y-118269047D01*
X145890476Y-118154761D01*
X145852380Y-118002380D01*
X145814285Y-117926190D01*
X145738095Y-117850000D01*
X145623809Y-117811904D01*
X145547619Y-117811904D01*
X145433333Y-117850000D01*
X145395238Y-117888095D01*
X145090476Y-118573809D02*
X144976190Y-118611904D01*
X144785714Y-118611904D01*
X144709523Y-118573809D01*
X144671428Y-118535714D01*
X144633333Y-118459523D01*
X144633333Y-118383333D01*
X144671428Y-118307142D01*
X144709523Y-118269047D01*
X144785714Y-118230952D01*
X144938095Y-118192857D01*
X145014285Y-118154761D01*
X145052380Y-118116666D01*
X145090476Y-118040476D01*
X145090476Y-117964285D01*
X145052380Y-117888095D01*
X145014285Y-117850000D01*
X144938095Y-117811904D01*
X144747619Y-117811904D01*
X144633333Y-117850000D01*
X144290476Y-118535714D02*
X144252380Y-118573809D01*
X144290476Y-118611904D01*
X144328571Y-118573809D01*
X144290476Y-118535714D01*
X144290476Y-118611904D01*
X144290476Y-118116666D02*
X144252380Y-118154761D01*
X144290476Y-118192857D01*
X144328571Y-118154761D01*
X144290476Y-118116666D01*
X144290476Y-118192857D01*
X143909523Y-118611904D02*
X143909523Y-117811904D01*
X143376190Y-117811904D02*
X143223809Y-117811904D01*
X143147619Y-117850000D01*
X143071428Y-117926190D01*
X143033333Y-118078571D01*
X143033333Y-118345238D01*
X143071428Y-118497619D01*
X143147619Y-118573809D01*
X143223809Y-118611904D01*
X143376190Y-118611904D01*
X143452380Y-118573809D01*
X143528571Y-118497619D01*
X143566666Y-118345238D01*
X143566666Y-118078571D01*
X143528571Y-117926190D01*
X143452380Y-117850000D01*
X143376190Y-117811904D01*
X142538095Y-117811904D02*
X142461904Y-117811904D01*
X142385714Y-117850000D01*
X142347619Y-117888095D01*
X142309523Y-117964285D01*
X142271428Y-118116666D01*
X142271428Y-118307142D01*
X142309523Y-118459523D01*
X142347619Y-118535714D01*
X142385714Y-118573809D01*
X142461904Y-118611904D01*
X142538095Y-118611904D01*
X142614285Y-118573809D01*
X142652380Y-118535714D01*
X142690476Y-118459523D01*
X142728571Y-118307142D01*
X142728571Y-118116666D01*
X142690476Y-117964285D01*
X142652380Y-117888095D01*
X142614285Y-117850000D01*
X142538095Y-117811904D01*
X141547619Y-117811904D02*
X141928571Y-117811904D01*
X141966666Y-118192857D01*
X141928571Y-118154761D01*
X141852380Y-118116666D01*
X141661904Y-118116666D01*
X141585714Y-118154761D01*
X141547619Y-118192857D01*
X141509523Y-118269047D01*
X141509523Y-118459523D01*
X141547619Y-118535714D01*
X141585714Y-118573809D01*
X141661904Y-118611904D01*
X141852380Y-118611904D01*
X141928571Y-118573809D01*
X141966666Y-118535714D01*
D11*
X120500000Y-136000000D02*
X120500000Y-133800000D01*
X129400000Y-136000000D02*
X120500000Y-136000000D01*
X129400000Y-133800000D02*
X129400000Y-136000000D01*
D10*
X129133333Y-135761904D02*
X129133333Y-134961904D01*
X128752380Y-135228571D02*
X128752380Y-135761904D01*
X128752380Y-135304761D02*
X128714285Y-135266666D01*
X128638095Y-135228571D01*
X128523809Y-135228571D01*
X128447619Y-135266666D01*
X128409523Y-135342857D01*
X128409523Y-135761904D01*
X128142857Y-135228571D02*
X127838095Y-135228571D01*
X128028571Y-134961904D02*
X128028571Y-135647619D01*
X127990476Y-135723809D01*
X127914285Y-135761904D01*
X127838095Y-135761904D01*
X127609523Y-135038095D02*
X127571428Y-135000000D01*
X127495238Y-134961904D01*
X127304761Y-134961904D01*
X127228571Y-135000000D01*
X127190476Y-135038095D01*
X127152380Y-135114285D01*
X127152380Y-135190476D01*
X127190476Y-135304761D01*
X127647619Y-135761904D01*
X127152380Y-135761904D01*
X126809523Y-135685714D02*
X126771428Y-135723809D01*
X126809523Y-135761904D01*
X126847619Y-135723809D01*
X126809523Y-135685714D01*
X126809523Y-135761904D01*
X126809523Y-135266666D02*
X126771428Y-135304761D01*
X126809523Y-135342857D01*
X126847619Y-135304761D01*
X126809523Y-135266666D01*
X126809523Y-135342857D01*
X126428571Y-135761904D02*
X126428571Y-134961904D01*
X125895238Y-134961904D02*
X125742857Y-134961904D01*
X125666666Y-135000000D01*
X125590476Y-135076190D01*
X125552380Y-135228571D01*
X125552380Y-135495238D01*
X125590476Y-135647619D01*
X125666666Y-135723809D01*
X125742857Y-135761904D01*
X125895238Y-135761904D01*
X125971428Y-135723809D01*
X126047619Y-135647619D01*
X126085714Y-135495238D01*
X126085714Y-135228571D01*
X126047619Y-135076190D01*
X125971428Y-135000000D01*
X125895238Y-134961904D01*
X125247619Y-135038095D02*
X125209523Y-135000000D01*
X125133333Y-134961904D01*
X124942857Y-134961904D01*
X124866666Y-135000000D01*
X124828571Y-135038095D01*
X124790476Y-135114285D01*
X124790476Y-135190476D01*
X124828571Y-135304761D01*
X125285714Y-135761904D01*
X124790476Y-135761904D01*
X124485714Y-135038095D02*
X124447619Y-135000000D01*
X124371428Y-134961904D01*
X124180952Y-134961904D01*
X124104761Y-135000000D01*
X124066666Y-135038095D01*
X124028571Y-135114285D01*
X124028571Y-135190476D01*
X124066666Y-135304761D01*
X124523809Y-135761904D01*
X124028571Y-135761904D01*
X129133333Y-134661904D02*
X129133333Y-133861904D01*
X128752380Y-134128571D02*
X128752380Y-134661904D01*
X128752380Y-134204761D02*
X128714285Y-134166666D01*
X128638095Y-134128571D01*
X128523809Y-134128571D01*
X128447619Y-134166666D01*
X128409523Y-134242857D01*
X128409523Y-134661904D01*
X128142857Y-134128571D02*
X127838095Y-134128571D01*
X128028571Y-133861904D02*
X128028571Y-134547619D01*
X127990476Y-134623809D01*
X127914285Y-134661904D01*
X127838095Y-134661904D01*
X127152380Y-134661904D02*
X127609523Y-134661904D01*
X127380952Y-134661904D02*
X127380952Y-133861904D01*
X127457142Y-133976190D01*
X127533333Y-134052380D01*
X127609523Y-134090476D01*
X126809523Y-134585714D02*
X126771428Y-134623809D01*
X126809523Y-134661904D01*
X126847619Y-134623809D01*
X126809523Y-134585714D01*
X126809523Y-134661904D01*
X126809523Y-134166666D02*
X126771428Y-134204761D01*
X126809523Y-134242857D01*
X126847619Y-134204761D01*
X126809523Y-134166666D01*
X126809523Y-134242857D01*
X126428571Y-134661904D02*
X126428571Y-133861904D01*
X125895238Y-133861904D02*
X125742857Y-133861904D01*
X125666666Y-133900000D01*
X125590476Y-133976190D01*
X125552380Y-134128571D01*
X125552380Y-134395238D01*
X125590476Y-134547619D01*
X125666666Y-134623809D01*
X125742857Y-134661904D01*
X125895238Y-134661904D01*
X125971428Y-134623809D01*
X126047619Y-134547619D01*
X126085714Y-134395238D01*
X126085714Y-134128571D01*
X126047619Y-133976190D01*
X125971428Y-133900000D01*
X125895238Y-133861904D01*
X125247619Y-133938095D02*
X125209523Y-133900000D01*
X125133333Y-133861904D01*
X124942857Y-133861904D01*
X124866666Y-133900000D01*
X124828571Y-133938095D01*
X124790476Y-134014285D01*
X124790476Y-134090476D01*
X124828571Y-134204761D01*
X125285714Y-134661904D01*
X124790476Y-134661904D01*
X124028571Y-134661904D02*
X124485714Y-134661904D01*
X124257142Y-134661904D02*
X124257142Y-133861904D01*
X124333333Y-133976190D01*
X124409523Y-134052380D01*
X124485714Y-134090476D01*
D11*
X120500000Y-126700000D02*
X129400000Y-126700000D01*
X120500000Y-133800000D02*
X120500000Y-126700000D01*
X129400000Y-126700000D02*
X129400000Y-133800000D01*
D10*
X128647619Y-132285714D02*
X128685714Y-132323809D01*
X128800000Y-132361904D01*
X128876190Y-132361904D01*
X128990476Y-132323809D01*
X129066666Y-132247619D01*
X129104761Y-132171428D01*
X129142857Y-132019047D01*
X129142857Y-131904761D01*
X129104761Y-131752380D01*
X129066666Y-131676190D01*
X128990476Y-131600000D01*
X128876190Y-131561904D01*
X128800000Y-131561904D01*
X128685714Y-131600000D01*
X128647619Y-131638095D01*
X128190476Y-132361904D02*
X128266666Y-132323809D01*
X128304761Y-132247619D01*
X128304761Y-131561904D01*
X127885714Y-132361904D02*
X127885714Y-131561904D01*
X127809523Y-132057142D02*
X127580952Y-132361904D01*
X127580952Y-131828571D02*
X127885714Y-132133333D01*
X127238095Y-132285714D02*
X127200000Y-132323809D01*
X127238095Y-132361904D01*
X127276190Y-132323809D01*
X127238095Y-132285714D01*
X127238095Y-132361904D01*
X127238095Y-131866666D02*
X127200000Y-131904761D01*
X127238095Y-131942857D01*
X127276190Y-131904761D01*
X127238095Y-131866666D01*
X127238095Y-131942857D01*
X126857142Y-132361904D02*
X126857142Y-131561904D01*
X126323809Y-131561904D02*
X126171428Y-131561904D01*
X126095238Y-131600000D01*
X126019047Y-131676190D01*
X125980952Y-131828571D01*
X125980952Y-132095238D01*
X126019047Y-132247619D01*
X126095238Y-132323809D01*
X126171428Y-132361904D01*
X126323809Y-132361904D01*
X126400000Y-132323809D01*
X126476190Y-132247619D01*
X126514285Y-132095238D01*
X126514285Y-131828571D01*
X126476190Y-131676190D01*
X126400000Y-131600000D01*
X126323809Y-131561904D01*
X125219047Y-132361904D02*
X125676190Y-132361904D01*
X125447619Y-132361904D02*
X125447619Y-131561904D01*
X125523809Y-131676190D01*
X125600000Y-131752380D01*
X125676190Y-131790476D01*
X124533333Y-131828571D02*
X124533333Y-132361904D01*
X124723809Y-131523809D02*
X124914285Y-132095238D01*
X124419047Y-132095238D01*
X129114285Y-132761904D02*
X128657142Y-132761904D01*
X128885714Y-133561904D02*
X128885714Y-132761904D01*
X128466666Y-133561904D02*
X128047619Y-133028571D01*
X128466666Y-133028571D02*
X128047619Y-133561904D01*
X127742857Y-133485714D02*
X127704761Y-133523809D01*
X127742857Y-133561904D01*
X127780952Y-133523809D01*
X127742857Y-133485714D01*
X127742857Y-133561904D01*
X127742857Y-133066666D02*
X127704761Y-133104761D01*
X127742857Y-133142857D01*
X127780952Y-133104761D01*
X127742857Y-133066666D01*
X127742857Y-133142857D01*
X127361904Y-133561904D02*
X127361904Y-132761904D01*
X126828571Y-132761904D02*
X126676190Y-132761904D01*
X126600000Y-132800000D01*
X126523809Y-132876190D01*
X126485714Y-133028571D01*
X126485714Y-133295238D01*
X126523809Y-133447619D01*
X126600000Y-133523809D01*
X126676190Y-133561904D01*
X126828571Y-133561904D01*
X126904761Y-133523809D01*
X126980952Y-133447619D01*
X127019047Y-133295238D01*
X127019047Y-133028571D01*
X126980952Y-132876190D01*
X126904761Y-132800000D01*
X126828571Y-132761904D01*
X125723809Y-133561904D02*
X126180952Y-133561904D01*
X125952380Y-133561904D02*
X125952380Y-132761904D01*
X126028571Y-132876190D01*
X126104761Y-132952380D01*
X126180952Y-132990476D01*
X125000000Y-132761904D02*
X125380952Y-132761904D01*
X125419047Y-133142857D01*
X125380952Y-133104761D01*
X125304761Y-133066666D01*
X125114285Y-133066666D01*
X125038095Y-133104761D01*
X125000000Y-133142857D01*
X124961904Y-133219047D01*
X124961904Y-133409523D01*
X125000000Y-133485714D01*
X125038095Y-133523809D01*
X125114285Y-133561904D01*
X125304761Y-133561904D01*
X125380952Y-133523809D01*
X125419047Y-133485714D01*
X128738095Y-130161904D02*
X129004761Y-129780952D01*
X129195238Y-130161904D02*
X129195238Y-129361904D01*
X128890476Y-129361904D01*
X128814285Y-129400000D01*
X128776190Y-129438095D01*
X128738095Y-129514285D01*
X128738095Y-129628571D01*
X128776190Y-129704761D01*
X128814285Y-129742857D01*
X128890476Y-129780952D01*
X129195238Y-129780952D01*
X128471428Y-130161904D02*
X128052380Y-129628571D01*
X128471428Y-129628571D02*
X128052380Y-130161904D01*
X127747619Y-130085714D02*
X127709523Y-130123809D01*
X127747619Y-130161904D01*
X127785714Y-130123809D01*
X127747619Y-130085714D01*
X127747619Y-130161904D01*
X127747619Y-129666666D02*
X127709523Y-129704761D01*
X127747619Y-129742857D01*
X127785714Y-129704761D01*
X127747619Y-129666666D01*
X127747619Y-129742857D01*
X127366666Y-130161904D02*
X127366666Y-129361904D01*
X126833333Y-129361904D02*
X126680952Y-129361904D01*
X126604761Y-129400000D01*
X126528571Y-129476190D01*
X126490476Y-129628571D01*
X126490476Y-129895238D01*
X126528571Y-130047619D01*
X126604761Y-130123809D01*
X126680952Y-130161904D01*
X126833333Y-130161904D01*
X126909523Y-130123809D01*
X126985714Y-130047619D01*
X127023809Y-129895238D01*
X127023809Y-129628571D01*
X126985714Y-129476190D01*
X126909523Y-129400000D01*
X126833333Y-129361904D01*
X125728571Y-130161904D02*
X126185714Y-130161904D01*
X125957142Y-130161904D02*
X125957142Y-129361904D01*
X126033333Y-129476190D01*
X126109523Y-129552380D01*
X126185714Y-129590476D01*
X125423809Y-129438095D02*
X125385714Y-129400000D01*
X125309523Y-129361904D01*
X125119047Y-129361904D01*
X125042857Y-129400000D01*
X125004761Y-129438095D01*
X124966666Y-129514285D01*
X124966666Y-129590476D01*
X125004761Y-129704761D01*
X125461904Y-130161904D01*
X124966666Y-130161904D01*
X128695238Y-131185714D02*
X128733333Y-131223809D01*
X128847619Y-131261904D01*
X128923809Y-131261904D01*
X129038095Y-131223809D01*
X129114285Y-131147619D01*
X129152380Y-131071428D01*
X129190476Y-130919047D01*
X129190476Y-130804761D01*
X129152380Y-130652380D01*
X129114285Y-130576190D01*
X129038095Y-130500000D01*
X128923809Y-130461904D01*
X128847619Y-130461904D01*
X128733333Y-130500000D01*
X128695238Y-130538095D01*
X128390476Y-131223809D02*
X128276190Y-131261904D01*
X128085714Y-131261904D01*
X128009523Y-131223809D01*
X127971428Y-131185714D01*
X127933333Y-131109523D01*
X127933333Y-131033333D01*
X127971428Y-130957142D01*
X128009523Y-130919047D01*
X128085714Y-130880952D01*
X128238095Y-130842857D01*
X128314285Y-130804761D01*
X128352380Y-130766666D01*
X128390476Y-130690476D01*
X128390476Y-130614285D01*
X128352380Y-130538095D01*
X128314285Y-130500000D01*
X128238095Y-130461904D01*
X128047619Y-130461904D01*
X127933333Y-130500000D01*
X127590476Y-131185714D02*
X127552380Y-131223809D01*
X127590476Y-131261904D01*
X127628571Y-131223809D01*
X127590476Y-131185714D01*
X127590476Y-131261904D01*
X127590476Y-130766666D02*
X127552380Y-130804761D01*
X127590476Y-130842857D01*
X127628571Y-130804761D01*
X127590476Y-130766666D01*
X127590476Y-130842857D01*
X127209523Y-131261904D02*
X127209523Y-130461904D01*
X126676190Y-130461904D02*
X126523809Y-130461904D01*
X126447619Y-130500000D01*
X126371428Y-130576190D01*
X126333333Y-130728571D01*
X126333333Y-130995238D01*
X126371428Y-131147619D01*
X126447619Y-131223809D01*
X126523809Y-131261904D01*
X126676190Y-131261904D01*
X126752380Y-131223809D01*
X126828571Y-131147619D01*
X126866666Y-130995238D01*
X126866666Y-130728571D01*
X126828571Y-130576190D01*
X126752380Y-130500000D01*
X126676190Y-130461904D01*
X125571428Y-131261904D02*
X126028571Y-131261904D01*
X125800000Y-131261904D02*
X125800000Y-130461904D01*
X125876190Y-130576190D01*
X125952380Y-130652380D01*
X126028571Y-130690476D01*
X125304761Y-130461904D02*
X124809523Y-130461904D01*
X125076190Y-130766666D01*
X124961904Y-130766666D01*
X124885714Y-130804761D01*
X124847619Y-130842857D01*
X124809523Y-130919047D01*
X124809523Y-131109523D01*
X124847619Y-131185714D01*
X124885714Y-131223809D01*
X124961904Y-131261904D01*
X125190476Y-131261904D01*
X125266666Y-131223809D01*
X125304761Y-131185714D01*
X145800000Y-116023809D02*
X145685714Y-116061904D01*
X145495238Y-116061904D01*
X145419047Y-116023809D01*
X145380952Y-115985714D01*
X145342857Y-115909523D01*
X145342857Y-115833333D01*
X145380952Y-115757142D01*
X145419047Y-115719047D01*
X145495238Y-115680952D01*
X145647619Y-115642857D01*
X145723809Y-115604761D01*
X145761904Y-115566666D01*
X145800000Y-115490476D01*
X145800000Y-115414285D01*
X145761904Y-115338095D01*
X145723809Y-115300000D01*
X145647619Y-115261904D01*
X145457142Y-115261904D01*
X145342857Y-115300000D01*
X145000000Y-116061904D02*
X145000000Y-115261904D01*
X144695238Y-115261904D01*
X144619047Y-115300000D01*
X144580952Y-115338095D01*
X144542857Y-115414285D01*
X144542857Y-115528571D01*
X144580952Y-115604761D01*
X144619047Y-115642857D01*
X144695238Y-115680952D01*
X145000000Y-115680952D01*
X144200000Y-116061904D02*
X144200000Y-115261904D01*
X143666666Y-115261904D02*
X143590476Y-115261904D01*
X143514285Y-115300000D01*
X143476190Y-115338095D01*
X143438095Y-115414285D01*
X143400000Y-115566666D01*
X143400000Y-115757142D01*
X143438095Y-115909523D01*
X143476190Y-115985714D01*
X143514285Y-116023809D01*
X143590476Y-116061904D01*
X143666666Y-116061904D01*
X143742857Y-116023809D01*
X143780952Y-115985714D01*
X143819047Y-115909523D01*
X143857142Y-115757142D01*
X143857142Y-115566666D01*
X143819047Y-115414285D01*
X143780952Y-115338095D01*
X143742857Y-115300000D01*
X143666666Y-115261904D01*
X129200000Y-128923809D02*
X129085714Y-128961904D01*
X128895238Y-128961904D01*
X128819047Y-128923809D01*
X128780952Y-128885714D01*
X128742857Y-128809523D01*
X128742857Y-128733333D01*
X128780952Y-128657142D01*
X128819047Y-128619047D01*
X128895238Y-128580952D01*
X129047619Y-128542857D01*
X129123809Y-128504761D01*
X129161904Y-128466666D01*
X129200000Y-128390476D01*
X129200000Y-128314285D01*
X129161904Y-128238095D01*
X129123809Y-128200000D01*
X129047619Y-128161904D01*
X128857142Y-128161904D01*
X128742857Y-128200000D01*
X128400000Y-128961904D02*
X128400000Y-128161904D01*
X128095238Y-128161904D01*
X128019047Y-128200000D01*
X127980952Y-128238095D01*
X127942857Y-128314285D01*
X127942857Y-128428571D01*
X127980952Y-128504761D01*
X128019047Y-128542857D01*
X128095238Y-128580952D01*
X128400000Y-128580952D01*
X127600000Y-128961904D02*
X127600000Y-128161904D01*
X126800000Y-128961904D02*
X127257142Y-128961904D01*
X127028571Y-128961904D02*
X127028571Y-128161904D01*
X127104761Y-128276190D01*
X127180952Y-128352380D01*
X127257142Y-128390476D01*
X129076190Y-127533333D02*
X128695238Y-127533333D01*
X129152380Y-127761904D02*
X128885714Y-126961904D01*
X128619047Y-127761904D01*
X128009523Y-127723809D02*
X128085714Y-127761904D01*
X128238095Y-127761904D01*
X128314285Y-127723809D01*
X128352380Y-127685714D01*
X128390476Y-127609523D01*
X128390476Y-127380952D01*
X128352380Y-127304761D01*
X128314285Y-127266666D01*
X128238095Y-127228571D01*
X128085714Y-127228571D01*
X128009523Y-127266666D01*
X127323809Y-127723809D02*
X127400000Y-127761904D01*
X127552380Y-127761904D01*
X127628571Y-127723809D01*
X127666666Y-127685714D01*
X127704761Y-127609523D01*
X127704761Y-127380952D01*
X127666666Y-127304761D01*
X127628571Y-127266666D01*
X127552380Y-127228571D01*
X127400000Y-127228571D01*
X127323809Y-127266666D01*
X126676190Y-127723809D02*
X126752380Y-127761904D01*
X126904761Y-127761904D01*
X126980952Y-127723809D01*
X127019047Y-127647619D01*
X127019047Y-127342857D01*
X126980952Y-127266666D01*
X126904761Y-127228571D01*
X126752380Y-127228571D01*
X126676190Y-127266666D01*
X126638095Y-127342857D01*
X126638095Y-127419047D01*
X127019047Y-127495238D01*
X126180952Y-127761904D02*
X126257142Y-127723809D01*
X126295238Y-127647619D01*
X126295238Y-126961904D01*
X125571428Y-127723809D02*
X125647619Y-127761904D01*
X125800000Y-127761904D01*
X125876190Y-127723809D01*
X125914285Y-127647619D01*
X125914285Y-127342857D01*
X125876190Y-127266666D01*
X125800000Y-127228571D01*
X125647619Y-127228571D01*
X125571428Y-127266666D01*
X125533333Y-127342857D01*
X125533333Y-127419047D01*
X125914285Y-127495238D01*
X125190476Y-127761904D02*
X125190476Y-127228571D01*
X125190476Y-127380952D02*
X125152380Y-127304761D01*
X125114285Y-127266666D01*
X125038095Y-127228571D01*
X124961904Y-127228571D01*
X124580952Y-127761904D02*
X124657142Y-127723809D01*
X124695238Y-127685714D01*
X124733333Y-127609523D01*
X124733333Y-127380952D01*
X124695238Y-127304761D01*
X124657142Y-127266666D01*
X124580952Y-127228571D01*
X124466666Y-127228571D01*
X124390476Y-127266666D01*
X124352380Y-127304761D01*
X124314285Y-127380952D01*
X124314285Y-127609523D01*
X124352380Y-127685714D01*
X124390476Y-127723809D01*
X124466666Y-127761904D01*
X124580952Y-127761904D01*
X123971428Y-127761904D02*
X123971428Y-127228571D01*
X123971428Y-127304761D02*
X123933333Y-127266666D01*
X123857142Y-127228571D01*
X123742857Y-127228571D01*
X123666666Y-127266666D01*
X123628571Y-127342857D01*
X123628571Y-127761904D01*
X123628571Y-127342857D02*
X123590476Y-127266666D01*
X123514285Y-127228571D01*
X123400000Y-127228571D01*
X123323809Y-127266666D01*
X123285714Y-127342857D01*
X123285714Y-127761904D01*
X122600000Y-127723809D02*
X122676190Y-127761904D01*
X122828571Y-127761904D01*
X122904761Y-127723809D01*
X122942857Y-127647619D01*
X122942857Y-127342857D01*
X122904761Y-127266666D01*
X122828571Y-127228571D01*
X122676190Y-127228571D01*
X122600000Y-127266666D01*
X122561904Y-127342857D01*
X122561904Y-127419047D01*
X122942857Y-127495238D01*
X122333333Y-127228571D02*
X122028571Y-127228571D01*
X122219047Y-126961904D02*
X122219047Y-127647619D01*
X122180952Y-127723809D01*
X122104761Y-127761904D01*
X122028571Y-127761904D01*
X121457142Y-127723809D02*
X121533333Y-127761904D01*
X121685714Y-127761904D01*
X121761904Y-127723809D01*
X121800000Y-127647619D01*
X121800000Y-127342857D01*
X121761904Y-127266666D01*
X121685714Y-127228571D01*
X121533333Y-127228571D01*
X121457142Y-127266666D01*
X121419047Y-127342857D01*
X121419047Y-127419047D01*
X121800000Y-127495238D01*
X121076190Y-127761904D02*
X121076190Y-127228571D01*
X121076190Y-127380952D02*
X121038095Y-127304761D01*
X121000000Y-127266666D01*
X120923809Y-127228571D01*
X120847619Y-127228571D01*
X157409523Y-110861904D02*
X157409523Y-110061904D01*
X157219047Y-110061904D01*
X157104761Y-110100000D01*
X157028571Y-110176190D01*
X156990476Y-110252380D01*
X156952380Y-110404761D01*
X156952380Y-110519047D01*
X156990476Y-110671428D01*
X157028571Y-110747619D01*
X157104761Y-110823809D01*
X157219047Y-110861904D01*
X157409523Y-110861904D01*
X156609523Y-110861904D02*
X156609523Y-110328571D01*
X156609523Y-110061904D02*
X156647619Y-110100000D01*
X156609523Y-110138095D01*
X156571428Y-110100000D01*
X156609523Y-110061904D01*
X156609523Y-110138095D01*
X156228571Y-110861904D02*
X156228571Y-110328571D01*
X156228571Y-110480952D02*
X156190476Y-110404761D01*
X156152380Y-110366666D01*
X156076190Y-110328571D01*
X156000000Y-110328571D01*
X155733333Y-110785714D02*
X155695238Y-110823809D01*
X155733333Y-110861904D01*
X155771428Y-110823809D01*
X155733333Y-110785714D01*
X155733333Y-110861904D01*
X155733333Y-110366666D02*
X155695238Y-110404761D01*
X155733333Y-110442857D01*
X155771428Y-110404761D01*
X155733333Y-110366666D01*
X155733333Y-110442857D01*
X155352380Y-110861904D02*
X155352380Y-110061904D01*
X154819047Y-110061904D02*
X154666666Y-110061904D01*
X154590476Y-110100000D01*
X154514285Y-110176190D01*
X154476190Y-110328571D01*
X154476190Y-110595238D01*
X154514285Y-110747619D01*
X154590476Y-110823809D01*
X154666666Y-110861904D01*
X154819047Y-110861904D01*
X154895238Y-110823809D01*
X154971428Y-110747619D01*
X155009523Y-110595238D01*
X155009523Y-110328571D01*
X154971428Y-110176190D01*
X154895238Y-110100000D01*
X154819047Y-110061904D01*
X153714285Y-110861904D02*
X154171428Y-110861904D01*
X153942857Y-110861904D02*
X153942857Y-110061904D01*
X154019047Y-110176190D01*
X154095238Y-110252380D01*
X154171428Y-110290476D01*
X153028571Y-110061904D02*
X153180952Y-110061904D01*
X153257142Y-110100000D01*
X153295238Y-110138095D01*
X153371428Y-110252380D01*
X153409523Y-110404761D01*
X153409523Y-110709523D01*
X153371428Y-110785714D01*
X153333333Y-110823809D01*
X153257142Y-110861904D01*
X153104761Y-110861904D01*
X153028571Y-110823809D01*
X152990476Y-110785714D01*
X152952380Y-110709523D01*
X152952380Y-110519047D01*
X152990476Y-110442857D01*
X153028571Y-110404761D01*
X153104761Y-110366666D01*
X153257142Y-110366666D01*
X153333333Y-110404761D01*
X153371428Y-110442857D01*
X153409523Y-110519047D01*
X157423809Y-112123809D02*
X157309523Y-112161904D01*
X157119047Y-112161904D01*
X157042857Y-112123809D01*
X157004761Y-112085714D01*
X156966666Y-112009523D01*
X156966666Y-111933333D01*
X157004761Y-111857142D01*
X157042857Y-111819047D01*
X157119047Y-111780952D01*
X157271428Y-111742857D01*
X157347619Y-111704761D01*
X157385714Y-111666666D01*
X157423809Y-111590476D01*
X157423809Y-111514285D01*
X157385714Y-111438095D01*
X157347619Y-111400000D01*
X157271428Y-111361904D01*
X157080952Y-111361904D01*
X156966666Y-111400000D01*
X156738095Y-111628571D02*
X156433333Y-111628571D01*
X156623809Y-111361904D02*
X156623809Y-112047619D01*
X156585714Y-112123809D01*
X156509523Y-112161904D01*
X156433333Y-112161904D01*
X155861904Y-112123809D02*
X155938095Y-112161904D01*
X156090476Y-112161904D01*
X156166666Y-112123809D01*
X156204761Y-112047619D01*
X156204761Y-111742857D01*
X156166666Y-111666666D01*
X156090476Y-111628571D01*
X155938095Y-111628571D01*
X155861904Y-111666666D01*
X155823809Y-111742857D01*
X155823809Y-111819047D01*
X156204761Y-111895238D01*
X155480952Y-111628571D02*
X155480952Y-112428571D01*
X155480952Y-111666666D02*
X155404761Y-111628571D01*
X155252380Y-111628571D01*
X155176190Y-111666666D01*
X155138095Y-111704761D01*
X155100000Y-111780952D01*
X155100000Y-112009523D01*
X155138095Y-112085714D01*
X155176190Y-112123809D01*
X155252380Y-112161904D01*
X155404761Y-112161904D01*
X155480952Y-112123809D01*
X154757142Y-112085714D02*
X154719047Y-112123809D01*
X154757142Y-112161904D01*
X154795238Y-112123809D01*
X154757142Y-112085714D01*
X154757142Y-112161904D01*
X154757142Y-111666666D02*
X154719047Y-111704761D01*
X154757142Y-111742857D01*
X154795238Y-111704761D01*
X154757142Y-111666666D01*
X154757142Y-111742857D01*
X154376190Y-112161904D02*
X154376190Y-111361904D01*
X153842857Y-111361904D02*
X153690476Y-111361904D01*
X153614285Y-111400000D01*
X153538095Y-111476190D01*
X153500000Y-111628571D01*
X153500000Y-111895238D01*
X153538095Y-112047619D01*
X153614285Y-112123809D01*
X153690476Y-112161904D01*
X153842857Y-112161904D01*
X153919047Y-112123809D01*
X153995238Y-112047619D01*
X154033333Y-111895238D01*
X154033333Y-111628571D01*
X153995238Y-111476190D01*
X153919047Y-111400000D01*
X153842857Y-111361904D01*
X152738095Y-112161904D02*
X153195238Y-112161904D01*
X152966666Y-112161904D02*
X152966666Y-111361904D01*
X153042857Y-111476190D01*
X153119047Y-111552380D01*
X153195238Y-111590476D01*
X152471428Y-111361904D02*
X151938095Y-111361904D01*
X152280952Y-112161904D01*
X157395238Y-116361904D02*
X157395238Y-115561904D01*
X157204761Y-115561904D01*
X157090476Y-115600000D01*
X157014285Y-115676190D01*
X156976190Y-115752380D01*
X156938095Y-115904761D01*
X156938095Y-116019047D01*
X156976190Y-116171428D01*
X157014285Y-116247619D01*
X157090476Y-116323809D01*
X157204761Y-116361904D01*
X157395238Y-116361904D01*
X156595238Y-116361904D02*
X156595238Y-115828571D01*
X156595238Y-115561904D02*
X156633333Y-115600000D01*
X156595238Y-115638095D01*
X156557142Y-115600000D01*
X156595238Y-115561904D01*
X156595238Y-115638095D01*
X155871428Y-116361904D02*
X155871428Y-115942857D01*
X155909523Y-115866666D01*
X155985714Y-115828571D01*
X156138095Y-115828571D01*
X156214285Y-115866666D01*
X155871428Y-116323809D02*
X155947619Y-116361904D01*
X156138095Y-116361904D01*
X156214285Y-116323809D01*
X156252380Y-116247619D01*
X156252380Y-116171428D01*
X156214285Y-116095238D01*
X156138095Y-116057142D01*
X155947619Y-116057142D01*
X155871428Y-116019047D01*
X155147619Y-115828571D02*
X155147619Y-116476190D01*
X155185714Y-116552380D01*
X155223809Y-116590476D01*
X155300000Y-116628571D01*
X155414285Y-116628571D01*
X155490476Y-116590476D01*
X155147619Y-116323809D02*
X155223809Y-116361904D01*
X155376190Y-116361904D01*
X155452380Y-116323809D01*
X155490476Y-116285714D01*
X155528571Y-116209523D01*
X155528571Y-115980952D01*
X155490476Y-115904761D01*
X155452380Y-115866666D01*
X155376190Y-115828571D01*
X155223809Y-115828571D01*
X155147619Y-115866666D01*
X154347619Y-116361904D02*
X154804761Y-116361904D01*
X154576190Y-116361904D02*
X154576190Y-115561904D01*
X154652380Y-115676190D01*
X154728571Y-115752380D01*
X154804761Y-115790476D01*
X153433333Y-115523809D02*
X154119047Y-116552380D01*
X153166666Y-116361904D02*
X153166666Y-115561904D01*
X152633333Y-115561904D02*
X152480952Y-115561904D01*
X152404761Y-115600000D01*
X152328571Y-115676190D01*
X152290476Y-115828571D01*
X152290476Y-116095238D01*
X152328571Y-116247619D01*
X152404761Y-116323809D01*
X152480952Y-116361904D01*
X152633333Y-116361904D01*
X152709523Y-116323809D01*
X152785714Y-116247619D01*
X152823809Y-116095238D01*
X152823809Y-115828571D01*
X152785714Y-115676190D01*
X152709523Y-115600000D01*
X152633333Y-115561904D01*
X151985714Y-115638095D02*
X151947619Y-115600000D01*
X151871428Y-115561904D01*
X151680952Y-115561904D01*
X151604761Y-115600000D01*
X151566666Y-115638095D01*
X151528571Y-115714285D01*
X151528571Y-115790476D01*
X151566666Y-115904761D01*
X152023809Y-116361904D01*
X151528571Y-116361904D01*
X151033333Y-115561904D02*
X150957142Y-115561904D01*
X150880952Y-115600000D01*
X150842857Y-115638095D01*
X150804761Y-115714285D01*
X150766666Y-115866666D01*
X150766666Y-116057142D01*
X150804761Y-116209523D01*
X150842857Y-116285714D01*
X150880952Y-116323809D01*
X150957142Y-116361904D01*
X151033333Y-116361904D01*
X151109523Y-116323809D01*
X151147619Y-116285714D01*
X151185714Y-116209523D01*
X151223809Y-116057142D01*
X151223809Y-115866666D01*
X151185714Y-115714285D01*
X151147619Y-115638095D01*
X151109523Y-115600000D01*
X151033333Y-115561904D01*
X157395238Y-118861904D02*
X157395238Y-118061904D01*
X157204761Y-118061904D01*
X157090476Y-118100000D01*
X157014285Y-118176190D01*
X156976190Y-118252380D01*
X156938095Y-118404761D01*
X156938095Y-118519047D01*
X156976190Y-118671428D01*
X157014285Y-118747619D01*
X157090476Y-118823809D01*
X157204761Y-118861904D01*
X157395238Y-118861904D01*
X156595238Y-118861904D02*
X156595238Y-118328571D01*
X156595238Y-118061904D02*
X156633333Y-118100000D01*
X156595238Y-118138095D01*
X156557142Y-118100000D01*
X156595238Y-118061904D01*
X156595238Y-118138095D01*
X155871428Y-118861904D02*
X155871428Y-118442857D01*
X155909523Y-118366666D01*
X155985714Y-118328571D01*
X156138095Y-118328571D01*
X156214285Y-118366666D01*
X155871428Y-118823809D02*
X155947619Y-118861904D01*
X156138095Y-118861904D01*
X156214285Y-118823809D01*
X156252380Y-118747619D01*
X156252380Y-118671428D01*
X156214285Y-118595238D01*
X156138095Y-118557142D01*
X155947619Y-118557142D01*
X155871428Y-118519047D01*
X155147619Y-118328571D02*
X155147619Y-118976190D01*
X155185714Y-119052380D01*
X155223809Y-119090476D01*
X155300000Y-119128571D01*
X155414285Y-119128571D01*
X155490476Y-119090476D01*
X155147619Y-118823809D02*
X155223809Y-118861904D01*
X155376190Y-118861904D01*
X155452380Y-118823809D01*
X155490476Y-118785714D01*
X155528571Y-118709523D01*
X155528571Y-118480952D01*
X155490476Y-118404761D01*
X155452380Y-118366666D01*
X155376190Y-118328571D01*
X155223809Y-118328571D01*
X155147619Y-118366666D01*
X154614285Y-118061904D02*
X154538095Y-118061904D01*
X154461904Y-118100000D01*
X154423809Y-118138095D01*
X154385714Y-118214285D01*
X154347619Y-118366666D01*
X154347619Y-118557142D01*
X154385714Y-118709523D01*
X154423809Y-118785714D01*
X154461904Y-118823809D01*
X154538095Y-118861904D01*
X154614285Y-118861904D01*
X154690476Y-118823809D01*
X154728571Y-118785714D01*
X154766666Y-118709523D01*
X154804761Y-118557142D01*
X154804761Y-118366666D01*
X154766666Y-118214285D01*
X154728571Y-118138095D01*
X154690476Y-118100000D01*
X154614285Y-118061904D01*
X153433333Y-118023809D02*
X154119047Y-119052380D01*
X153166666Y-118861904D02*
X153166666Y-118061904D01*
X152633333Y-118061904D02*
X152480952Y-118061904D01*
X152404761Y-118100000D01*
X152328571Y-118176190D01*
X152290476Y-118328571D01*
X152290476Y-118595238D01*
X152328571Y-118747619D01*
X152404761Y-118823809D01*
X152480952Y-118861904D01*
X152633333Y-118861904D01*
X152709523Y-118823809D01*
X152785714Y-118747619D01*
X152823809Y-118595238D01*
X152823809Y-118328571D01*
X152785714Y-118176190D01*
X152709523Y-118100000D01*
X152633333Y-118061904D01*
X151528571Y-118861904D02*
X151985714Y-118861904D01*
X151757142Y-118861904D02*
X151757142Y-118061904D01*
X151833333Y-118176190D01*
X151909523Y-118252380D01*
X151985714Y-118290476D01*
X151147619Y-118861904D02*
X150995238Y-118861904D01*
X150919047Y-118823809D01*
X150880952Y-118785714D01*
X150804761Y-118671428D01*
X150766666Y-118519047D01*
X150766666Y-118214285D01*
X150804761Y-118138095D01*
X150842857Y-118100000D01*
X150919047Y-118061904D01*
X151071428Y-118061904D01*
X151147619Y-118100000D01*
X151185714Y-118138095D01*
X151223809Y-118214285D01*
X151223809Y-118404761D01*
X151185714Y-118480952D01*
X151147619Y-118519047D01*
X151071428Y-118557142D01*
X150919047Y-118557142D01*
X150842857Y-118519047D01*
X150804761Y-118480952D01*
X150766666Y-118404761D01*
D11*
X157000000Y-100600000D02*
X167400000Y-100600000D01*
X157000000Y-105500000D02*
X157000000Y-100600000D01*
X167400000Y-106400000D02*
X157000000Y-106400000D01*
X167400000Y-100600000D02*
X167400000Y-105500000D01*
D10*
X158138095Y-103071428D02*
X158100000Y-103109523D01*
X158061904Y-103185714D01*
X158061904Y-103376190D01*
X158100000Y-103452380D01*
X158138095Y-103490476D01*
X158214285Y-103528571D01*
X158290476Y-103528571D01*
X158404761Y-103490476D01*
X158861904Y-103033333D01*
X158861904Y-103528571D01*
X158442857Y-104138095D02*
X158480952Y-104252380D01*
X158519047Y-104290476D01*
X158595238Y-104328571D01*
X158709523Y-104328571D01*
X158785714Y-104290476D01*
X158823809Y-104252380D01*
X158861904Y-104176190D01*
X158861904Y-103871428D01*
X158061904Y-103871428D01*
X158061904Y-104138095D01*
X158100000Y-104214285D01*
X158138095Y-104252380D01*
X158214285Y-104290476D01*
X158290476Y-104290476D01*
X158366666Y-104252380D01*
X158404761Y-104214285D01*
X158442857Y-104138095D01*
X158442857Y-103871428D01*
X160638095Y-103128571D02*
X160600000Y-103166666D01*
X160561904Y-103242857D01*
X160561904Y-103433333D01*
X160600000Y-103509523D01*
X160638095Y-103547619D01*
X160714285Y-103585714D01*
X160790476Y-103585714D01*
X160904761Y-103547619D01*
X161361904Y-103090476D01*
X161361904Y-103585714D01*
X161133333Y-103890476D02*
X161133333Y-104271428D01*
X161361904Y-103814285D02*
X160561904Y-104080952D01*
X161361904Y-104347619D01*
X166361904Y-103528571D02*
X166361904Y-103071428D01*
X166361904Y-103300000D02*
X165561904Y-103300000D01*
X165676190Y-103223809D01*
X165752380Y-103147619D01*
X165790476Y-103071428D01*
X165942857Y-104138095D02*
X165980952Y-104252380D01*
X166019047Y-104290476D01*
X166095238Y-104328571D01*
X166209523Y-104328571D01*
X166285714Y-104290476D01*
X166323809Y-104252380D01*
X166361904Y-104176190D01*
X166361904Y-103871428D01*
X165561904Y-103871428D01*
X165561904Y-104138095D01*
X165600000Y-104214285D01*
X165638095Y-104252380D01*
X165714285Y-104290476D01*
X165790476Y-104290476D01*
X165866666Y-104252380D01*
X165904761Y-104214285D01*
X165942857Y-104138095D01*
X165942857Y-103871428D01*
X163761904Y-103685714D02*
X163761904Y-103228571D01*
X163761904Y-103457142D02*
X162961904Y-103457142D01*
X163076190Y-103380952D01*
X163152380Y-103304761D01*
X163190476Y-103228571D01*
X163533333Y-103990476D02*
X163533333Y-104371428D01*
X163761904Y-103914285D02*
X162961904Y-104180952D01*
X163761904Y-104447619D01*
X166176190Y-105823809D02*
X166061904Y-105861904D01*
X165871428Y-105861904D01*
X165795238Y-105823809D01*
X165757142Y-105785714D01*
X165719047Y-105709523D01*
X165719047Y-105633333D01*
X165757142Y-105557142D01*
X165795238Y-105519047D01*
X165871428Y-105480952D01*
X166023809Y-105442857D01*
X166100000Y-105404761D01*
X166138095Y-105366666D01*
X166176190Y-105290476D01*
X166176190Y-105214285D01*
X166138095Y-105138095D01*
X166100000Y-105100000D01*
X166023809Y-105061904D01*
X165833333Y-105061904D01*
X165719047Y-105100000D01*
X165490476Y-105328571D02*
X165185714Y-105328571D01*
X165376190Y-105061904D02*
X165376190Y-105747619D01*
X165338095Y-105823809D01*
X165261904Y-105861904D01*
X165185714Y-105861904D01*
X164614285Y-105823809D02*
X164690476Y-105861904D01*
X164842857Y-105861904D01*
X164919047Y-105823809D01*
X164957142Y-105747619D01*
X164957142Y-105442857D01*
X164919047Y-105366666D01*
X164842857Y-105328571D01*
X164690476Y-105328571D01*
X164614285Y-105366666D01*
X164576190Y-105442857D01*
X164576190Y-105519047D01*
X164957142Y-105595238D01*
X164233333Y-105328571D02*
X164233333Y-106128571D01*
X164233333Y-105366666D02*
X164157142Y-105328571D01*
X164004761Y-105328571D01*
X163928571Y-105366666D01*
X163890476Y-105404761D01*
X163852380Y-105480952D01*
X163852380Y-105709523D01*
X163890476Y-105785714D01*
X163928571Y-105823809D01*
X164004761Y-105861904D01*
X164157142Y-105861904D01*
X164233333Y-105823809D01*
X163509523Y-105328571D02*
X163509523Y-106128571D01*
X163509523Y-105366666D02*
X163433333Y-105328571D01*
X163280952Y-105328571D01*
X163204761Y-105366666D01*
X163166666Y-105404761D01*
X163128571Y-105480952D01*
X163128571Y-105709523D01*
X163166666Y-105785714D01*
X163204761Y-105823809D01*
X163280952Y-105861904D01*
X163433333Y-105861904D01*
X163509523Y-105823809D01*
X162480952Y-105823809D02*
X162557142Y-105861904D01*
X162709523Y-105861904D01*
X162785714Y-105823809D01*
X162823809Y-105747619D01*
X162823809Y-105442857D01*
X162785714Y-105366666D01*
X162709523Y-105328571D01*
X162557142Y-105328571D01*
X162480952Y-105366666D01*
X162442857Y-105442857D01*
X162442857Y-105519047D01*
X162823809Y-105595238D01*
X162100000Y-105861904D02*
X162100000Y-105328571D01*
X162100000Y-105480952D02*
X162061904Y-105404761D01*
X162023809Y-105366666D01*
X161947619Y-105328571D01*
X161871428Y-105328571D01*
X160995238Y-105861904D02*
X160995238Y-105061904D01*
X160728571Y-105633333D01*
X160461904Y-105061904D01*
X160461904Y-105861904D01*
X159966666Y-105861904D02*
X160042857Y-105823809D01*
X160080952Y-105785714D01*
X160119047Y-105709523D01*
X160119047Y-105480952D01*
X160080952Y-105404761D01*
X160042857Y-105366666D01*
X159966666Y-105328571D01*
X159852380Y-105328571D01*
X159776190Y-105366666D01*
X159738095Y-105404761D01*
X159700000Y-105480952D01*
X159700000Y-105709523D01*
X159738095Y-105785714D01*
X159776190Y-105823809D01*
X159852380Y-105861904D01*
X159966666Y-105861904D01*
X159471428Y-105328571D02*
X159166666Y-105328571D01*
X159357142Y-105061904D02*
X159357142Y-105747619D01*
X159319047Y-105823809D01*
X159242857Y-105861904D01*
X159166666Y-105861904D01*
X158785714Y-105861904D02*
X158861904Y-105823809D01*
X158900000Y-105785714D01*
X158938095Y-105709523D01*
X158938095Y-105480952D01*
X158900000Y-105404761D01*
X158861904Y-105366666D01*
X158785714Y-105328571D01*
X158671428Y-105328571D01*
X158595238Y-105366666D01*
X158557142Y-105404761D01*
X158519047Y-105480952D01*
X158519047Y-105709523D01*
X158557142Y-105785714D01*
X158595238Y-105823809D01*
X158671428Y-105861904D01*
X158785714Y-105861904D01*
X158176190Y-105861904D02*
X158176190Y-105328571D01*
X158176190Y-105480952D02*
X158138095Y-105404761D01*
X158100000Y-105366666D01*
X158023809Y-105328571D01*
X157947619Y-105328571D01*
D11*
X148700000Y-139500000D02*
X161600000Y-139500000D01*
X148700000Y-131500000D02*
X148700000Y-139500000D01*
X161600000Y-131500000D02*
X148700000Y-131500000D01*
X161600000Y-139500000D02*
X161600000Y-131500000D01*
D10*
X151961904Y-131819047D02*
X151161904Y-131819047D01*
X151161904Y-132352380D02*
X151161904Y-132504761D01*
X151200000Y-132580952D01*
X151276190Y-132657142D01*
X151428571Y-132695238D01*
X151695238Y-132695238D01*
X151847619Y-132657142D01*
X151923809Y-132580952D01*
X151961904Y-132504761D01*
X151961904Y-132352380D01*
X151923809Y-132276190D01*
X151847619Y-132200000D01*
X151695238Y-132161904D01*
X151428571Y-132161904D01*
X151276190Y-132200000D01*
X151200000Y-132276190D01*
X151161904Y-132352380D01*
X151961904Y-133457142D02*
X151961904Y-133000000D01*
X151961904Y-133228571D02*
X151161904Y-133228571D01*
X151276190Y-133152380D01*
X151352380Y-133076190D01*
X151390476Y-133000000D01*
X151961904Y-134219047D02*
X151961904Y-133761904D01*
X151961904Y-133990476D02*
X151161904Y-133990476D01*
X151276190Y-133914285D01*
X151352380Y-133838095D01*
X151390476Y-133761904D01*
X154461904Y-131819047D02*
X153661904Y-131819047D01*
X153661904Y-132352380D02*
X153661904Y-132504761D01*
X153700000Y-132580952D01*
X153776190Y-132657142D01*
X153928571Y-132695238D01*
X154195238Y-132695238D01*
X154347619Y-132657142D01*
X154423809Y-132580952D01*
X154461904Y-132504761D01*
X154461904Y-132352380D01*
X154423809Y-132276190D01*
X154347619Y-132200000D01*
X154195238Y-132161904D01*
X153928571Y-132161904D01*
X153776190Y-132200000D01*
X153700000Y-132276190D01*
X153661904Y-132352380D01*
X154461904Y-133457142D02*
X154461904Y-133000000D01*
X154461904Y-133228571D02*
X153661904Y-133228571D01*
X153776190Y-133152380D01*
X153852380Y-133076190D01*
X153890476Y-133000000D01*
X153661904Y-133952380D02*
X153661904Y-134028571D01*
X153700000Y-134104761D01*
X153738095Y-134142857D01*
X153814285Y-134180952D01*
X153966666Y-134219047D01*
X154157142Y-134219047D01*
X154309523Y-134180952D01*
X154385714Y-134142857D01*
X154423809Y-134104761D01*
X154461904Y-134028571D01*
X154461904Y-133952380D01*
X154423809Y-133876190D01*
X154385714Y-133838095D01*
X154309523Y-133800000D01*
X154157142Y-133761904D01*
X153966666Y-133761904D01*
X153814285Y-133800000D01*
X153738095Y-133838095D01*
X153700000Y-133876190D01*
X153661904Y-133952380D01*
X156961904Y-131819047D02*
X156161904Y-131819047D01*
X156161904Y-132352380D02*
X156161904Y-132504761D01*
X156200000Y-132580952D01*
X156276190Y-132657142D01*
X156428571Y-132695238D01*
X156695238Y-132695238D01*
X156847619Y-132657142D01*
X156923809Y-132580952D01*
X156961904Y-132504761D01*
X156961904Y-132352380D01*
X156923809Y-132276190D01*
X156847619Y-132200000D01*
X156695238Y-132161904D01*
X156428571Y-132161904D01*
X156276190Y-132200000D01*
X156200000Y-132276190D01*
X156161904Y-132352380D01*
X156161904Y-133190476D02*
X156161904Y-133266666D01*
X156200000Y-133342857D01*
X156238095Y-133380952D01*
X156314285Y-133419047D01*
X156466666Y-133457142D01*
X156657142Y-133457142D01*
X156809523Y-133419047D01*
X156885714Y-133380952D01*
X156923809Y-133342857D01*
X156961904Y-133266666D01*
X156961904Y-133190476D01*
X156923809Y-133114285D01*
X156885714Y-133076190D01*
X156809523Y-133038095D01*
X156657142Y-133000000D01*
X156466666Y-133000000D01*
X156314285Y-133038095D01*
X156238095Y-133076190D01*
X156200000Y-133114285D01*
X156161904Y-133190476D01*
X156961904Y-133838095D02*
X156961904Y-133990476D01*
X156923809Y-134066666D01*
X156885714Y-134104761D01*
X156771428Y-134180952D01*
X156619047Y-134219047D01*
X156314285Y-134219047D01*
X156238095Y-134180952D01*
X156200000Y-134142857D01*
X156161904Y-134066666D01*
X156161904Y-133914285D01*
X156200000Y-133838095D01*
X156238095Y-133800000D01*
X156314285Y-133761904D01*
X156504761Y-133761904D01*
X156580952Y-133800000D01*
X156619047Y-133838095D01*
X156657142Y-133914285D01*
X156657142Y-134066666D01*
X156619047Y-134142857D01*
X156580952Y-134180952D01*
X156504761Y-134219047D01*
X159661904Y-131819047D02*
X158861904Y-131819047D01*
X158861904Y-132352380D02*
X158861904Y-132504761D01*
X158900000Y-132580952D01*
X158976190Y-132657142D01*
X159128571Y-132695238D01*
X159395238Y-132695238D01*
X159547619Y-132657142D01*
X159623809Y-132580952D01*
X159661904Y-132504761D01*
X159661904Y-132352380D01*
X159623809Y-132276190D01*
X159547619Y-132200000D01*
X159395238Y-132161904D01*
X159128571Y-132161904D01*
X158976190Y-132200000D01*
X158900000Y-132276190D01*
X158861904Y-132352380D01*
X158861904Y-133190476D02*
X158861904Y-133266666D01*
X158900000Y-133342857D01*
X158938095Y-133380952D01*
X159014285Y-133419047D01*
X159166666Y-133457142D01*
X159357142Y-133457142D01*
X159509523Y-133419047D01*
X159585714Y-133380952D01*
X159623809Y-133342857D01*
X159661904Y-133266666D01*
X159661904Y-133190476D01*
X159623809Y-133114285D01*
X159585714Y-133076190D01*
X159509523Y-133038095D01*
X159357142Y-133000000D01*
X159166666Y-133000000D01*
X159014285Y-133038095D01*
X158938095Y-133076190D01*
X158900000Y-133114285D01*
X158861904Y-133190476D01*
X159204761Y-133914285D02*
X159166666Y-133838095D01*
X159128571Y-133800000D01*
X159052380Y-133761904D01*
X159014285Y-133761904D01*
X158938095Y-133800000D01*
X158900000Y-133838095D01*
X158861904Y-133914285D01*
X158861904Y-134066666D01*
X158900000Y-134142857D01*
X158938095Y-134180952D01*
X159014285Y-134219047D01*
X159052380Y-134219047D01*
X159128571Y-134180952D01*
X159166666Y-134142857D01*
X159204761Y-134066666D01*
X159204761Y-133914285D01*
X159242857Y-133838095D01*
X159280952Y-133800000D01*
X159357142Y-133761904D01*
X159509523Y-133761904D01*
X159585714Y-133800000D01*
X159623809Y-133838095D01*
X159661904Y-133914285D01*
X159661904Y-134066666D01*
X159623809Y-134142857D01*
X159585714Y-134180952D01*
X159509523Y-134219047D01*
X159357142Y-134219047D01*
X159280952Y-134180952D01*
X159242857Y-134142857D01*
X159204761Y-134066666D01*
X149961904Y-132233333D02*
X149161904Y-132233333D01*
X149161904Y-132423809D01*
X149200000Y-132538095D01*
X149276190Y-132614285D01*
X149352380Y-132652380D01*
X149504761Y-132690476D01*
X149619047Y-132690476D01*
X149771428Y-132652380D01*
X149847619Y-132614285D01*
X149923809Y-132538095D01*
X149961904Y-132423809D01*
X149961904Y-132233333D01*
X149961904Y-133033333D02*
X149428571Y-133033333D01*
X149161904Y-133033333D02*
X149200000Y-132995238D01*
X149238095Y-133033333D01*
X149200000Y-133071428D01*
X149161904Y-133033333D01*
X149238095Y-133033333D01*
X149428571Y-133757142D02*
X150076190Y-133757142D01*
X150152380Y-133719047D01*
X150190476Y-133680952D01*
X150228571Y-133604761D01*
X150228571Y-133490476D01*
X150190476Y-133414285D01*
X149923809Y-133757142D02*
X149961904Y-133680952D01*
X149961904Y-133528571D01*
X149923809Y-133452380D01*
X149885714Y-133414285D01*
X149809523Y-133376190D01*
X149580952Y-133376190D01*
X149504761Y-133414285D01*
X149466666Y-133452380D01*
X149428571Y-133528571D01*
X149428571Y-133680952D01*
X149466666Y-133757142D01*
X149961904Y-134138095D02*
X149428571Y-134138095D01*
X149161904Y-134138095D02*
X149200000Y-134100000D01*
X149238095Y-134138095D01*
X149200000Y-134176190D01*
X149161904Y-134138095D01*
X149238095Y-134138095D01*
X149428571Y-134404761D02*
X149428571Y-134709523D01*
X149161904Y-134519047D02*
X149847619Y-134519047D01*
X149923809Y-134557142D01*
X149961904Y-134633333D01*
X149961904Y-134709523D01*
X149961904Y-135319047D02*
X149542857Y-135319047D01*
X149466666Y-135280952D01*
X149428571Y-135204761D01*
X149428571Y-135052380D01*
X149466666Y-134976190D01*
X149923809Y-135319047D02*
X149961904Y-135242857D01*
X149961904Y-135052380D01*
X149923809Y-134976190D01*
X149847619Y-134938095D01*
X149771428Y-134938095D01*
X149695238Y-134976190D01*
X149657142Y-135052380D01*
X149657142Y-135242857D01*
X149619047Y-135319047D01*
X149961904Y-135814285D02*
X149923809Y-135738095D01*
X149847619Y-135700000D01*
X149161904Y-135700000D01*
X149161904Y-136880952D02*
X149161904Y-137033333D01*
X149200000Y-137109523D01*
X149276190Y-137185714D01*
X149428571Y-137223809D01*
X149695238Y-137223809D01*
X149847619Y-137185714D01*
X149923809Y-137109523D01*
X149961904Y-137033333D01*
X149961904Y-136880952D01*
X149923809Y-136804761D01*
X149847619Y-136728571D01*
X149695238Y-136690476D01*
X149428571Y-136690476D01*
X149276190Y-136728571D01*
X149200000Y-136804761D01*
X149161904Y-136880952D01*
X149428571Y-137909523D02*
X149961904Y-137909523D01*
X149428571Y-137566666D02*
X149847619Y-137566666D01*
X149923809Y-137604761D01*
X149961904Y-137680952D01*
X149961904Y-137795238D01*
X149923809Y-137871428D01*
X149885714Y-137909523D01*
X149428571Y-138176190D02*
X149428571Y-138480952D01*
X149161904Y-138290476D02*
X149847619Y-138290476D01*
X149923809Y-138328571D01*
X149961904Y-138404761D01*
X149961904Y-138480952D01*
D11*
X108200000Y-126800000D02*
X108200000Y-117700000D01*
X101500000Y-126800000D02*
X108200000Y-126800000D01*
X101500000Y-117700000D02*
X101500000Y-126800000D01*
X108200000Y-117700000D02*
X101500000Y-117700000D01*
X117800000Y-131500000D02*
X117800000Y-139500000D01*
X106300000Y-131500000D02*
X117800000Y-131500000D01*
X106300000Y-139500000D02*
X106300000Y-131500000D01*
X117800000Y-139500000D02*
X106300000Y-139500000D01*
D10*
X113433333Y-133442857D02*
X113700000Y-133442857D01*
X113700000Y-133861904D02*
X113700000Y-133061904D01*
X113319047Y-133061904D01*
X113014285Y-133861904D02*
X113014285Y-133328571D01*
X113014285Y-133061904D02*
X113052380Y-133100000D01*
X113014285Y-133138095D01*
X112976190Y-133100000D01*
X113014285Y-133061904D01*
X113014285Y-133138095D01*
X112709523Y-133861904D02*
X112290476Y-133328571D01*
X112709523Y-133328571D02*
X112290476Y-133861904D01*
X111680952Y-133823809D02*
X111757142Y-133861904D01*
X111909523Y-133861904D01*
X111985714Y-133823809D01*
X112023809Y-133747619D01*
X112023809Y-133442857D01*
X111985714Y-133366666D01*
X111909523Y-133328571D01*
X111757142Y-133328571D01*
X111680952Y-133366666D01*
X111642857Y-133442857D01*
X111642857Y-133519047D01*
X112023809Y-133595238D01*
X110957142Y-133861904D02*
X110957142Y-133061904D01*
X110957142Y-133823809D02*
X111033333Y-133861904D01*
X111185714Y-133861904D01*
X111261904Y-133823809D01*
X111300000Y-133785714D01*
X111338095Y-133709523D01*
X111338095Y-133480952D01*
X111300000Y-133404761D01*
X111261904Y-133366666D01*
X111185714Y-133328571D01*
X111033333Y-133328571D01*
X110957142Y-133366666D01*
X109585714Y-133061904D02*
X109966666Y-133061904D01*
X110004761Y-133442857D01*
X109966666Y-133404761D01*
X109890476Y-133366666D01*
X109700000Y-133366666D01*
X109623809Y-133404761D01*
X109585714Y-133442857D01*
X109547619Y-133519047D01*
X109547619Y-133709523D01*
X109585714Y-133785714D01*
X109623809Y-133823809D01*
X109700000Y-133861904D01*
X109890476Y-133861904D01*
X109966666Y-133823809D01*
X110004761Y-133785714D01*
X109319047Y-133061904D02*
X109052380Y-133861904D01*
X108785714Y-133061904D01*
D11*
X145600000Y-131500000D02*
X145600000Y-139500000D01*
X145500000Y-131500000D02*
X145600000Y-131500000D01*
X133000000Y-131500000D02*
X145500000Y-131500000D01*
X133000000Y-139500000D02*
X133000000Y-131500000D01*
X145600000Y-139500000D02*
X133000000Y-139500000D01*
X128800000Y-122800000D02*
X128800000Y-117300000D01*
X132200000Y-122800000D02*
X128800000Y-122800000D01*
X132200000Y-117300000D02*
X132200000Y-122800000D01*
X128800000Y-117300000D02*
X132200000Y-117300000D01*
X132200000Y-115300000D02*
X128800000Y-115300000D01*
X132200000Y-110500000D02*
X132200000Y-115300000D01*
X128800000Y-110500000D02*
X132200000Y-110500000D01*
X128800000Y-110500000D02*
X128800000Y-115300000D01*
X137400000Y-110300000D02*
X137400000Y-110200000D01*
X122300000Y-110300000D02*
X137400000Y-110300000D01*
X137400000Y-110200000D02*
X137400000Y-110100000D01*
X122300000Y-110100000D02*
X122300000Y-110300000D01*
X131800000Y-105800000D02*
X133900000Y-105800000D01*
X131300000Y-105300000D02*
X131800000Y-105800000D01*
X126500000Y-105800000D02*
X124400000Y-105800000D01*
X127200000Y-105300000D02*
X126500000Y-105800000D01*
X122300000Y-100600000D02*
X137400000Y-100600000D01*
X122300000Y-110100000D02*
X122300000Y-100600000D01*
X137400000Y-100600000D02*
X137400000Y-110100000D01*
D10*
X132809523Y-109661904D02*
X132809523Y-108861904D01*
X132619047Y-108861904D01*
X132504761Y-108900000D01*
X132428571Y-108976190D01*
X132390476Y-109052380D01*
X132352380Y-109204761D01*
X132352380Y-109319047D01*
X132390476Y-109471428D01*
X132428571Y-109547619D01*
X132504761Y-109623809D01*
X132619047Y-109661904D01*
X132809523Y-109661904D01*
X132009523Y-109661904D02*
X132009523Y-109128571D01*
X132009523Y-108861904D02*
X132047619Y-108900000D01*
X132009523Y-108938095D01*
X131971428Y-108900000D01*
X132009523Y-108861904D01*
X132009523Y-108938095D01*
X131285714Y-109128571D02*
X131285714Y-109776190D01*
X131323809Y-109852380D01*
X131361904Y-109890476D01*
X131438095Y-109928571D01*
X131552380Y-109928571D01*
X131628571Y-109890476D01*
X131285714Y-109623809D02*
X131361904Y-109661904D01*
X131514285Y-109661904D01*
X131590476Y-109623809D01*
X131628571Y-109585714D01*
X131666666Y-109509523D01*
X131666666Y-109280952D01*
X131628571Y-109204761D01*
X131590476Y-109166666D01*
X131514285Y-109128571D01*
X131361904Y-109128571D01*
X131285714Y-109166666D01*
X130904761Y-109661904D02*
X130904761Y-109128571D01*
X130904761Y-108861904D02*
X130942857Y-108900000D01*
X130904761Y-108938095D01*
X130866666Y-108900000D01*
X130904761Y-108861904D01*
X130904761Y-108938095D01*
X130638095Y-109128571D02*
X130333333Y-109128571D01*
X130523809Y-108861904D02*
X130523809Y-109547619D01*
X130485714Y-109623809D01*
X130409523Y-109661904D01*
X130333333Y-109661904D01*
X129723809Y-109661904D02*
X129723809Y-109242857D01*
X129761904Y-109166666D01*
X129838095Y-109128571D01*
X129990476Y-109128571D01*
X130066666Y-109166666D01*
X129723809Y-109623809D02*
X129800000Y-109661904D01*
X129990476Y-109661904D01*
X130066666Y-109623809D01*
X130104761Y-109547619D01*
X130104761Y-109471428D01*
X130066666Y-109395238D01*
X129990476Y-109357142D01*
X129800000Y-109357142D01*
X129723809Y-109319047D01*
X129228571Y-109661904D02*
X129304761Y-109623809D01*
X129342857Y-109547619D01*
X129342857Y-108861904D01*
X128314285Y-109661904D02*
X128314285Y-108861904D01*
X127933333Y-109128571D02*
X127933333Y-109661904D01*
X127933333Y-109204761D02*
X127895238Y-109166666D01*
X127819047Y-109128571D01*
X127704761Y-109128571D01*
X127628571Y-109166666D01*
X127590476Y-109242857D01*
X127590476Y-109661904D01*
X135840000Y-104161904D02*
X135840000Y-103361904D01*
X135306666Y-103361904D02*
X135154285Y-103361904D01*
X135078095Y-103400000D01*
X135001904Y-103476190D01*
X134963809Y-103628571D01*
X134963809Y-103895238D01*
X135001904Y-104047619D01*
X135078095Y-104123809D01*
X135154285Y-104161904D01*
X135306666Y-104161904D01*
X135382857Y-104123809D01*
X135459047Y-104047619D01*
X135497142Y-103895238D01*
X135497142Y-103628571D01*
X135459047Y-103476190D01*
X135382857Y-103400000D01*
X135306666Y-103361904D01*
X134697142Y-103361904D02*
X134201904Y-103361904D01*
X134468571Y-103666666D01*
X134354285Y-103666666D01*
X134278095Y-103704761D01*
X134240000Y-103742857D01*
X134201904Y-103819047D01*
X134201904Y-104009523D01*
X134240000Y-104085714D01*
X134278095Y-104123809D01*
X134354285Y-104161904D01*
X134582857Y-104161904D01*
X134659047Y-104123809D01*
X134697142Y-104085714D01*
X135860000Y-106051904D02*
X135860000Y-105251904D01*
X135326666Y-105251904D02*
X135174285Y-105251904D01*
X135098095Y-105290000D01*
X135021904Y-105366190D01*
X134983809Y-105518571D01*
X134983809Y-105785238D01*
X135021904Y-105937619D01*
X135098095Y-106013809D01*
X135174285Y-106051904D01*
X135326666Y-106051904D01*
X135402857Y-106013809D01*
X135479047Y-105937619D01*
X135517142Y-105785238D01*
X135517142Y-105518571D01*
X135479047Y-105366190D01*
X135402857Y-105290000D01*
X135326666Y-105251904D01*
X134679047Y-105328095D02*
X134640952Y-105290000D01*
X134564761Y-105251904D01*
X134374285Y-105251904D01*
X134298095Y-105290000D01*
X134260000Y-105328095D01*
X134221904Y-105404285D01*
X134221904Y-105480476D01*
X134260000Y-105594761D01*
X134717142Y-106051904D01*
X134221904Y-106051904D01*
X124070000Y-106051904D02*
X124070000Y-105251904D01*
X123536666Y-105251904D02*
X123384285Y-105251904D01*
X123308095Y-105290000D01*
X123231904Y-105366190D01*
X123193809Y-105518571D01*
X123193809Y-105785238D01*
X123231904Y-105937619D01*
X123308095Y-106013809D01*
X123384285Y-106051904D01*
X123536666Y-106051904D01*
X123612857Y-106013809D01*
X123689047Y-105937619D01*
X123727142Y-105785238D01*
X123727142Y-105518571D01*
X123689047Y-105366190D01*
X123612857Y-105290000D01*
X123536666Y-105251904D01*
X122431904Y-106051904D02*
X122889047Y-106051904D01*
X122660476Y-106051904D02*
X122660476Y-105251904D01*
X122736666Y-105366190D01*
X122812857Y-105442380D01*
X122889047Y-105480476D01*
X124060000Y-104251904D02*
X124060000Y-103451904D01*
X123526666Y-103451904D02*
X123374285Y-103451904D01*
X123298095Y-103490000D01*
X123221904Y-103566190D01*
X123183809Y-103718571D01*
X123183809Y-103985238D01*
X123221904Y-104137619D01*
X123298095Y-104213809D01*
X123374285Y-104251904D01*
X123526666Y-104251904D01*
X123602857Y-104213809D01*
X123679047Y-104137619D01*
X123717142Y-103985238D01*
X123717142Y-103718571D01*
X123679047Y-103566190D01*
X123602857Y-103490000D01*
X123526666Y-103451904D01*
X122688571Y-103451904D02*
X122612380Y-103451904D01*
X122536190Y-103490000D01*
X122498095Y-103528095D01*
X122460000Y-103604285D01*
X122421904Y-103756666D01*
X122421904Y-103947142D01*
X122460000Y-104099523D01*
X122498095Y-104175714D01*
X122536190Y-104213809D01*
X122612380Y-104251904D01*
X122688571Y-104251904D01*
X122764761Y-104213809D01*
X122802857Y-104175714D01*
X122840952Y-104099523D01*
X122879047Y-103947142D01*
X122879047Y-103756666D01*
X122840952Y-103604285D01*
X122802857Y-103528095D01*
X122764761Y-103490000D01*
X122688571Y-103451904D01*
X114957142Y-104761904D02*
X114804761Y-104761904D01*
X114728571Y-104800000D01*
X114652380Y-104876190D01*
X114614285Y-105028571D01*
X114614285Y-105295238D01*
X114652380Y-105447619D01*
X114728571Y-105523809D01*
X114804761Y-105561904D01*
X114957142Y-105561904D01*
X115033333Y-105523809D01*
X115109523Y-105447619D01*
X115147619Y-105295238D01*
X115147619Y-105028571D01*
X115109523Y-104876190D01*
X115033333Y-104800000D01*
X114957142Y-104761904D01*
X113928571Y-105028571D02*
X113928571Y-105561904D01*
X114271428Y-105028571D02*
X114271428Y-105447619D01*
X114233333Y-105523809D01*
X114157142Y-105561904D01*
X114042857Y-105561904D01*
X113966666Y-105523809D01*
X113928571Y-105485714D01*
X113661904Y-105028571D02*
X113357142Y-105028571D01*
X113547619Y-104761904D02*
X113547619Y-105447619D01*
X113509523Y-105523809D01*
X113433333Y-105561904D01*
X113357142Y-105561904D01*
X112519047Y-104723809D02*
X113204761Y-105752380D01*
X112252380Y-105561904D02*
X112252380Y-104761904D01*
X111719047Y-104761904D02*
X111566666Y-104761904D01*
X111490476Y-104800000D01*
X111414285Y-104876190D01*
X111376190Y-105028571D01*
X111376190Y-105295238D01*
X111414285Y-105447619D01*
X111490476Y-105523809D01*
X111566666Y-105561904D01*
X111719047Y-105561904D01*
X111795238Y-105523809D01*
X111871428Y-105447619D01*
X111909523Y-105295238D01*
X111909523Y-105028571D01*
X111871428Y-104876190D01*
X111795238Y-104800000D01*
X111719047Y-104761904D01*
X111071428Y-104838095D02*
X111033333Y-104800000D01*
X110957142Y-104761904D01*
X110766666Y-104761904D01*
X110690476Y-104800000D01*
X110652380Y-104838095D01*
X110614285Y-104914285D01*
X110614285Y-104990476D01*
X110652380Y-105104761D01*
X111109523Y-105561904D01*
X110614285Y-105561904D01*
X109890476Y-104761904D02*
X110271428Y-104761904D01*
X110309523Y-105142857D01*
X110271428Y-105104761D01*
X110195238Y-105066666D01*
X110004761Y-105066666D01*
X109928571Y-105104761D01*
X109890476Y-105142857D01*
X109852380Y-105219047D01*
X109852380Y-105409523D01*
X109890476Y-105485714D01*
X109928571Y-105523809D01*
X110004761Y-105561904D01*
X110195238Y-105561904D01*
X110271428Y-105523809D01*
X110309523Y-105485714D01*
X108361904Y-101147619D02*
X107561904Y-101147619D01*
X107828571Y-101528571D02*
X108361904Y-101528571D01*
X107904761Y-101528571D02*
X107866666Y-101566666D01*
X107828571Y-101642857D01*
X107828571Y-101757142D01*
X107866666Y-101833333D01*
X107942857Y-101871428D01*
X108361904Y-101871428D01*
X107523809Y-102823809D02*
X108552380Y-102138095D01*
X108361904Y-103090476D02*
X107561904Y-103090476D01*
X107561904Y-103623809D02*
X107561904Y-103776190D01*
X107600000Y-103852380D01*
X107676190Y-103928571D01*
X107828571Y-103966666D01*
X108095238Y-103966666D01*
X108247619Y-103928571D01*
X108323809Y-103852380D01*
X108361904Y-103776190D01*
X108361904Y-103623809D01*
X108323809Y-103547619D01*
X108247619Y-103471428D01*
X108095238Y-103433333D01*
X107828571Y-103433333D01*
X107676190Y-103471428D01*
X107600000Y-103547619D01*
X107561904Y-103623809D01*
X107638095Y-104271428D02*
X107600000Y-104309523D01*
X107561904Y-104385714D01*
X107561904Y-104576190D01*
X107600000Y-104652380D01*
X107638095Y-104690476D01*
X107714285Y-104728571D01*
X107790476Y-104728571D01*
X107904761Y-104690476D01*
X108361904Y-104233333D01*
X108361904Y-104728571D01*
X107828571Y-105414285D02*
X108361904Y-105414285D01*
X107523809Y-105223809D02*
X108095238Y-105033333D01*
X108095238Y-105528571D01*
X121200000Y-105042857D02*
X121085714Y-105080952D01*
X121047619Y-105119047D01*
X121009523Y-105195238D01*
X121009523Y-105309523D01*
X121047619Y-105385714D01*
X121085714Y-105423809D01*
X121161904Y-105461904D01*
X121466666Y-105461904D01*
X121466666Y-104661904D01*
X121200000Y-104661904D01*
X121123809Y-104700000D01*
X121085714Y-104738095D01*
X121047619Y-104814285D01*
X121047619Y-104890476D01*
X121085714Y-104966666D01*
X121123809Y-105004761D01*
X121200000Y-105042857D01*
X121466666Y-105042857D01*
X120285714Y-105461904D02*
X120666666Y-105461904D01*
X120666666Y-104661904D01*
X120133333Y-104661904D02*
X119676190Y-104661904D01*
X119904761Y-105461904D02*
X119904761Y-104661904D01*
X119295238Y-105461904D02*
X119371428Y-105423809D01*
X119409523Y-105385714D01*
X119447619Y-105309523D01*
X119447619Y-105080952D01*
X119409523Y-105004761D01*
X119371428Y-104966666D01*
X119295238Y-104928571D01*
X119180952Y-104928571D01*
X119104761Y-104966666D01*
X119066666Y-105004761D01*
X119028571Y-105080952D01*
X119028571Y-105309523D01*
X119066666Y-105385714D01*
X119104761Y-105423809D01*
X119180952Y-105461904D01*
X119295238Y-105461904D01*
X118342857Y-104928571D02*
X118342857Y-105461904D01*
X118685714Y-104928571D02*
X118685714Y-105347619D01*
X118647619Y-105423809D01*
X118571428Y-105461904D01*
X118457142Y-105461904D01*
X118380952Y-105423809D01*
X118342857Y-105385714D01*
X117619047Y-105423809D02*
X117695238Y-105461904D01*
X117847619Y-105461904D01*
X117923809Y-105423809D01*
X117961904Y-105385714D01*
X118000000Y-105309523D01*
X118000000Y-105080952D01*
X117961904Y-105004761D01*
X117923809Y-104966666D01*
X117847619Y-104928571D01*
X117695238Y-104928571D01*
X117619047Y-104966666D01*
X117276190Y-105461904D02*
X117276190Y-104661904D01*
X116933333Y-105461904D02*
X116933333Y-105042857D01*
X116971428Y-104966666D01*
X117047619Y-104928571D01*
X117161904Y-104928571D01*
X117238095Y-104966666D01*
X117276190Y-105004761D01*
X121109523Y-103100000D02*
X121185714Y-103061904D01*
X121300000Y-103061904D01*
X121414285Y-103100000D01*
X121490476Y-103176190D01*
X121528571Y-103252380D01*
X121566666Y-103404761D01*
X121566666Y-103519047D01*
X121528571Y-103671428D01*
X121490476Y-103747619D01*
X121414285Y-103823809D01*
X121300000Y-103861904D01*
X121223809Y-103861904D01*
X121109523Y-103823809D01*
X121071428Y-103785714D01*
X121071428Y-103519047D01*
X121223809Y-103519047D01*
X120728571Y-103861904D02*
X120728571Y-103061904D01*
X120271428Y-103861904D01*
X120271428Y-103061904D01*
X119890476Y-103861904D02*
X119890476Y-103061904D01*
X119700000Y-103061904D01*
X119585714Y-103100000D01*
X119509523Y-103176190D01*
X119471428Y-103252380D01*
X119433333Y-103404761D01*
X119433333Y-103519047D01*
X119471428Y-103671428D01*
X119509523Y-103747619D01*
X119585714Y-103823809D01*
X119700000Y-103861904D01*
X119890476Y-103861904D01*
X113409523Y-103200000D02*
X113485714Y-103161904D01*
X113600000Y-103161904D01*
X113714285Y-103200000D01*
X113790476Y-103276190D01*
X113828571Y-103352380D01*
X113866666Y-103504761D01*
X113866666Y-103619047D01*
X113828571Y-103771428D01*
X113790476Y-103847619D01*
X113714285Y-103923809D01*
X113600000Y-103961904D01*
X113523809Y-103961904D01*
X113409523Y-103923809D01*
X113371428Y-103885714D01*
X113371428Y-103619047D01*
X113523809Y-103619047D01*
X113028571Y-103961904D02*
X113028571Y-103161904D01*
X112571428Y-103961904D01*
X112571428Y-103161904D01*
X112190476Y-103961904D02*
X112190476Y-103161904D01*
X112000000Y-103161904D01*
X111885714Y-103200000D01*
X111809523Y-103276190D01*
X111771428Y-103352380D01*
X111733333Y-103504761D01*
X111733333Y-103619047D01*
X111771428Y-103771428D01*
X111809523Y-103847619D01*
X111885714Y-103923809D01*
X112000000Y-103961904D01*
X112190476Y-103961904D01*
X119028571Y-103557142D02*
X118419047Y-103557142D01*
X118723809Y-103861904D02*
X118723809Y-103252380D01*
X117657142Y-103061904D02*
X118038095Y-103061904D01*
X118076190Y-103442857D01*
X118038095Y-103404761D01*
X117961904Y-103366666D01*
X117771428Y-103366666D01*
X117695238Y-103404761D01*
X117657142Y-103442857D01*
X117619047Y-103519047D01*
X117619047Y-103709523D01*
X117657142Y-103785714D01*
X117695238Y-103823809D01*
X117771428Y-103861904D01*
X117961904Y-103861904D01*
X118038095Y-103823809D01*
X118076190Y-103785714D01*
X117390476Y-103061904D02*
X117123809Y-103861904D01*
X116857142Y-103061904D01*
X115623809Y-108190476D02*
X115661904Y-108304761D01*
X115661904Y-108495238D01*
X115623809Y-108571428D01*
X115585714Y-108609523D01*
X115509523Y-108647619D01*
X115433333Y-108647619D01*
X115357142Y-108609523D01*
X115319047Y-108571428D01*
X115280952Y-108495238D01*
X115242857Y-108342857D01*
X115204761Y-108266666D01*
X115166666Y-108228571D01*
X115090476Y-108190476D01*
X115014285Y-108190476D01*
X114938095Y-108228571D01*
X114900000Y-108266666D01*
X114861904Y-108342857D01*
X114861904Y-108533333D01*
X114900000Y-108647619D01*
X114861904Y-108914285D02*
X115661904Y-109104761D01*
X115090476Y-109257142D01*
X115661904Y-109409523D01*
X114861904Y-109600000D01*
X115585714Y-110361904D02*
X115623809Y-110323809D01*
X115661904Y-110209523D01*
X115661904Y-110133333D01*
X115623809Y-110019047D01*
X115547619Y-109942857D01*
X115471428Y-109904761D01*
X115319047Y-109866666D01*
X115204761Y-109866666D01*
X115052380Y-109904761D01*
X114976190Y-109942857D01*
X114900000Y-110019047D01*
X114861904Y-110133333D01*
X114861904Y-110209523D01*
X114900000Y-110323809D01*
X114938095Y-110361904D01*
X115661904Y-111085714D02*
X115661904Y-110704761D01*
X114861904Y-110704761D01*
X115661904Y-111352380D02*
X114861904Y-111352380D01*
X115661904Y-111809523D02*
X115204761Y-111466666D01*
X114861904Y-111809523D02*
X115319047Y-111352380D01*
X110623809Y-108314285D02*
X110661904Y-108428571D01*
X110661904Y-108619047D01*
X110623809Y-108695238D01*
X110585714Y-108733333D01*
X110509523Y-108771428D01*
X110433333Y-108771428D01*
X110357142Y-108733333D01*
X110319047Y-108695238D01*
X110280952Y-108619047D01*
X110242857Y-108466666D01*
X110204761Y-108390476D01*
X110166666Y-108352380D01*
X110090476Y-108314285D01*
X110014285Y-108314285D01*
X109938095Y-108352380D01*
X109900000Y-108390476D01*
X109861904Y-108466666D01*
X109861904Y-108657142D01*
X109900000Y-108771428D01*
X109861904Y-109038095D02*
X110661904Y-109228571D01*
X110090476Y-109380952D01*
X110661904Y-109533333D01*
X109861904Y-109723809D01*
X110661904Y-110028571D02*
X109861904Y-110028571D01*
X109861904Y-110219047D01*
X109900000Y-110333333D01*
X109976190Y-110409523D01*
X110052380Y-110447619D01*
X110204761Y-110485714D01*
X110319047Y-110485714D01*
X110471428Y-110447619D01*
X110547619Y-110409523D01*
X110623809Y-110333333D01*
X110661904Y-110219047D01*
X110661904Y-110028571D01*
X118457142Y-107890476D02*
X118457142Y-108500000D01*
X118761904Y-108195238D02*
X118152380Y-108195238D01*
X117961904Y-108804761D02*
X117961904Y-109300000D01*
X118266666Y-109033333D01*
X118266666Y-109147619D01*
X118304761Y-109223809D01*
X118342857Y-109261904D01*
X118419047Y-109300000D01*
X118609523Y-109300000D01*
X118685714Y-109261904D01*
X118723809Y-109223809D01*
X118761904Y-109147619D01*
X118761904Y-108919047D01*
X118723809Y-108842857D01*
X118685714Y-108804761D01*
X117961904Y-109528571D02*
X118761904Y-109795238D01*
X117961904Y-110061904D01*
X117961904Y-110252380D02*
X117961904Y-110747619D01*
X118266666Y-110480952D01*
X118266666Y-110595238D01*
X118304761Y-110671428D01*
X118342857Y-110709523D01*
X118419047Y-110747619D01*
X118609523Y-110747619D01*
X118685714Y-110709523D01*
X118723809Y-110671428D01*
X118761904Y-110595238D01*
X118761904Y-110366666D01*
X118723809Y-110290476D01*
X118685714Y-110252380D01*
X101960000Y-124090476D02*
X101921904Y-124014285D01*
X101921904Y-123900000D01*
X101960000Y-123785714D01*
X102036190Y-123709523D01*
X102112380Y-123671428D01*
X102264761Y-123633333D01*
X102379047Y-123633333D01*
X102531428Y-123671428D01*
X102607619Y-123709523D01*
X102683809Y-123785714D01*
X102721904Y-123900000D01*
X102721904Y-123976190D01*
X102683809Y-124090476D01*
X102645714Y-124128571D01*
X102379047Y-124128571D01*
X102379047Y-123976190D01*
X102721904Y-124471428D02*
X101921904Y-124471428D01*
X102721904Y-124928571D01*
X101921904Y-124928571D01*
X102721904Y-125309523D02*
X101921904Y-125309523D01*
X101921904Y-125500000D01*
X101960000Y-125614285D01*
X102036190Y-125690476D01*
X102112380Y-125728571D01*
X102264761Y-125766666D01*
X102379047Y-125766666D01*
X102531428Y-125728571D01*
X102607619Y-125690476D01*
X102683809Y-125614285D01*
X102721904Y-125500000D01*
X102721904Y-125309523D01*
X102407142Y-118140476D02*
X102407142Y-118750000D01*
X102711904Y-118445238D02*
X102102380Y-118445238D01*
X101988095Y-119092857D02*
X101950000Y-119130952D01*
X101911904Y-119207142D01*
X101911904Y-119397619D01*
X101950000Y-119473809D01*
X101988095Y-119511904D01*
X102064285Y-119550000D01*
X102140476Y-119550000D01*
X102254761Y-119511904D01*
X102711904Y-119054761D01*
X102711904Y-119550000D01*
X102178571Y-120235714D02*
X102711904Y-120235714D01*
X101873809Y-120045238D02*
X102445238Y-119854761D01*
X102445238Y-120350000D01*
X101911904Y-120540476D02*
X102711904Y-120807142D01*
X101911904Y-121073809D01*
X137159523Y-101867142D02*
X136550000Y-101867142D01*
X136854761Y-102171904D02*
X136854761Y-101562380D01*
X136245238Y-101371904D02*
X135750000Y-101371904D01*
X136016666Y-101676666D01*
X135902380Y-101676666D01*
X135826190Y-101714761D01*
X135788095Y-101752857D01*
X135750000Y-101829047D01*
X135750000Y-102019523D01*
X135788095Y-102095714D01*
X135826190Y-102133809D01*
X135902380Y-102171904D01*
X136130952Y-102171904D01*
X136207142Y-102133809D01*
X136245238Y-102095714D01*
X135521428Y-101371904D02*
X135254761Y-102171904D01*
X134988095Y-101371904D01*
X134797619Y-101371904D02*
X134302380Y-101371904D01*
X134569047Y-101676666D01*
X134454761Y-101676666D01*
X134378571Y-101714761D01*
X134340476Y-101752857D01*
X134302380Y-101829047D01*
X134302380Y-102019523D01*
X134340476Y-102095714D01*
X134378571Y-102133809D01*
X134454761Y-102171904D01*
X134683333Y-102171904D01*
X134759523Y-102133809D01*
X134797619Y-102095714D01*
X136059523Y-107500000D02*
X136135714Y-107461904D01*
X136250000Y-107461904D01*
X136364285Y-107500000D01*
X136440476Y-107576190D01*
X136478571Y-107652380D01*
X136516666Y-107804761D01*
X136516666Y-107919047D01*
X136478571Y-108071428D01*
X136440476Y-108147619D01*
X136364285Y-108223809D01*
X136250000Y-108261904D01*
X136173809Y-108261904D01*
X136059523Y-108223809D01*
X136021428Y-108185714D01*
X136021428Y-107919047D01*
X136173809Y-107919047D01*
X135678571Y-108261904D02*
X135678571Y-107461904D01*
X135221428Y-108261904D01*
X135221428Y-107461904D01*
X134840476Y-108261904D02*
X134840476Y-107461904D01*
X134650000Y-107461904D01*
X134535714Y-107500000D01*
X134459523Y-107576190D01*
X134421428Y-107652380D01*
X134383333Y-107804761D01*
X134383333Y-107919047D01*
X134421428Y-108071428D01*
X134459523Y-108147619D01*
X134535714Y-108223809D01*
X134650000Y-108261904D01*
X134840476Y-108261904D01*
X144057142Y-103290476D02*
X144057142Y-103900000D01*
X144361904Y-103595238D02*
X143752380Y-103595238D01*
X143638095Y-104242857D02*
X143600000Y-104280952D01*
X143561904Y-104357142D01*
X143561904Y-104547619D01*
X143600000Y-104623809D01*
X143638095Y-104661904D01*
X143714285Y-104700000D01*
X143790476Y-104700000D01*
X143904761Y-104661904D01*
X144361904Y-104204761D01*
X144361904Y-104700000D01*
X143828571Y-105385714D02*
X144361904Y-105385714D01*
X143523809Y-105195238D02*
X144095238Y-105004761D01*
X144095238Y-105500000D01*
X143561904Y-105690476D02*
X144361904Y-105957142D01*
X143561904Y-106223809D01*
X131961904Y-111709523D02*
X131580952Y-111442857D01*
X131961904Y-111252380D02*
X131161904Y-111252380D01*
X131161904Y-111557142D01*
X131200000Y-111633333D01*
X131238095Y-111671428D01*
X131314285Y-111709523D01*
X131428571Y-111709523D01*
X131504761Y-111671428D01*
X131542857Y-111633333D01*
X131580952Y-111557142D01*
X131580952Y-111252380D01*
X131923809Y-112357142D02*
X131961904Y-112280952D01*
X131961904Y-112128571D01*
X131923809Y-112052380D01*
X131847619Y-112014285D01*
X131542857Y-112014285D01*
X131466666Y-112052380D01*
X131428571Y-112128571D01*
X131428571Y-112280952D01*
X131466666Y-112357142D01*
X131542857Y-112395238D01*
X131619047Y-112395238D01*
X131695238Y-112014285D01*
X131923809Y-112700000D02*
X131961904Y-112776190D01*
X131961904Y-112928571D01*
X131923809Y-113004761D01*
X131847619Y-113042857D01*
X131809523Y-113042857D01*
X131733333Y-113004761D01*
X131695238Y-112928571D01*
X131695238Y-112814285D01*
X131657142Y-112738095D01*
X131580952Y-112700000D01*
X131542857Y-112700000D01*
X131466666Y-112738095D01*
X131428571Y-112814285D01*
X131428571Y-112928571D01*
X131466666Y-113004761D01*
X131923809Y-113690476D02*
X131961904Y-113614285D01*
X131961904Y-113461904D01*
X131923809Y-113385714D01*
X131847619Y-113347619D01*
X131542857Y-113347619D01*
X131466666Y-113385714D01*
X131428571Y-113461904D01*
X131428571Y-113614285D01*
X131466666Y-113690476D01*
X131542857Y-113728571D01*
X131619047Y-113728571D01*
X131695238Y-113347619D01*
X131428571Y-113957142D02*
X131428571Y-114261904D01*
X131161904Y-114071428D02*
X131847619Y-114071428D01*
X131923809Y-114109523D01*
X131961904Y-114185714D01*
X131961904Y-114261904D01*
X131442857Y-120104761D02*
X131480952Y-120219047D01*
X131519047Y-120257142D01*
X131595238Y-120295238D01*
X131709523Y-120295238D01*
X131785714Y-120257142D01*
X131823809Y-120219047D01*
X131861904Y-120142857D01*
X131861904Y-119838095D01*
X131061904Y-119838095D01*
X131061904Y-120104761D01*
X131100000Y-120180952D01*
X131138095Y-120219047D01*
X131214285Y-120257142D01*
X131290476Y-120257142D01*
X131366666Y-120219047D01*
X131404761Y-120180952D01*
X131442857Y-120104761D01*
X131442857Y-119838095D01*
X131861904Y-120752380D02*
X131823809Y-120676190D01*
X131785714Y-120638095D01*
X131709523Y-120600000D01*
X131480952Y-120600000D01*
X131404761Y-120638095D01*
X131366666Y-120676190D01*
X131328571Y-120752380D01*
X131328571Y-120866666D01*
X131366666Y-120942857D01*
X131404761Y-120980952D01*
X131480952Y-121019047D01*
X131709523Y-121019047D01*
X131785714Y-120980952D01*
X131823809Y-120942857D01*
X131861904Y-120866666D01*
X131861904Y-120752380D01*
X131861904Y-121476190D02*
X131823809Y-121400000D01*
X131785714Y-121361904D01*
X131709523Y-121323809D01*
X131480952Y-121323809D01*
X131404761Y-121361904D01*
X131366666Y-121400000D01*
X131328571Y-121476190D01*
X131328571Y-121590476D01*
X131366666Y-121666666D01*
X131404761Y-121704761D01*
X131480952Y-121742857D01*
X131709523Y-121742857D01*
X131785714Y-121704761D01*
X131823809Y-121666666D01*
X131861904Y-121590476D01*
X131861904Y-121476190D01*
X131328571Y-121971428D02*
X131328571Y-122276190D01*
X131061904Y-122085714D02*
X131747619Y-122085714D01*
X131823809Y-122123809D01*
X131861904Y-122200000D01*
X131861904Y-122276190D01*
X160957142Y-136090476D02*
X160957142Y-136700000D01*
X161261904Y-136395238D02*
X160652380Y-136395238D01*
X160538095Y-137042857D02*
X160500000Y-137080952D01*
X160461904Y-137157142D01*
X160461904Y-137347619D01*
X160500000Y-137423809D01*
X160538095Y-137461904D01*
X160614285Y-137500000D01*
X160690476Y-137500000D01*
X160804761Y-137461904D01*
X161261904Y-137004761D01*
X161261904Y-137500000D01*
X160728571Y-138185714D02*
X161261904Y-138185714D01*
X160423809Y-137995238D02*
X160995238Y-137804761D01*
X160995238Y-138300000D01*
X160461904Y-138490476D02*
X161261904Y-138757142D01*
X160461904Y-139023809D01*
X135961904Y-131819047D02*
X135161904Y-131819047D01*
X135161904Y-132352380D02*
X135161904Y-132504761D01*
X135200000Y-132580952D01*
X135276190Y-132657142D01*
X135428571Y-132695238D01*
X135695238Y-132695238D01*
X135847619Y-132657142D01*
X135923809Y-132580952D01*
X135961904Y-132504761D01*
X135961904Y-132352380D01*
X135923809Y-132276190D01*
X135847619Y-132200000D01*
X135695238Y-132161904D01*
X135428571Y-132161904D01*
X135276190Y-132200000D01*
X135200000Y-132276190D01*
X135161904Y-132352380D01*
X135238095Y-133000000D02*
X135200000Y-133038095D01*
X135161904Y-133114285D01*
X135161904Y-133304761D01*
X135200000Y-133380952D01*
X135238095Y-133419047D01*
X135314285Y-133457142D01*
X135390476Y-133457142D01*
X135504761Y-133419047D01*
X135961904Y-132961904D01*
X135961904Y-133457142D01*
X135961904Y-133838095D02*
X135961904Y-133990476D01*
X135923809Y-134066666D01*
X135885714Y-134104761D01*
X135771428Y-134180952D01*
X135619047Y-134219047D01*
X135314285Y-134219047D01*
X135238095Y-134180952D01*
X135200000Y-134142857D01*
X135161904Y-134066666D01*
X135161904Y-133914285D01*
X135200000Y-133838095D01*
X135238095Y-133800000D01*
X135314285Y-133761904D01*
X135504761Y-133761904D01*
X135580952Y-133800000D01*
X135619047Y-133838095D01*
X135657142Y-133914285D01*
X135657142Y-134066666D01*
X135619047Y-134142857D01*
X135580952Y-134180952D01*
X135504761Y-134219047D01*
X138661904Y-131819047D02*
X137861904Y-131819047D01*
X137861904Y-132352380D02*
X137861904Y-132504761D01*
X137900000Y-132580952D01*
X137976190Y-132657142D01*
X138128571Y-132695238D01*
X138395238Y-132695238D01*
X138547619Y-132657142D01*
X138623809Y-132580952D01*
X138661904Y-132504761D01*
X138661904Y-132352380D01*
X138623809Y-132276190D01*
X138547619Y-132200000D01*
X138395238Y-132161904D01*
X138128571Y-132161904D01*
X137976190Y-132200000D01*
X137900000Y-132276190D01*
X137861904Y-132352380D01*
X137938095Y-133000000D02*
X137900000Y-133038095D01*
X137861904Y-133114285D01*
X137861904Y-133304761D01*
X137900000Y-133380952D01*
X137938095Y-133419047D01*
X138014285Y-133457142D01*
X138090476Y-133457142D01*
X138204761Y-133419047D01*
X138661904Y-132961904D01*
X138661904Y-133457142D01*
X138204761Y-133914285D02*
X138166666Y-133838095D01*
X138128571Y-133800000D01*
X138052380Y-133761904D01*
X138014285Y-133761904D01*
X137938095Y-133800000D01*
X137900000Y-133838095D01*
X137861904Y-133914285D01*
X137861904Y-134066666D01*
X137900000Y-134142857D01*
X137938095Y-134180952D01*
X138014285Y-134219047D01*
X138052380Y-134219047D01*
X138128571Y-134180952D01*
X138166666Y-134142857D01*
X138204761Y-134066666D01*
X138204761Y-133914285D01*
X138242857Y-133838095D01*
X138280952Y-133800000D01*
X138357142Y-133761904D01*
X138509523Y-133761904D01*
X138585714Y-133800000D01*
X138623809Y-133838095D01*
X138661904Y-133914285D01*
X138661904Y-134066666D01*
X138623809Y-134142857D01*
X138585714Y-134180952D01*
X138509523Y-134219047D01*
X138357142Y-134219047D01*
X138280952Y-134180952D01*
X138242857Y-134142857D01*
X138204761Y-134066666D01*
X141261904Y-131819047D02*
X140461904Y-131819047D01*
X140461904Y-132352380D02*
X140461904Y-132504761D01*
X140500000Y-132580952D01*
X140576190Y-132657142D01*
X140728571Y-132695238D01*
X140995238Y-132695238D01*
X141147619Y-132657142D01*
X141223809Y-132580952D01*
X141261904Y-132504761D01*
X141261904Y-132352380D01*
X141223809Y-132276190D01*
X141147619Y-132200000D01*
X140995238Y-132161904D01*
X140728571Y-132161904D01*
X140576190Y-132200000D01*
X140500000Y-132276190D01*
X140461904Y-132352380D01*
X140538095Y-133000000D02*
X140500000Y-133038095D01*
X140461904Y-133114285D01*
X140461904Y-133304761D01*
X140500000Y-133380952D01*
X140538095Y-133419047D01*
X140614285Y-133457142D01*
X140690476Y-133457142D01*
X140804761Y-133419047D01*
X141261904Y-132961904D01*
X141261904Y-133457142D01*
X140461904Y-133723809D02*
X140461904Y-134257142D01*
X141261904Y-133914285D01*
X133461904Y-132633333D02*
X133461904Y-133090476D01*
X134261904Y-132861904D02*
X133461904Y-132861904D01*
X134261904Y-133357142D02*
X133461904Y-133357142D01*
X134261904Y-133700000D02*
X133842857Y-133700000D01*
X133766666Y-133661904D01*
X133728571Y-133585714D01*
X133728571Y-133471428D01*
X133766666Y-133395238D01*
X133804761Y-133357142D01*
X134223809Y-134385714D02*
X134261904Y-134309523D01*
X134261904Y-134157142D01*
X134223809Y-134080952D01*
X134147619Y-134042857D01*
X133842857Y-134042857D01*
X133766666Y-134080952D01*
X133728571Y-134157142D01*
X133728571Y-134309523D01*
X133766666Y-134385714D01*
X133842857Y-134423809D01*
X133919047Y-134423809D01*
X133995238Y-134042857D01*
X134261904Y-134766666D02*
X133728571Y-134766666D01*
X133880952Y-134766666D02*
X133804761Y-134804761D01*
X133766666Y-134842857D01*
X133728571Y-134919047D01*
X133728571Y-134995238D01*
X134261904Y-135261904D02*
X133728571Y-135261904D01*
X133804761Y-135261904D02*
X133766666Y-135300000D01*
X133728571Y-135376190D01*
X133728571Y-135490476D01*
X133766666Y-135566666D01*
X133842857Y-135604761D01*
X134261904Y-135604761D01*
X133842857Y-135604761D02*
X133766666Y-135642857D01*
X133728571Y-135719047D01*
X133728571Y-135833333D01*
X133766666Y-135909523D01*
X133842857Y-135947619D01*
X134261904Y-135947619D01*
X134261904Y-136328571D02*
X133728571Y-136328571D01*
X133461904Y-136328571D02*
X133500000Y-136290476D01*
X133538095Y-136328571D01*
X133500000Y-136366666D01*
X133461904Y-136328571D01*
X133538095Y-136328571D01*
X134223809Y-136671428D02*
X134261904Y-136747619D01*
X134261904Y-136900000D01*
X134223809Y-136976190D01*
X134147619Y-137014285D01*
X134109523Y-137014285D01*
X134033333Y-136976190D01*
X133995238Y-136900000D01*
X133995238Y-136785714D01*
X133957142Y-136709523D01*
X133880952Y-136671428D01*
X133842857Y-136671428D01*
X133766666Y-136709523D01*
X133728571Y-136785714D01*
X133728571Y-136900000D01*
X133766666Y-136976190D01*
X133728571Y-137242857D02*
X133728571Y-137547619D01*
X133461904Y-137357142D02*
X134147619Y-137357142D01*
X134223809Y-137395238D01*
X134261904Y-137471428D01*
X134261904Y-137547619D01*
X134261904Y-137928571D02*
X134223809Y-137852380D01*
X134185714Y-137814285D01*
X134109523Y-137776190D01*
X133880952Y-137776190D01*
X133804761Y-137814285D01*
X133766666Y-137852380D01*
X133728571Y-137928571D01*
X133728571Y-138042857D01*
X133766666Y-138119047D01*
X133804761Y-138157142D01*
X133880952Y-138195238D01*
X134109523Y-138195238D01*
X134185714Y-138157142D01*
X134223809Y-138119047D01*
X134261904Y-138042857D01*
X134261904Y-137928571D01*
X134261904Y-138538095D02*
X133728571Y-138538095D01*
X133880952Y-138538095D02*
X133804761Y-138576190D01*
X133766666Y-138614285D01*
X133728571Y-138690476D01*
X133728571Y-138766666D01*
X143561904Y-131819047D02*
X142761904Y-131819047D01*
X142761904Y-132352380D02*
X142761904Y-132504761D01*
X142800000Y-132580952D01*
X142876190Y-132657142D01*
X143028571Y-132695238D01*
X143295238Y-132695238D01*
X143447619Y-132657142D01*
X143523809Y-132580952D01*
X143561904Y-132504761D01*
X143561904Y-132352380D01*
X143523809Y-132276190D01*
X143447619Y-132200000D01*
X143295238Y-132161904D01*
X143028571Y-132161904D01*
X142876190Y-132200000D01*
X142800000Y-132276190D01*
X142761904Y-132352380D01*
X142838095Y-133000000D02*
X142800000Y-133038095D01*
X142761904Y-133114285D01*
X142761904Y-133304761D01*
X142800000Y-133380952D01*
X142838095Y-133419047D01*
X142914285Y-133457142D01*
X142990476Y-133457142D01*
X143104761Y-133419047D01*
X143561904Y-132961904D01*
X143561904Y-133457142D01*
X142761904Y-134142857D02*
X142761904Y-133990476D01*
X142800000Y-133914285D01*
X142838095Y-133876190D01*
X142952380Y-133800000D01*
X143104761Y-133761904D01*
X143409523Y-133761904D01*
X143485714Y-133800000D01*
X143523809Y-133838095D01*
X143561904Y-133914285D01*
X143561904Y-134066666D01*
X143523809Y-134142857D01*
X143485714Y-134180952D01*
X143409523Y-134219047D01*
X143219047Y-134219047D01*
X143142857Y-134180952D01*
X143104761Y-134142857D01*
X143066666Y-134066666D01*
X143066666Y-133914285D01*
X143104761Y-133838095D01*
X143142857Y-133800000D01*
X143219047Y-133761904D01*
X143700000Y-101390476D02*
X143661904Y-101314285D01*
X143661904Y-101200000D01*
X143700000Y-101085714D01*
X143776190Y-101009523D01*
X143852380Y-100971428D01*
X144004761Y-100933333D01*
X144119047Y-100933333D01*
X144271428Y-100971428D01*
X144347619Y-101009523D01*
X144423809Y-101085714D01*
X144461904Y-101200000D01*
X144461904Y-101276190D01*
X144423809Y-101390476D01*
X144385714Y-101428571D01*
X144119047Y-101428571D01*
X144119047Y-101276190D01*
X144461904Y-101771428D02*
X143661904Y-101771428D01*
X144461904Y-102228571D01*
X143661904Y-102228571D01*
X144461904Y-102609523D02*
X143661904Y-102609523D01*
X143661904Y-102800000D01*
X143700000Y-102914285D01*
X143776190Y-102990476D01*
X143852380Y-103028571D01*
X144004761Y-103066666D01*
X144119047Y-103066666D01*
X144271428Y-103028571D01*
X144347619Y-102990476D01*
X144423809Y-102914285D01*
X144461904Y-102800000D01*
X144461904Y-102609523D01*
X144500000Y-137090476D02*
X144461904Y-137014285D01*
X144461904Y-136900000D01*
X144500000Y-136785714D01*
X144576190Y-136709523D01*
X144652380Y-136671428D01*
X144804761Y-136633333D01*
X144919047Y-136633333D01*
X145071428Y-136671428D01*
X145147619Y-136709523D01*
X145223809Y-136785714D01*
X145261904Y-136900000D01*
X145261904Y-136976190D01*
X145223809Y-137090476D01*
X145185714Y-137128571D01*
X144919047Y-137128571D01*
X144919047Y-136976190D01*
X145261904Y-137471428D02*
X144461904Y-137471428D01*
X145261904Y-137928571D01*
X144461904Y-137928571D01*
X145261904Y-138309523D02*
X144461904Y-138309523D01*
X144461904Y-138500000D01*
X144500000Y-138614285D01*
X144576190Y-138690476D01*
X144652380Y-138728571D01*
X144804761Y-138766666D01*
X144919047Y-138766666D01*
X145071428Y-138728571D01*
X145147619Y-138690476D01*
X145223809Y-138614285D01*
X145261904Y-138500000D01*
X145261904Y-138309523D01*
X117057142Y-133571428D02*
X117057142Y-134180952D01*
X117361904Y-133876190D02*
X116752380Y-133876190D01*
X116561904Y-134942857D02*
X116561904Y-134561904D01*
X116942857Y-134523809D01*
X116904761Y-134561904D01*
X116866666Y-134638095D01*
X116866666Y-134828571D01*
X116904761Y-134904761D01*
X116942857Y-134942857D01*
X117019047Y-134980952D01*
X117209523Y-134980952D01*
X117285714Y-134942857D01*
X117323809Y-134904761D01*
X117361904Y-134828571D01*
X117361904Y-134638095D01*
X117323809Y-134561904D01*
X117285714Y-134523809D01*
X116561904Y-135209523D02*
X117361904Y-135476190D01*
X116561904Y-135742857D01*
X116600000Y-137190476D02*
X116561904Y-137114285D01*
X116561904Y-137000000D01*
X116600000Y-136885714D01*
X116676190Y-136809523D01*
X116752380Y-136771428D01*
X116904761Y-136733333D01*
X117019047Y-136733333D01*
X117171428Y-136771428D01*
X117247619Y-136809523D01*
X117323809Y-136885714D01*
X117361904Y-137000000D01*
X117361904Y-137076190D01*
X117323809Y-137190476D01*
X117285714Y-137228571D01*
X117019047Y-137228571D01*
X117019047Y-137076190D01*
X117361904Y-137571428D02*
X116561904Y-137571428D01*
X117361904Y-138028571D01*
X116561904Y-138028571D01*
X117361904Y-138409523D02*
X116561904Y-138409523D01*
X116561904Y-138600000D01*
X116600000Y-138714285D01*
X116676190Y-138790476D01*
X116752380Y-138828571D01*
X116904761Y-138866666D01*
X117019047Y-138866666D01*
X117171428Y-138828571D01*
X117247619Y-138790476D01*
X117323809Y-138714285D01*
X117361904Y-138600000D01*
X117361904Y-138409523D01*
D12*
%TO.C,G\u002A\u002A\u002A*%
G36*
X134986160Y-122945360D02*
G01*
X135011560Y-122930120D01*
X135069980Y-122894560D01*
X135153800Y-122838680D01*
X135252860Y-122772640D01*
X135351920Y-122706600D01*
X135433200Y-122653260D01*
X135489080Y-122615160D01*
X135514480Y-122602460D01*
X135527180Y-122607540D01*
X135572900Y-122630400D01*
X135641480Y-122665960D01*
X135682120Y-122686280D01*
X135743080Y-122711680D01*
X135776100Y-122719300D01*
X135781180Y-122709140D01*
X135804040Y-122660880D01*
X135839600Y-122579600D01*
X135885320Y-122470380D01*
X135941200Y-122343380D01*
X135997080Y-122208760D01*
X136055500Y-122069060D01*
X136111380Y-121934440D01*
X136159640Y-121815060D01*
X136200280Y-121718540D01*
X136225680Y-121649960D01*
X136235840Y-121622020D01*
X136233300Y-121614400D01*
X136200280Y-121583920D01*
X136146940Y-121543280D01*
X136027560Y-121446760D01*
X135910720Y-121301980D01*
X135839600Y-121136880D01*
X135816740Y-120951460D01*
X135837060Y-120781280D01*
X135903100Y-120618720D01*
X136017400Y-120471400D01*
X136157100Y-120362180D01*
X136319660Y-120293600D01*
X136500000Y-120270740D01*
X136672720Y-120291060D01*
X136840360Y-120357100D01*
X136987680Y-120468860D01*
X137051180Y-120539980D01*
X137137540Y-120689840D01*
X137185800Y-120847320D01*
X137190880Y-120887960D01*
X137183260Y-121063220D01*
X137132460Y-121233400D01*
X137038480Y-121383260D01*
X136908940Y-121507720D01*
X136893700Y-121517880D01*
X136835280Y-121563600D01*
X136794640Y-121594080D01*
X136764160Y-121619480D01*
X136987680Y-122157960D01*
X137023240Y-122241780D01*
X137084200Y-122389100D01*
X137137540Y-122516100D01*
X137180720Y-122617700D01*
X137211200Y-122683740D01*
X137223900Y-122711680D01*
X137223900Y-122714220D01*
X137244220Y-122716760D01*
X137284860Y-122701520D01*
X137361060Y-122665960D01*
X137409320Y-122640560D01*
X137467740Y-122612620D01*
X137493140Y-122602460D01*
X137516000Y-122615160D01*
X137569340Y-122650720D01*
X137650620Y-122704060D01*
X137747140Y-122767560D01*
X137838580Y-122831060D01*
X137922400Y-122886940D01*
X137983360Y-122925040D01*
X138013840Y-122942820D01*
X138018920Y-122942820D01*
X138044320Y-122927580D01*
X138092580Y-122886940D01*
X138166240Y-122818360D01*
X138270380Y-122714220D01*
X138285620Y-122698980D01*
X138371980Y-122612620D01*
X138440560Y-122538960D01*
X138486280Y-122488160D01*
X138504060Y-122465300D01*
X138488820Y-122434820D01*
X138450720Y-122373860D01*
X138394840Y-122287500D01*
X138326260Y-122188440D01*
X138148460Y-121929360D01*
X138244980Y-121685520D01*
X138275460Y-121609320D01*
X138313560Y-121520420D01*
X138341500Y-121454380D01*
X138356740Y-121426440D01*
X138382140Y-121416280D01*
X138450720Y-121401040D01*
X138547240Y-121380720D01*
X138661540Y-121360400D01*
X138773300Y-121340080D01*
X138872360Y-121319760D01*
X138943480Y-121307060D01*
X138976500Y-121299440D01*
X138984120Y-121294360D01*
X138991740Y-121279120D01*
X138994280Y-121246100D01*
X138996820Y-121185140D01*
X138999360Y-121091160D01*
X138999360Y-120951460D01*
X138999360Y-120936220D01*
X138996820Y-120806680D01*
X138994280Y-120700000D01*
X138991740Y-120633960D01*
X138986660Y-120606020D01*
X138956180Y-120598400D01*
X138885060Y-120583160D01*
X138786000Y-120565380D01*
X138666620Y-120542520D01*
X138659000Y-120539980D01*
X138542160Y-120517120D01*
X138443100Y-120496800D01*
X138371980Y-120481560D01*
X138344040Y-120471400D01*
X138336420Y-120463780D01*
X138313560Y-120418060D01*
X138280540Y-120344400D01*
X138239900Y-120255500D01*
X138201800Y-120161520D01*
X138168780Y-120077700D01*
X138145920Y-120016740D01*
X138138300Y-119988800D01*
X138140840Y-119986260D01*
X138158620Y-119958320D01*
X138199260Y-119897360D01*
X138255140Y-119813540D01*
X138323720Y-119711940D01*
X138328800Y-119704320D01*
X138397380Y-119605260D01*
X138453260Y-119518900D01*
X138488820Y-119460480D01*
X138504060Y-119432540D01*
X138504060Y-119430000D01*
X138481200Y-119399520D01*
X138430400Y-119343640D01*
X138356740Y-119267440D01*
X138270380Y-119178540D01*
X138242440Y-119153140D01*
X138143380Y-119056620D01*
X138077340Y-118995660D01*
X138034160Y-118962640D01*
X138013840Y-118955020D01*
X137983360Y-118972800D01*
X137919860Y-119013440D01*
X137836040Y-119071860D01*
X137734440Y-119140440D01*
X137726820Y-119145520D01*
X137627760Y-119214100D01*
X137543940Y-119269980D01*
X137485520Y-119310620D01*
X137457580Y-119325860D01*
X137455040Y-119325860D01*
X137414400Y-119313160D01*
X137343280Y-119287760D01*
X137254380Y-119254740D01*
X137162940Y-119216640D01*
X137079120Y-119181080D01*
X137015620Y-119153140D01*
X136985140Y-119135360D01*
X136974980Y-119099800D01*
X136957200Y-119023600D01*
X136936880Y-118922000D01*
X136911480Y-118800080D01*
X136908940Y-118779760D01*
X136886080Y-118660380D01*
X136868300Y-118561320D01*
X136853060Y-118492740D01*
X136845440Y-118464800D01*
X136830200Y-118462260D01*
X136771780Y-118457180D01*
X136682880Y-118454640D01*
X136573660Y-118454640D01*
X136461900Y-118454640D01*
X136352680Y-118457180D01*
X136258700Y-118459720D01*
X136190120Y-118464800D01*
X136162180Y-118469880D01*
X136162180Y-118472420D01*
X136152020Y-118510520D01*
X136134240Y-118584180D01*
X136113920Y-118688320D01*
X136091060Y-118810240D01*
X136085980Y-118833100D01*
X136063120Y-118949940D01*
X136042800Y-119049000D01*
X136030100Y-119115040D01*
X136022480Y-119142980D01*
X136009780Y-119148060D01*
X135961520Y-119168380D01*
X135882780Y-119201400D01*
X135783720Y-119242040D01*
X135555120Y-119333480D01*
X135273180Y-119142980D01*
X135247780Y-119125200D01*
X135146180Y-119056620D01*
X135064900Y-119000740D01*
X135006480Y-118962640D01*
X134983620Y-118949940D01*
X134981080Y-118949940D01*
X134953140Y-118975340D01*
X134897260Y-119028680D01*
X134821060Y-119102340D01*
X134732160Y-119188700D01*
X134668660Y-119254740D01*
X134589920Y-119333480D01*
X134541660Y-119386820D01*
X134513720Y-119419840D01*
X134506100Y-119440160D01*
X134508640Y-119455400D01*
X134526420Y-119483340D01*
X134567060Y-119544300D01*
X134625480Y-119630660D01*
X134694060Y-119729720D01*
X134749940Y-119813540D01*
X134810900Y-119907520D01*
X134849000Y-119973560D01*
X134864240Y-120006580D01*
X134859160Y-120019280D01*
X134841380Y-120075160D01*
X134805820Y-120158980D01*
X134765180Y-120258040D01*
X134666120Y-120479020D01*
X134521340Y-120506960D01*
X134432440Y-120524740D01*
X134310520Y-120547600D01*
X134191140Y-120570460D01*
X134008260Y-120606020D01*
X134000640Y-121281660D01*
X134028580Y-121294360D01*
X134056520Y-121301980D01*
X134125100Y-121317220D01*
X134221620Y-121337540D01*
X134338460Y-121357860D01*
X134434980Y-121375640D01*
X134534040Y-121395960D01*
X134605160Y-121408660D01*
X134635640Y-121416280D01*
X134645800Y-121426440D01*
X134668660Y-121474700D01*
X134704220Y-121550900D01*
X134744860Y-121642340D01*
X134782960Y-121736320D01*
X134818520Y-121825220D01*
X134841380Y-121891260D01*
X134851540Y-121924280D01*
X134838840Y-121952220D01*
X134800740Y-122010640D01*
X134747400Y-122091920D01*
X134678820Y-122190980D01*
X134612780Y-122287500D01*
X134554360Y-122371320D01*
X134516260Y-122432280D01*
X134498480Y-122460220D01*
X134508640Y-122478000D01*
X134546740Y-122526260D01*
X134620400Y-122602460D01*
X134732160Y-122711680D01*
X134749940Y-122729460D01*
X134836300Y-122813280D01*
X134909960Y-122881860D01*
X134963300Y-122927580D01*
X134986160Y-122945360D01*
G37*
X134986160Y-122945360D02*
X135011560Y-122930120D01*
X135069980Y-122894560D01*
X135153800Y-122838680D01*
X135252860Y-122772640D01*
X135351920Y-122706600D01*
X135433200Y-122653260D01*
X135489080Y-122615160D01*
X135514480Y-122602460D01*
X135527180Y-122607540D01*
X135572900Y-122630400D01*
X135641480Y-122665960D01*
X135682120Y-122686280D01*
X135743080Y-122711680D01*
X135776100Y-122719300D01*
X135781180Y-122709140D01*
X135804040Y-122660880D01*
X135839600Y-122579600D01*
X135885320Y-122470380D01*
X135941200Y-122343380D01*
X135997080Y-122208760D01*
X136055500Y-122069060D01*
X136111380Y-121934440D01*
X136159640Y-121815060D01*
X136200280Y-121718540D01*
X136225680Y-121649960D01*
X136235840Y-121622020D01*
X136233300Y-121614400D01*
X136200280Y-121583920D01*
X136146940Y-121543280D01*
X136027560Y-121446760D01*
X135910720Y-121301980D01*
X135839600Y-121136880D01*
X135816740Y-120951460D01*
X135837060Y-120781280D01*
X135903100Y-120618720D01*
X136017400Y-120471400D01*
X136157100Y-120362180D01*
X136319660Y-120293600D01*
X136500000Y-120270740D01*
X136672720Y-120291060D01*
X136840360Y-120357100D01*
X136987680Y-120468860D01*
X137051180Y-120539980D01*
X137137540Y-120689840D01*
X137185800Y-120847320D01*
X137190880Y-120887960D01*
X137183260Y-121063220D01*
X137132460Y-121233400D01*
X137038480Y-121383260D01*
X136908940Y-121507720D01*
X136893700Y-121517880D01*
X136835280Y-121563600D01*
X136794640Y-121594080D01*
X136764160Y-121619480D01*
X136987680Y-122157960D01*
X137023240Y-122241780D01*
X137084200Y-122389100D01*
X137137540Y-122516100D01*
X137180720Y-122617700D01*
X137211200Y-122683740D01*
X137223900Y-122711680D01*
X137223900Y-122714220D01*
X137244220Y-122716760D01*
X137284860Y-122701520D01*
X137361060Y-122665960D01*
X137409320Y-122640560D01*
X137467740Y-122612620D01*
X137493140Y-122602460D01*
X137516000Y-122615160D01*
X137569340Y-122650720D01*
X137650620Y-122704060D01*
X137747140Y-122767560D01*
X137838580Y-122831060D01*
X137922400Y-122886940D01*
X137983360Y-122925040D01*
X138013840Y-122942820D01*
X138018920Y-122942820D01*
X138044320Y-122927580D01*
X138092580Y-122886940D01*
X138166240Y-122818360D01*
X138270380Y-122714220D01*
X138285620Y-122698980D01*
X138371980Y-122612620D01*
X138440560Y-122538960D01*
X138486280Y-122488160D01*
X138504060Y-122465300D01*
X138488820Y-122434820D01*
X138450720Y-122373860D01*
X138394840Y-122287500D01*
X138326260Y-122188440D01*
X138148460Y-121929360D01*
X138244980Y-121685520D01*
X138275460Y-121609320D01*
X138313560Y-121520420D01*
X138341500Y-121454380D01*
X138356740Y-121426440D01*
X138382140Y-121416280D01*
X138450720Y-121401040D01*
X138547240Y-121380720D01*
X138661540Y-121360400D01*
X138773300Y-121340080D01*
X138872360Y-121319760D01*
X138943480Y-121307060D01*
X138976500Y-121299440D01*
X138984120Y-121294360D01*
X138991740Y-121279120D01*
X138994280Y-121246100D01*
X138996820Y-121185140D01*
X138999360Y-121091160D01*
X138999360Y-120951460D01*
X138999360Y-120936220D01*
X138996820Y-120806680D01*
X138994280Y-120700000D01*
X138991740Y-120633960D01*
X138986660Y-120606020D01*
X138956180Y-120598400D01*
X138885060Y-120583160D01*
X138786000Y-120565380D01*
X138666620Y-120542520D01*
X138659000Y-120539980D01*
X138542160Y-120517120D01*
X138443100Y-120496800D01*
X138371980Y-120481560D01*
X138344040Y-120471400D01*
X138336420Y-120463780D01*
X138313560Y-120418060D01*
X138280540Y-120344400D01*
X138239900Y-120255500D01*
X138201800Y-120161520D01*
X138168780Y-120077700D01*
X138145920Y-120016740D01*
X138138300Y-119988800D01*
X138140840Y-119986260D01*
X138158620Y-119958320D01*
X138199260Y-119897360D01*
X138255140Y-119813540D01*
X138323720Y-119711940D01*
X138328800Y-119704320D01*
X138397380Y-119605260D01*
X138453260Y-119518900D01*
X138488820Y-119460480D01*
X138504060Y-119432540D01*
X138504060Y-119430000D01*
X138481200Y-119399520D01*
X138430400Y-119343640D01*
X138356740Y-119267440D01*
X138270380Y-119178540D01*
X138242440Y-119153140D01*
X138143380Y-119056620D01*
X138077340Y-118995660D01*
X138034160Y-118962640D01*
X138013840Y-118955020D01*
X137983360Y-118972800D01*
X137919860Y-119013440D01*
X137836040Y-119071860D01*
X137734440Y-119140440D01*
X137726820Y-119145520D01*
X137627760Y-119214100D01*
X137543940Y-119269980D01*
X137485520Y-119310620D01*
X137457580Y-119325860D01*
X137455040Y-119325860D01*
X137414400Y-119313160D01*
X137343280Y-119287760D01*
X137254380Y-119254740D01*
X137162940Y-119216640D01*
X137079120Y-119181080D01*
X137015620Y-119153140D01*
X136985140Y-119135360D01*
X136974980Y-119099800D01*
X136957200Y-119023600D01*
X136936880Y-118922000D01*
X136911480Y-118800080D01*
X136908940Y-118779760D01*
X136886080Y-118660380D01*
X136868300Y-118561320D01*
X136853060Y-118492740D01*
X136845440Y-118464800D01*
X136830200Y-118462260D01*
X136771780Y-118457180D01*
X136682880Y-118454640D01*
X136573660Y-118454640D01*
X136461900Y-118454640D01*
X136352680Y-118457180D01*
X136258700Y-118459720D01*
X136190120Y-118464800D01*
X136162180Y-118469880D01*
X136162180Y-118472420D01*
X136152020Y-118510520D01*
X136134240Y-118584180D01*
X136113920Y-118688320D01*
X136091060Y-118810240D01*
X136085980Y-118833100D01*
X136063120Y-118949940D01*
X136042800Y-119049000D01*
X136030100Y-119115040D01*
X136022480Y-119142980D01*
X136009780Y-119148060D01*
X135961520Y-119168380D01*
X135882780Y-119201400D01*
X135783720Y-119242040D01*
X135555120Y-119333480D01*
X135273180Y-119142980D01*
X135247780Y-119125200D01*
X135146180Y-119056620D01*
X135064900Y-119000740D01*
X135006480Y-118962640D01*
X134983620Y-118949940D01*
X134981080Y-118949940D01*
X134953140Y-118975340D01*
X134897260Y-119028680D01*
X134821060Y-119102340D01*
X134732160Y-119188700D01*
X134668660Y-119254740D01*
X134589920Y-119333480D01*
X134541660Y-119386820D01*
X134513720Y-119419840D01*
X134506100Y-119440160D01*
X134508640Y-119455400D01*
X134526420Y-119483340D01*
X134567060Y-119544300D01*
X134625480Y-119630660D01*
X134694060Y-119729720D01*
X134749940Y-119813540D01*
X134810900Y-119907520D01*
X134849000Y-119973560D01*
X134864240Y-120006580D01*
X134859160Y-120019280D01*
X134841380Y-120075160D01*
X134805820Y-120158980D01*
X134765180Y-120258040D01*
X134666120Y-120479020D01*
X134521340Y-120506960D01*
X134432440Y-120524740D01*
X134310520Y-120547600D01*
X134191140Y-120570460D01*
X134008260Y-120606020D01*
X134000640Y-121281660D01*
X134028580Y-121294360D01*
X134056520Y-121301980D01*
X134125100Y-121317220D01*
X134221620Y-121337540D01*
X134338460Y-121357860D01*
X134434980Y-121375640D01*
X134534040Y-121395960D01*
X134605160Y-121408660D01*
X134635640Y-121416280D01*
X134645800Y-121426440D01*
X134668660Y-121474700D01*
X134704220Y-121550900D01*
X134744860Y-121642340D01*
X134782960Y-121736320D01*
X134818520Y-121825220D01*
X134841380Y-121891260D01*
X134851540Y-121924280D01*
X134838840Y-121952220D01*
X134800740Y-122010640D01*
X134747400Y-122091920D01*
X134678820Y-122190980D01*
X134612780Y-122287500D01*
X134554360Y-122371320D01*
X134516260Y-122432280D01*
X134498480Y-122460220D01*
X134508640Y-122478000D01*
X134546740Y-122526260D01*
X134620400Y-122602460D01*
X134732160Y-122711680D01*
X134749940Y-122729460D01*
X134836300Y-122813280D01*
X134909960Y-122881860D01*
X134963300Y-122927580D01*
X134986160Y-122945360D01*
%TD*%
M02*
