M48
; DRILL file {KiCad (5.1.10)-1} date 11/13/21 10:58:31
; FORMAT={-:-/ absolute / metric / decimal}
; #@! TF.CreationDate,2021-11-13T10:58:31+01:00
; #@! TF.GenerationSoftware,Kicad,Pcbnew,(5.1.10)-1
; #@! TF.FileFunction,Plated,1,4,PTH
FMAT,2
METRIC
T1C0.200
T2C0.350
T3C0.400
T4C1.000
T5C1.400
%
G90
G05
T1
X101.9Y-109.6
X102.0Y-110.6
X102.0Y-112.9
X103.4Y-109.8
X103.5Y-112.9
X105.3Y-113.0
X106.6Y-110.3
X106.9Y-112.9
X110.2Y-114.4
X110.2Y-119.3
X111.176Y-118.41
X111.9Y-116.3
X111.938Y-121.585
X112.7Y-114.4
X112.7Y-120.029
X113.2Y-117.185
X113.4Y-114.4
X113.4Y-121.6
X114.177Y-118.329
X114.307Y-121.584
X114.9Y-115.6
X115.3Y-114.1
X115.923Y-120.136
X116.0Y-117.0
X116.003Y-120.781
X116.1Y-118.0
X116.1Y-121.8
X116.2Y-118.7
X116.269Y-125.131
X117.1Y-116.9
X117.86Y-121.44
X118.127Y-116.891
X118.3Y-126.9
X118.4Y-125.1
X120.4Y-114.4
X120.9Y-113.9
X121.1Y-117.0
X121.1Y-117.9
X121.1Y-118.6
X121.1Y-119.25
X121.1Y-119.9
X121.1Y-120.55
X121.408Y-113.392
X121.5Y-122.8
X121.6Y-123.5
X121.9Y-112.9
X122.2Y-125.9
X122.706Y-126.694
X122.8Y-117.6
X122.899Y-119.514
X122.9Y-120.7
X122.908Y-122.855
X123.5Y-124.1
X123.503Y-125.903
X124.5Y-122.8
X124.638Y-117.902
X124.7Y-117.2
X125.7Y-114.8
X126.162Y-118.029
X126.2Y-121.6
X127.0Y-124.6
X127.6Y-117.4
X128.3Y-120.2
X130.5Y-129.1
X130.5Y-132.4
X131.0Y-126.3
X131.4Y-122.9
X131.7Y-119.5
X136.0Y-107.0
X136.2Y-102.9
X137.2Y-129.1
X137.2Y-132.2
X139.1Y-116.3
X139.6Y-104.7
X139.6Y-109.3
X141.8Y-115.6
X145.3Y-110.9
X146.6Y-115.1
X147.2Y-112.6
X147.7Y-121.9
X148.3Y-123.9
X149.2Y-111.0
X152.0Y-113.0
X153.0Y-117.9
X155.8Y-116.5
X159.7Y-112.4
X160.4Y-109.8
X161.8Y-125.5
X166.1Y-112.2
T2
X117.27Y-118.054
X117.27Y-119.329
X117.27Y-120.605
X118.545Y-118.054
X118.545Y-119.329
X118.545Y-120.605
X119.82Y-118.054
X119.82Y-119.329
X119.82Y-120.605
T3
X104.064Y-138.095
X105.367Y-132.38
X108.9Y-113.1
X110.7Y-113.1
X112.5Y-113.1
X113.462Y-132.126
X114.4Y-113.1
X114.732Y-125.141
X116.764Y-112.822
X117.3Y-109.4
X118.1Y-113.8
X118.8Y-138.1
X119.179Y-116.936
X119.285Y-110.042
X119.9Y-129.85
X120.2Y-136.8
X121.1Y-130.6
X121.1Y-133.1
X121.1Y-136.8
X122.0Y-136.8
X122.352Y-112.06
X123.2Y-138.1
X123.4Y-130.5
X124.9Y-138.2
X126.5Y-136.7
X126.924Y-113.33
X128.448Y-111.044
X129.591Y-136.698
X129.718Y-134.412
X132.385Y-128.189
X132.385Y-131.842
X132.639Y-127.046
X132.639Y-130.602
X133.02Y-114.092
X136.957Y-127.554
X138.1Y-101.9
X138.1Y-105.964
X138.481Y-131.11
X138.862Y-102.662
X138.862Y-107.234
X140.64Y-114.092
X141.0Y-127.0
X141.656Y-103.678
X141.656Y-108.25
X141.91Y-128.189
X142.164Y-131.842
X142.418Y-104.948
X142.418Y-109.52
X142.418Y-130.729
X147.244Y-137.206
X148.006Y-129.84
X152.07Y-107.107
X154.229Y-117.902
X154.737Y-123.871
X157.785Y-114.854
X159.436Y-129.84
X165.278Y-123.871
T4
X107.62Y-135.428
X107.62Y-137.968
X110.16Y-101.9
X110.16Y-106.98
X110.16Y-135.428
X110.16Y-137.968
X112.7Y-101.9
X112.7Y-106.98
X112.7Y-135.428
X112.7Y-137.968
X115.24Y-101.9
X115.24Y-106.98
X115.24Y-135.428
X115.24Y-137.968
X117.78Y-101.9
X117.78Y-106.98
X120.32Y-101.9
X125.4Y-101.9
X125.4Y-104.44
X125.4Y-106.98
X127.94Y-101.9
X127.94Y-104.44
X127.94Y-106.98
X129.972Y-111.6
X129.972Y-114.14
X129.972Y-118.66
X129.972Y-121.2
X130.48Y-101.9
X130.48Y-104.44
X130.48Y-106.98
X133.02Y-101.9
X133.02Y-104.44
X133.02Y-106.98
X135.56Y-135.428
X135.56Y-137.968
X138.1Y-135.428
X138.1Y-137.968
X140.64Y-135.428
X140.64Y-137.968
X143.18Y-135.428
X143.18Y-137.968
X145.72Y-101.9
X145.72Y-104.44
X148.26Y-101.9
X148.26Y-104.44
X149.53Y-108.25
X149.53Y-115.87
X149.53Y-118.41
X149.53Y-120.95
X150.8Y-101.9
X150.8Y-104.44
X151.562Y-135.428
X151.562Y-137.968
X152.07Y-108.25
X152.07Y-120.95
X153.34Y-101.9
X153.34Y-104.44
X154.102Y-135.428
X154.102Y-137.968
X154.61Y-108.25
X154.61Y-120.95
X156.642Y-135.428
X156.642Y-137.968
X157.15Y-108.25
X157.15Y-120.95
X158.42Y-101.9
X159.182Y-135.428
X159.182Y-137.968
X159.69Y-108.25
X159.69Y-120.95
X160.96Y-101.9
X162.23Y-108.25
X162.23Y-110.79
X162.23Y-113.33
X162.23Y-115.87
X162.23Y-118.41
X162.23Y-120.95
X163.5Y-101.9
X164.77Y-108.25
X164.77Y-110.79
X164.77Y-113.33
X164.77Y-115.87
X164.77Y-118.41
X164.77Y-120.95
X166.04Y-101.9
X167.31Y-108.25
X167.31Y-110.79
X167.31Y-113.33
X167.31Y-115.87
X167.31Y-118.41
X167.31Y-120.95
T5
X105.842Y-119.68
X105.842Y-124.76
T0
M30
